<svg xmlns="http://www.w3.org/2000/svg" xmlns:xlink="http://www.w3.org/1999/xlink" width="1513.807" height="655.475" viewBox="0 0 1513.807 655.475"><defs><style>.a,.c,.e,.f,.g,.v{fill:none;}.a{stroke:#e42223;stroke-dasharray:4 6;}.a,.c,.e,.f{stroke-linecap:round;}.a,.c,.e{stroke-linejoin:round;}.a,.c{stroke-width:3px;}.b,.q{fill:#e42223;}.c,.e,.f,.g{stroke:#848484;}.d,.l,.r{fill:#848484;}.e,.j{stroke-width:2px;}.f{stroke-width:4px;}.h{fill:#c0c4c8;}.i,.n,.s{fill:#111;}.i{font-size:14px;font-family:Montserrat-Light, Montserrat;font-weight:300;}.j,.k,.p,.t{fill:#fff;}.j{stroke:#707070;stroke-dasharray:8 6;}.l,.s,.t{font-size:16px;}.l,.n,.p,.q,.r,.s,.t{font-family:Montserrat-Regular, Montserrat;}.m{fill:url(#a);}.n,.p,.r{font-size:12px;}.o{fill:url(#d);}.q{font-size:20px;}.u{stroke:none;}.w{filter:url(#k);}.x{filter:url(#h);}.y{filter:url(#e);}.z{filter:url(#b);}</style><radialGradient id="a" cx="0.5" cy="0.249" r="1.268" gradientUnits="objectBoundingBox"><stop offset="0" stop-color="#fff"/><stop offset="1" stop-color="#c0c4c8"/></radialGradient><filter id="b" x="1138" y="353.5" width="148" height="54" filterUnits="userSpaceOnUse"><feOffset input="SourceAlpha"/><feGaussianBlur stdDeviation="3" result="c"/><feFlood flood-opacity="0.161"/><feComposite operator="in" in2="c"/><feComposite in="SourceGraphic"/></filter><radialGradient id="d" cx="0.5" cy="0.249" r="1.268" gradientUnits="objectBoundingBox"><stop offset="0" stop-color="#c0c4c8"/><stop offset="1" stop-color="#848484"/></radialGradient><filter id="e" x="1138" y="494.5" width="148" height="54" filterUnits="userSpaceOnUse"><feOffset input="SourceAlpha"/><feGaussianBlur stdDeviation="3" result="f"/><feFlood flood-opacity="0.161"/><feComposite operator="in" in2="f"/><feComposite in="SourceGraphic"/></filter><filter id="h" x="849.36" y="179.079" width="240" height="97" filterUnits="userSpaceOnUse"><feOffset input="SourceAlpha"/><feGaussianBlur stdDeviation="3" result="i"/><feFlood flood-opacity="0.161"/><feComposite operator="in" in2="i"/><feComposite in="SourceGraphic"/></filter><filter id="k" x="849.36" y="470.76" width="240" height="97" filterUnits="userSpaceOnUse"><feOffset input="SourceAlpha"/><feGaussianBlur stdDeviation="3" result="l"/><feFlood flood-opacity="0.161"/><feComposite operator="in" in2="l"/><feComposite in="SourceGraphic"/></filter></defs><g transform="translate(-240 -2448.5)"><path class="a" d="M7721,9162.171h54.332V9023.734h247.3" transform="translate(-6737.586 -6525.734)"/><g transform="translate(1523.607 2777.754)"><path class="a" d="M4927.906,8031.015c0,19.48.278,287.732.278,287.732H4736.868" transform="translate(-4727.984 -8031.015)"/><path class="b" d="M12.7,3.726a2,2,0,0,1,3.6,0l11.312,23.4a2,2,0,0,1-1.8,2.87H3.188a2,2,0,0,1-1.8-2.87Z" transform="translate(0 302.233) rotate(-90)"/></g><path class="b" d="M12.7,3.726a2,2,0,0,1,3.6,0l11.312,23.4a2,2,0,0,1-1.8,2.87H3.188a2,2,0,0,1-1.8-2.87Z" transform="translate(1300.047 2483.5) rotate(90)"/><g transform="translate(1619.741 2495.112)"><path class="a" d="M4950.62,8208.3c0-12,.317-177.289.317-177.289H4850.31" transform="translate(-4850.31 -8031.015)"/><path class="b" d="M12.7,3.726a2,2,0,0,1,3.6,0l11.312,23.4a2,2,0,0,1-1.8,2.87H3.188a2,2,0,0,1-1.8-2.87Z" transform="translate(115.127 184.789) rotate(180)"/></g><g transform="translate(-51.2 -373.703)"><path class="a" d="M4736.869,8285.658h126.587" transform="translate(-4062.255 -5215.061)"/><path class="b" d="M12.7,3.726a2,2,0,0,1,3.6,0l11.312,23.4a2,2,0,0,1-1.8,2.87H3.188a2,2,0,0,1-1.8-2.87Z" transform="translate(805.739 3056.098) rotate(90)"/></g><g transform="translate(335.696 2691.742)"><path class="a" d="M4736.869,8285.658h79.521" transform="translate(-4736.869 -8271.158)"/><path class="b" d="M12.7,3.726a2,2,0,0,1,3.6,0l11.312,23.4a2,2,0,0,1-1.8,2.87H3.188a2,2,0,0,1-1.8-2.87Z" transform="translate(84.06) rotate(90)"/></g><g transform="translate(335.696 2870.71)"><path class="c" d="M4736.869,8285.658h79.521" transform="translate(-4736.869 -8271.158)"/><path class="d" d="M12.7,3.726a2,2,0,0,1,3.6,0l11.312,23.4a2,2,0,0,1-1.8,2.87H3.188a2,2,0,0,1-1.8-2.87Z" transform="translate(84.06) rotate(90)"/></g><g transform="translate(-46.567 -185.388)"><path class="c" d="M4736.869,8285.658h126.587" transform="translate(-4062.255 -5215.061)"/><path class="d" d="M12.7,3.726a2,2,0,0,1,3.6,0l11.312,23.4a2,2,0,0,1-1.8,2.87H3.188a2,2,0,0,1-1.8-2.87Z" transform="translate(805.739 3056.098) rotate(90)"/></g><g transform="translate(325.696 3050.987)"><path class="a" d="M5154.652,8285.658H4736.869" transform="translate(-4724.137 -8271.158)"/><path class="b" d="M12.7,3.726a2,2,0,0,1,3.6,0l11.312,23.4a2,2,0,0,1-1.8,2.87H3.188a2,2,0,0,1-1.8-2.87Z" transform="translate(0 29) rotate(-90)"/></g><g transform="translate(267.001 -882.372)"><path class="e" d="M4736.869,8285.658h32.962" transform="translate(-3462.849 -4728.885)"/><path class="d" d="M8.25,3.726a2,2,0,0,1,3.6,0l6.862,14.2a2,2,0,0,1-1.8,2.87H3.188a2,2,0,0,1-1.8-2.87Z" transform="translate(1315.167 3546.723) rotate(90)"/></g><g transform="translate(267.001 -726.888)"><path class="e" d="M4736.869,8285.658h32.962" transform="translate(-3462.849 -4728.885)"/><path class="d" d="M8.25,3.726a2,2,0,0,1,3.6,0l6.862,14.2a2,2,0,0,1-1.8,2.87H3.188a2,2,0,0,1-1.8-2.87Z" transform="translate(1315.167 3546.723) rotate(90)"/></g><g transform="translate(267.001 -589.013)"><path class="e" d="M4736.869,8285.658h32.962" transform="translate(-3462.849 -4728.885)"/><path class="d" d="M8.25,3.726a2,2,0,0,1,3.6,0l6.862,14.2a2,2,0,0,1-1.8,2.87H3.188a2,2,0,0,1-1.8-2.87Z" transform="translate(1315.167 3546.723) rotate(90)"/></g><g transform="translate(1000.616 3050.987)"><path class="a" d="M5106.916,8285.658H4736.869" transform="translate(-4724.137 -8271.158)"/><path class="b" d="M12.7,3.726a2,2,0,0,1,3.6,0l11.312,23.4a2,2,0,0,1-1.8,2.87H3.188a2,2,0,0,1-1.8-2.87Z" transform="translate(0 29) rotate(-90)"/></g><g transform="translate(1162.868 2483.5)"><path class="a" d="M4736.869,8285.658h101.847" transform="translate(-4468.669 -8271.158)"/><path class="b" d="M12.7,3.726a2,2,0,0,1,3.6,0l11.312,23.4a2,2,0,0,1-1.8,2.87H3.188a2,2,0,0,1-1.8-2.87Z" transform="translate(382.779) rotate(90)"/></g><g transform="translate(240.001 3046)"><path class="d" d="M72.32,33H5.249A5.241,5.241,0,0,0,0,38.151V85.9a5.143,5.143,0,0,0,5.249,5.076H72.32A4.941,4.941,0,0,0,77.3,85.9V38.151A4.98,4.98,0,0,0,72.32,33ZM17.634,35.935a1.887,1.887,0,1,1-1.887,1.887A1.889,1.889,0,0,1,17.634,35.935Zm-5.417,0a1.887,1.887,0,1,1-1.887,1.887A1.889,1.889,0,0,1,12.217,35.935Zm-5.417,0a1.887,1.887,0,1,1-1.887,1.887A1.889,1.889,0,0,1,6.8,35.935ZM72.614,86.143c0,.081.032.146-.049.146H4.685V42.809c0-.081.163-.146.244-.146H72.565c.081,0,.049.066.049.146V86.143ZM70.825,39.734h-20.5a1.9,1.9,0,0,1,0-3.8l20.5.006a1.9,1.9,0,0,1,0,3.792Z" transform="translate(0 -33)"/><line class="f" y2="30.451" transform="translate(17.714 13.762)"/><line class="f" x1="41.87" transform="translate(17.714 44.213)"/><circle class="d" cx="2.5" cy="2.5" r="2.5" transform="translate(22.649 30.633)"/><circle class="d" cx="3" cy="3" r="3" transform="translate(31.649 21.633)"/><circle class="d" cx="3" cy="3" r="3" transform="translate(40.649 33.633)"/><circle class="d" cx="2" cy="2" r="2" transform="translate(49.649 26.633)"/><path class="g" d="M60.5,135.155l7.363-11.579,9.724-8.644,9.107,13.275,8.027-8.335" transform="translate(-42.786 -90.943)"/></g><g transform="translate(241.313 2667)"><path class="d" d="M61.366,19.132a23.774,23.774,0,0,0-46.629-.015,16.642,16.642,0,0,0,1.917,33.175H28.541a2.377,2.377,0,1,0,0-4.755H16.654a11.887,11.887,0,1,1,.14-23.774,2.377,2.377,0,0,0,2.363-2.115,19.019,19.019,0,0,1,37.786,0,2.52,2.52,0,0,0,2.5,2.115,11.887,11.887,0,1,1,0,23.774H47.56a2.377,2.377,0,1,0,0,4.755H59.448a16.642,16.642,0,0,0,1.918-33.16Zm0,0" transform="translate(0.001 0)"/><path class="d" d="M193.119,206.3a2.377,2.377,0,1,0,3.42-3.3c-.019-.02-.039-.039-.059-.059L186.4,192.855a2.378,2.378,0,0,0-3.362,0l0,0L172.949,202.94a2.377,2.377,0,0,0,3.3,3.42l.059-.059,6.027-6.029-.093,14.839a2.377,2.377,0,1,0,4.754,0l.093-14.839Zm0,0" transform="translate(-146.663 -163.638)"/></g><g transform="translate(-649.586 -1315)"><rect class="h" width="196" height="500" rx="15" transform="translate(1430 3898)"/><text class="i" transform="translate(1528 3943)"><tspan x="-50.442" y="0">Customization</tspan><tspan x="-70.77" y="60">Multilingual support</tspan><tspan x="-38.836" y="120">Group SMS</tspan><tspan x="-39.536" y="180">Scheduling</tspan><tspan x="-55.65" y="240">Traffic Handling</tspan><tspan x="-28.168" y="300">Routing</tspan><tspan x="-27.944" y="360">Security</tspan><tspan x="-75.6" y="420">Reports and Analytics</tspan></text></g><g transform="translate(-102.586 -1396)"><g class="j" transform="translate(543 3989)"><rect class="u" width="156" height="401" rx="15"/><rect class="v" x="1" y="1" width="154" height="399" rx="14"/></g><g transform="translate(0 -6.676)"><g transform="translate(382.302 196.302)"><g transform="translate(207.698 3954.698)"><path class="d" d="M29.546,59.092A29.546,29.546,0,1,0,0,29.546,29.61,29.61,0,0,0,29.546,59.092Zm8.765-4.979a27.562,27.562,0,0,0,3.921-7.256h6.805A26.163,26.163,0,0,1,38.311,54.112ZM51.639,43.4H43.352A51.852,51.852,0,0,0,45.1,31.277H55.57A25.908,25.908,0,0,1,51.639,43.4Zm0-27.7A25.908,25.908,0,0,1,55.57,27.815H45.1A51.853,51.853,0,0,0,43.352,15.7Zm-2.6-3.462H42.232a27.577,27.577,0,0,0-3.921-7.255A26.17,26.17,0,0,1,49.038,12.234ZM31.277,3.759c3.4,1.151,5.835,5.192,7.228,8.475H31.277Zm0,11.938h8.474a47.454,47.454,0,0,1,1.885,12.118H31.277Zm0,15.58H41.636A47.456,47.456,0,0,1,39.752,43.4H31.277Zm0,15.581h7.228c-1.4,3.29-3.834,7.326-7.228,8.476Zm-21.223,0H16.86a27.577,27.577,0,0,0,3.921,7.255A26.169,26.169,0,0,1,10.054,46.858Zm17.761,8.475c-3.394-1.15-5.832-5.186-7.228-8.475h7.228Zm0-11.938H19.34a47.454,47.454,0,0,1-1.885-12.118H27.815Zm0-15.581H17.455A47.454,47.454,0,0,1,19.34,15.7h8.474Zm0-24.056v8.475H20.586C21.983,8.945,24.42,4.909,27.815,3.759ZM20.781,4.979a27.575,27.575,0,0,0-3.921,7.255H10.054A26.169,26.169,0,0,1,20.781,4.979ZM7.453,15.7H15.74a51.871,51.871,0,0,0-1.748,12.12H3.521A25.917,25.917,0,0,1,7.453,15.7ZM3.521,31.277H13.992A51.852,51.852,0,0,0,15.74,43.4H7.453A25.908,25.908,0,0,1,3.521,31.277Z"/></g><g transform="translate(223.857 3970.857)"><g transform="translate(3 3)"><g transform="translate(0 0)"><path class="k" d="M23.967,43.841H19.875A2.736,2.736,0,0,1,17.16,41.43L16.724,38a17.263,17.263,0,0,1-2.51-1.039l-2.729,2.121a2.725,2.725,0,0,1-3.626-.23L4.981,35.977a2.717,2.717,0,0,1-.223-3.615l2.121-2.731a16.865,16.865,0,0,1-1.039-2.51l-3.434-.437A2.742,2.742,0,0,1,0,23.967V19.875A2.736,2.736,0,0,1,2.411,17.16l3.427-.437a17.263,17.263,0,0,1,1.039-2.51L4.759,11.485a2.723,2.723,0,0,1,.232-3.628L7.868,4.98a2.72,2.72,0,0,1,3.615-.223l2.729,2.123A17.2,17.2,0,0,1,16.724,5.84l.437-3.434A2.736,2.736,0,0,1,19.875,0h4.092a2.736,2.736,0,0,1,2.715,2.411l.437,3.427a17.2,17.2,0,0,1,2.512,1.039l2.729-2.121a2.723,2.723,0,0,1,3.626.232l2.877,2.877a2.717,2.717,0,0,1,.223,3.615l-2.121,2.731A16.866,16.866,0,0,1,38,16.722l3.434.437a2.739,2.739,0,0,1,2.4,2.716v4.092a2.736,2.736,0,0,1-2.411,2.715L38,27.118a17.263,17.263,0,0,1-1.039,2.51l2.121,2.729a2.721,2.721,0,0,1-.232,3.626L35.975,38.86a2.716,2.716,0,0,1-3.615.223l-2.731-2.121A16.865,16.865,0,0,1,27.12,38C26.517,42.806,25.349,43.841,23.967,43.841Z" transform="translate(0 0)"/></g></g><g transform="translate(3 3)"><g transform="translate(0 0)"><path class="d" d="M23.967,43.841H19.875A2.736,2.736,0,0,1,17.16,41.43L16.724,38a17.263,17.263,0,0,1-2.51-1.039l-2.729,2.121a2.725,2.725,0,0,1-3.626-.23L4.981,35.977a2.717,2.717,0,0,1-.223-3.615l2.121-2.731a16.865,16.865,0,0,1-1.039-2.51l-3.434-.437A2.742,2.742,0,0,1,0,23.967V19.875A2.736,2.736,0,0,1,2.411,17.16l3.427-.437a17.263,17.263,0,0,1,1.039-2.51L4.759,11.485a2.723,2.723,0,0,1,.232-3.628L7.868,4.98a2.72,2.72,0,0,1,3.615-.223l2.729,2.123A17.2,17.2,0,0,1,16.724,5.84l.437-3.434A2.736,2.736,0,0,1,19.875,0h4.092a2.736,2.736,0,0,1,2.715,2.411l.437,3.427a17.2,17.2,0,0,1,2.512,1.039l2.729-2.121a2.723,2.723,0,0,1,3.626.232l2.877,2.877a2.717,2.717,0,0,1,.223,3.615l-2.121,2.731A16.866,16.866,0,0,1,38,16.722l3.434.437a2.739,2.739,0,0,1,2.4,2.716v4.092a2.736,2.736,0,0,1-2.411,2.715L38,27.118a17.263,17.263,0,0,1-1.039,2.51l2.121,2.729a2.721,2.721,0,0,1-.232,3.626L35.975,38.86a2.716,2.716,0,0,1-3.615.223l-2.731-2.121A16.865,16.865,0,0,1,27.12,38l-.437,3.434A2.739,2.739,0,0,1,23.967,43.841Zm-9.846-8.878a.926.926,0,0,1,.446.115,15.332,15.332,0,0,0,3.241,1.344.912.912,0,0,1,.654.762l.511,4.019a.923.923,0,0,0,.9.811h4.092a.92.92,0,0,0,.9-.8l.513-4.026a.912.912,0,0,1,.654-.762,15.332,15.332,0,0,0,3.241-1.344.912.912,0,0,1,1,.077l3.2,2.484a.9.9,0,0,0,1.2-.062l2.9-2.9a.9.9,0,0,0,.071-1.206l-2.484-3.2a.912.912,0,0,1-.077-1,15.333,15.333,0,0,0,1.344-3.241.912.912,0,0,1,.762-.654l4.019-.511a.927.927,0,0,0,.811-.9V19.875a.92.92,0,0,0-.8-.9l-4.026-.513a.912.912,0,0,1-.762-.654,15.332,15.332,0,0,0-1.344-3.241.908.908,0,0,1,.077-1l2.484-3.2a.9.9,0,0,0-.06-1.195l-2.9-2.9A.9.9,0,0,0,33.48,6.2l-3.2,2.484a.915.915,0,0,1-1.007.077A15.269,15.269,0,0,0,26.036,7.42a.912.912,0,0,1-.654-.762L24.871,2.64a.927.927,0,0,0-.9-.813H19.875a.92.92,0,0,0-.9.8l-.513,4.026a.916.916,0,0,1-.654.764,15.264,15.264,0,0,0-3.241,1.343.915.915,0,0,1-1.007-.075L10.363,6.2a.9.9,0,0,0-1.195.06l-2.9,2.9A.9.9,0,0,0,6.2,10.365l2.484,3.2a.912.912,0,0,1,.077,1,15.237,15.237,0,0,0-1.344,3.241.912.912,0,0,1-.762.654l-4.019.511a.923.923,0,0,0-.811.9v4.092a.92.92,0,0,0,.8.9l4.026.513a.912.912,0,0,1,.762.654,15.332,15.332,0,0,0,1.344,3.241.908.908,0,0,1-.077,1L6.2,33.477a.9.9,0,0,0,.06,1.195l2.9,2.9a.9.9,0,0,0,1.206.071l3.2-2.484a.941.941,0,0,1,.563-.19Z" transform="translate(0 0)"/></g><g transform="translate(12.787 12.787)"><path class="d" d="M16.134,25.267a9.134,9.134,0,1,1,9.134-9.134A9.144,9.144,0,0,1,16.134,25.267Zm0-16.44a7.307,7.307,0,1,0,7.307,7.307A7.314,7.314,0,0,0,16.134,8.827Z" transform="translate(-7 -7)"/></g></g></g></g><text class="l" transform="translate(621 4239.351)"><tspan x="-23.848" y="0">SMPP</tspan></text></g><text class="l" transform="translate(621 4104.351)"><tspan x="-13.904" y="0">API</tspan></text><g transform="translate(591 4019)"><path class="d" d="M10.943,6.156V1.368a1.368,1.368,0,0,1,2.736,0V6.156Zm4.788.684H.684A.684.684,0,0,0,0,7.524V8.891a.684.684,0,0,0,.684.684h.684v1.368a6.842,6.842,0,0,0,5.472,6.7v4.241H9.575V17.646a6.842,6.842,0,0,0,5.472-6.7V9.575h.684a.684.684,0,0,0,.684-.684V7.524A.684.684,0,0,0,15.731,6.84ZM5.472,6.156V1.368a1.368,1.368,0,1,0-2.736,0V6.156Z" transform="translate(32.063 21.792) rotate(90)"/><path class="d" d="M15.731,15.047H.684A.684.684,0,0,1,0,14.363V13a.684.684,0,0,1,.684-.684h.684V10.943a6.842,6.842,0,0,1,5.472-6.7V0H9.575V4.241a6.842,6.842,0,0,1,5.472,6.7v1.368h.684a.684.684,0,0,1,.684.684v1.368A.684.684,0,0,1,15.731,15.047Z" transform="translate(49.824 21.792) rotate(90)"/><g transform="translate(0 0)"><g transform="translate(0 0)"><path class="d" d="M32.8,60H27.2a3.744,3.744,0,0,1-3.715-3.3l-.6-4.69a23.625,23.625,0,0,1-3.435-1.423l-3.735,2.9a3.729,3.729,0,0,1-4.963-.315L6.817,49.237a3.719,3.719,0,0,1-.3-4.947l2.9-3.737a23.081,23.081,0,0,1-1.423-3.435l-4.7-.6A3.753,3.753,0,0,1,0,32.8V27.2a3.744,3.744,0,0,1,3.3-3.715l4.69-.6a23.625,23.625,0,0,1,1.423-3.435l-2.9-3.735a3.727,3.727,0,0,1,.317-4.965l3.938-3.938a3.722,3.722,0,0,1,4.948-.3l3.735,2.9a23.54,23.54,0,0,1,3.438-1.422l.6-4.7A3.744,3.744,0,0,1,27.2,0h5.6a3.744,3.744,0,0,1,3.715,3.3l.6,4.69A23.541,23.541,0,0,1,40.55,9.412l3.735-2.9a3.726,3.726,0,0,1,4.963.318l3.938,3.938a3.719,3.719,0,0,1,.3,4.947l-2.9,3.738a23.081,23.081,0,0,1,1.422,3.435l4.7.6A3.748,3.748,0,0,1,60,27.2v5.6a3.744,3.744,0,0,1-3.3,3.715l-4.69.6a23.625,23.625,0,0,1-1.422,3.435l2.9,3.735a3.724,3.724,0,0,1-.317,4.963l-3.938,3.937a3.716,3.716,0,0,1-4.948.305l-3.737-2.9a23.081,23.081,0,0,1-3.435,1.423l-.6,4.7A3.748,3.748,0,0,1,32.8,60ZM19.325,47.85a1.267,1.267,0,0,1,.61.157,20.983,20.983,0,0,0,4.435,1.84,1.248,1.248,0,0,1,.895,1.043l.7,5.5A1.264,1.264,0,0,0,27.2,57.5h5.6a1.259,1.259,0,0,0,1.232-1.1l.7-5.51a1.248,1.248,0,0,1,.9-1.042,20.983,20.983,0,0,0,4.435-1.84,1.247,1.247,0,0,1,1.375.105l4.375,3.4a1.23,1.23,0,0,0,1.638-.085l3.962-3.963a1.236,1.236,0,0,0,.1-1.65l-3.4-4.375a1.248,1.248,0,0,1-.1-1.375,20.984,20.984,0,0,0,1.84-4.435,1.248,1.248,0,0,1,1.042-.9l5.5-.7A1.268,1.268,0,0,0,57.5,32.8V27.2a1.259,1.259,0,0,0-1.1-1.232l-5.51-.7a1.248,1.248,0,0,1-1.042-.9,20.983,20.983,0,0,0-1.84-4.435,1.243,1.243,0,0,1,.1-1.375l3.4-4.375a1.226,1.226,0,0,0-.083-1.635L47.47,8.588a1.231,1.231,0,0,0-1.65-.1l-4.375,3.4A1.252,1.252,0,0,1,40.067,12a20.9,20.9,0,0,0-4.435-1.84,1.248,1.248,0,0,1-.895-1.042l-.7-5.5A1.268,1.268,0,0,0,32.8,2.5H27.2a1.259,1.259,0,0,0-1.233,1.1l-.7,5.51a1.254,1.254,0,0,1-.895,1.045,20.89,20.89,0,0,0-4.435,1.838,1.252,1.252,0,0,1-1.378-.1l-4.375-3.4a1.226,1.226,0,0,0-1.635.082L8.585,12.535a1.236,1.236,0,0,0-.1,1.65l3.4,4.375a1.248,1.248,0,0,1,.1,1.375,20.853,20.853,0,0,0-1.84,4.435,1.248,1.248,0,0,1-1.043.9l-5.5.7A1.264,1.264,0,0,0,2.5,27.2v5.6a1.259,1.259,0,0,0,1.1,1.232l5.51.7a1.248,1.248,0,0,1,1.042.9,20.983,20.983,0,0,0,1.84,4.435,1.243,1.243,0,0,1-.1,1.375l-3.4,4.375a1.226,1.226,0,0,0,.083,1.635l3.962,3.963a1.236,1.236,0,0,0,1.65.1l4.375-3.4a1.288,1.288,0,0,1,.77-.26Z" transform="translate(0 0)"/></g></g></g><g transform="translate(0 -13)"><text class="l" transform="translate(621 4368.972)"><tspan x="-57.224" y="0">Web Interface</tspan></text><g transform="translate(591 4277.088)"><g transform="translate(0 8.533)"><path class="d" d="M56,8.533H4a4,4,0,0,0-4,3.98V45.337a1,1,0,0,0,1,.995H59a1,1,0,0,0,1-.995V12.513A4,4,0,0,0,56,8.533Zm2,35.809H2V12.513a2,2,0,0,1,2-1.99H56a2,2,0,0,1,2,1.99Z" transform="translate(0 -8.533)"/></g><g transform="translate(0 44.573)"><path class="d" d="M59,315.733H1a1,1,0,0,0-1,.995V321.7a4,4,0,0,0,4,3.98H56a4,4,0,0,0,4-3.98v-4.972A1,1,0,0,0,59,315.733ZM58,321.7a2,2,0,0,1-2,1.99H4a2,2,0,0,1-2-1.99v-3.978H58V321.7Z" transform="translate(0 -315.733)"/></g><g transform="translate(26.021 48.541)"><path class="d" d="M228.83,349.867h-5.968a.995.995,0,1,0,0,1.989h5.968a.995.995,0,1,0,0-1.989Z" transform="translate(-221.867 -349.867)"/></g><g transform="translate(3.979 12.512)"><path class="d" d="M85.176,42.667H35.135a1,1,0,0,0-1,.995v31.83a1,1,0,0,0,1,.995H85.176a1,1,0,0,0,1-.995V43.662A1,1,0,0,0,85.176,42.667Zm-1,31.83H36.136V44.656H84.175Z" transform="translate(-34.134 -42.667)"/></g><g transform="translate(14.085 60.565)"><path class="d" d="M148.313,452.267H122.451a2.984,2.984,0,0,0,0,5.968h25.862a2.984,2.984,0,1,0,0-5.968Zm0,3.979H122.451a.995.995,0,1,1,0-1.989h25.862a.995.995,0,1,1,0,1.989Z" transform="translate(-119.467 -452.267)"/></g><g transform="translate(18.064 52.607)"><path class="d" d="M176.479,391.958c-3.3,0-4.974-2.342-4.974-6.963a1,1,0,0,0-.995-.995h-9.947a1,1,0,0,0-.995.995c0,4.62-1.673,6.963-4.974,6.963a.995.995,0,0,0,0,1.989h21.883a.995.995,0,0,0,0-1.989Zm-17.038,0a9.53,9.53,0,0,0,2.091-5.968h8.012a9.518,9.518,0,0,0,2.091,5.968Z" transform="translate(-153.601 -384.001)"/></g><g transform="translate(35.058 29.565)"><path class="d" d="M311.433,196.15l-2.4-2.4,1.336-1.336a.994.994,0,0,0-.417-1.656L300,187.773a.995.995,0,0,0-1.238,1.238l2.984,9.947a.994.994,0,0,0,1.656.418l1.406-1.408,2.4,2.4a.994.994,0,0,0,1.406,0l2.813-2.814A.994.994,0,0,0,311.433,196.15Zm-3.516,2.111-2.186-2.187a1.3,1.3,0,0,0-1.836,0l-.718.718-1.974-6.582,6.582,1.974-.77.77a1.127,1.127,0,0,0,0,1.593l2.308,2.308Z" transform="translate(-298.723 -187.731)"/></g><g transform="translate(13.069 16.491)"><path class="d" d="M139.78,76.8H111.929a1,1,0,0,0-.995.995v4.974a1,1,0,0,0,.995.995H139.78a1,1,0,0,0,.995-.995V77.795A1,1,0,0,0,139.78,76.8Zm-.995,4.974H112.923V78.789h25.862Z" transform="translate(-110.934 -76.8)"/></g><g transform="translate(17.018 27.545)"><path class="d" d="M154.019,170.667h-7.958a1,1,0,0,0-.995.995v3.979a1,1,0,0,0,.995.995h7.958a1,1,0,0,0,.995-.995v-3.979A1,1,0,0,0,154.019,170.667Zm-.995,3.979h-5.968v-1.989h5.968Z" transform="translate(-145.067 -170.667)"/></g><g transform="translate(13.069 16.491)"><path class="d" d="M139.78,76.8H111.929a1,1,0,0,0-.995.995v18.9a1,1,0,0,0,.995.995h23.68a1,1,0,0,0,.953-1.281l-1.259-4.2,4.193,1.258a1,1,0,0,0,1.28-.953V77.795A1,1,0,0,0,139.78,76.8Zm-.995,14.377-4.682-1.4a1,1,0,0,0-1.238,1.239l1.406,4.687H112.923V78.789h25.862Z" transform="translate(-110.934 -76.8)"/></g></g></g></g><g transform="translate(240 2827.574)"><g transform="translate(0)"><path class="d" d="M125.3,17.006C125.3,7.47,108.323,0,86.65,0S48,7.47,48,17.006a8.08,8.08,0,0,0,.155,1.546H48V78.846c0,9.536,16.977,17.006,38.65,17.006s38.65-7.47,38.65-17.006V18.552h-.155A8.08,8.08,0,0,0,125.3,17.006Zm-3.092,61.84c0,6.719-14.288,13.914-35.558,13.914s-35.558-7.2-35.558-13.914V70.165c5.844,6.07,19.393,10.227,35.558,10.227s29.714-4.157,35.558-10.227Zm0-15.46C122.208,70.1,107.92,77.3,86.65,77.3S51.092,70.1,51.092,63.386V54.705c5.844,6.07,19.393,10.227,35.558,10.227s29.714-4.157,35.558-10.227Zm0-15.46c0,6.719-14.288,13.914-35.558,13.914s-35.558-7.2-35.558-13.914V39.245c5.844,6.07,19.393,10.227,35.558,10.227s29.714-4.157,35.558-10.227Zm0-15.46c0,6.719-14.288,13.914-35.558,13.914s-35.558-7.2-35.558-13.914V23.785c5.844,6.07,19.393,10.227,35.558,10.227s29.714-4.157,35.558-10.227ZM86.65,30.92c-21.27,0-35.558-7.2-35.558-13.914S65.38,3.092,86.65,3.092s35.558,7.2,35.558,13.914S107.92,30.92,86.65,30.92Z" transform="translate(-48)"/></g></g><g transform="translate(1415.305 3042.315)"><path class="d" d="M67.662,76H6.52A6.53,6.53,0,0,0,0,82.52v39.119a6.53,6.53,0,0,0,6.52,6.52H67.662a6.527,6.527,0,0,0,6.52-6.52V82.52A6.526,6.526,0,0,0,67.662,76Zm-.913,4.347L41.7,105.262a6.52,6.52,0,0,1-9.225,0L7.433,80.347Zm-62.4,40.408V83.407l18.783,18.684Zm3.089,3.058,18.775-18.656,3.2,3.179a10.866,10.866,0,0,0,15.363,0l3.2-3.183,18.775,18.656Zm62.4-3.058L51.052,102.091,69.835,83.407Z" transform="translate(0 -76)"/></g><g transform="translate(661.201 2900.13)"><path class="d" d="M43.015,76H4.145A4.151,4.151,0,0,0,0,80.145v24.869a4.151,4.151,0,0,0,4.145,4.145h38.87a4.15,4.15,0,0,0,4.145-4.145V80.145A4.149,4.149,0,0,0,43.015,76Zm-.58,2.763L26.511,94.6a4.145,4.145,0,0,1-5.864,0L4.725,78.763ZM2.763,104.452V80.709L14.7,92.587ZM4.727,106.4l11.936-11.86L18.7,96.557a6.908,6.908,0,0,0,9.767,0L30.5,94.536,42.433,106.4Zm39.67-1.944L32.456,92.587,44.4,80.709Z" transform="translate(0 -76)"/></g><g transform="translate(1693.808 2696.895)"><g transform="translate(0)"><path class="d" d="M51.213,38.787a29.885,29.885,0,0,0-11.4-7.151,17.344,17.344,0,1,0-19.626,0A30.047,30.047,0,0,0,0,60H4.687a25.312,25.312,0,1,1,50.625,0H60A29.8,29.8,0,0,0,51.213,38.787ZM30,30A12.656,12.656,0,1,1,42.656,17.344,12.671,12.671,0,0,1,30,30Z" transform="translate(0)"/></g></g><g transform="translate(-49 -770)"><g class="z" transform="matrix(1, 0, 0, 1, 289, 3218.5)"><rect class="m" width="130" height="36" rx="8" transform="translate(1147 362.5)"/></g><text class="n" transform="translate(1501 3603)"><tspan x="-25.326" y="0">MVNO&apos;S</tspan></text></g><g transform="translate(-49 -713)"><g class="y" transform="matrix(1, 0, 0, 1, 289, 3161.5)"><rect class="o" width="130" height="36" rx="8" transform="translate(1147 503.5)"/></g><text class="p" transform="translate(1501 3688)"><tspan x="-47.148" y="0">AGGREGATORS</tspan></text></g><text class="q" transform="translate(518.414 2528)"><tspan x="-96.22" y="0">Client Connectivity</tspan></text><text class="q" transform="translate(878.414 2528)"><tspan x="-101.35" y="0">Iconnect Messaging</tspan><tspan x="-43.93" y="20">Platform</tspan></text><text class="l" transform="translate(1369.924 2492.079)"><tspan x="-41.368" y="0">Iconnect&apos;s</tspan><tspan x="-51.112" y="20">Connectivity</tspan></text><text class="l" transform="translate(1595.79 2502.079)"><tspan x="-40.224" y="0">End Users</tspan></text><g transform="translate(-20.134 -686.369)"><g transform="translate(1462.475 3293.961)"><g transform="translate(4.866 24.685)"><path class="b" d="M138.7,234.2a.7.7,0,0,1-.694-.762l5.32-55.053a.7.7,0,0,1,.076-.257l6.433-12.247a.7.7,0,0,1,1.232,0L157.5,178.13a.7.7,0,0,1,.078.257l5.319,55.053a.7.7,0,0,1-1.283.435l-7.961-12.786h-6.4l-7.961,12.786A.7.7,0,0,1,138.7,234.2Zm6-55.545-5.022,51.962,6.6-10.593a.694.694,0,0,1,.59-.328h7.175a.7.7,0,0,1,.591.328l6.6,10.593L156.2,178.657,150.448,167.7Z" transform="translate(-138 -165.511)"/><g transform="translate(4.077 12.247)"><path class="b" d="M157.152,189.092H141.8a.7.7,0,0,1-.469-1.211l7.111-6.484-5.837-5.322-.039-.038a.7.7,0,0,1,.477-1.2h12.866a.7.7,0,0,1,.469,1.21l-5.869,5.353,7.113,6.484a.7.7,0,0,1-.469,1.211ZM143.595,187.7h11.76l-5.88-5.361Zm1.24-11.475,4.64,4.23,4.637-4.23Z" transform="translate(-141.103 -174.834)"/></g><g transform="translate(2.889 25.113)"><path class="b" d="M158.623,198.886H140.894a.7.7,0,0,1-.431-1.243l8.172-6.453-6.7-5.29-.042-.035a.7.7,0,0,1,.437-1.237h14.857a.7.7,0,0,1,.432,1.243l-6.739,5.32,8.175,6.453a.7.7,0,0,1-.432,1.243ZM142.9,197.494h13.72l-6.86-5.416Zm1.432-11.473,5.428,4.284,5.425-4.284Z" transform="translate(-140.199 -184.628)"/></g><g transform="translate(1.267 37.979)"><path class="b" d="M160.254,212.021H139.66a.7.7,0,0,1-.447-1.23l9.751-8.166-8.149-6.939a.511.511,0,0,1-.047-.045.7.7,0,0,1,.457-1.22H159.01a.7.7,0,0,1,.447,1.23l-8.336,6.982L160.7,210.8a.7.7,0,0,1-.451,1.226Zm-18.679-1.392h16.788l-8.325-7.088Zm1.537-14.814,6.933,5.9,7.05-5.9Z" transform="translate(-138.964 -194.422)"/></g></g><g transform="translate(0 0)"><g transform="translate(13.233 13.484)"><ellipse class="b" cx="4.083" cy="4.083" rx="4.083" ry="4.083"/></g><g transform="translate(9.093 9.093)"><path class="b" d="M157.661,161.864a8.3,8.3,0,0,0-12.342-7.207,6.985,6.985,0,0,0-3.121,3.155,8.342,8.342,0,0,0,3.053,11.121.57.57,0,0,0,.783-.208h0a.571.571,0,0,0-.209-.776,7.188,7.188,0,0,1-2.6-9.608,6.04,6.04,0,0,1,2.773-2.735,7.111,7.111,0,0,1,7.06,12.343.571.571,0,0,0-.208.776h0a.567.567,0,0,0,.779.209A8.221,8.221,0,0,0,157.661,161.864Z" transform="translate(-141.217 -153.642)"/></g><g transform="translate(3.971 3.971)"><path class="b" d="M164.006,163.087a13.344,13.344,0,1,0-20.095,11.5.572.572,0,0,0,.786-.206h0a.567.567,0,0,0-.2-.774,12.2,12.2,0,1,1,12.335,0,.568.568,0,0,0-.2.774h0a.573.573,0,0,0,.788.206A13.347,13.347,0,0,0,164.006,163.087Z" transform="translate(-137.318 -149.743)"/></g><path class="b" d="M168.925,164.035a17.315,17.315,0,1,0-26.056,14.941.573.573,0,0,0,.789-.2h0a.568.568,0,0,0-.2-.774,16.175,16.175,0,1,1,16.306,0,.569.569,0,0,0-.2.775h0a.575.575,0,0,0,.79.2A17.323,17.323,0,0,0,168.925,164.035Z" transform="translate(-134.295 -146.72)"/></g></g><text class="r" transform="translate(1479.79 3408.579)"><tspan x="-48.9" y="0">Mobile Network</tspan><tspan x="-27.396" y="16">Operator</tspan></text></g><text class="r" transform="translate(1703.35 2570.079)"><tspan x="-113.532" y="0">Message delivered</tspan><tspan x="-61.08" y="16">in no time</tspan></text><text class="r" transform="translate(335.696 2585.71)"><tspan x="-64.932" y="0">Multiple Connectivity</tspan><tspan x="-21.012" y="16">Option</tspan></text><text class="l" transform="translate(688.977 2577.71)"><tspan x="-41.32" y="0">HTTP XML</tspan></text><text class="r" transform="translate(1038.781 2818.143)"><tspan x="-35.544" y="0">SMPP HTTP</tspan></text><text class="r" transform="translate(688.414 2652.764)"><tspan x="-69.396" y="0">Send message content</tspan><tspan x="-62.736" y="16">and mobile numbers</tspan></text><text class="r" transform="translate(684.781 2814.29)"><tspan x="-49.008" y="0">Connect to RML</tspan><tspan x="-66.054" y="16">Platform through API,</tspan><tspan x="-70.386" y="32">SMPP or Web Interface</tspan></text><text class="r" transform="translate(373.414 2662.5)"><tspan x="-44.232" y="0">Upload Mobile</tspan><tspan x="-26.994" y="16">numbers</tspan></text><text class="l" transform="translate(280.018 2960.5)"><tspan x="-23.672" y="0">Client</tspan><tspan x="-38.008" y="20">Database</tspan></text><text class="l" transform="translate(561.201 3099.975)"><tspan x="-99.512" y="0">Real time reports shared</tspan></text><text class="l" transform="translate(1210.442 3099.975)"><tspan x="-124.016" y="0">Delivery confirmation received</tspan></text><text class="r" transform="translate(1123.36 2460.5)"><tspan x="-80.928" y="0">RML checks the best route</tspan><tspan x="-85.86" y="16">for delivery of your message</tspan></text><g transform="translate(0 -732)"><g transform="translate(-46.586)"><path class="c" d="M4736.869,8285.658h366.02" transform="translate(-3683.584 -4724.436)"/><path class="d" d="M12.7,3.726a2,2,0,0,1,3.6,0l11.312,23.4a2,2,0,0,1-1.8,2.87H3.188a2,2,0,0,1-1.8-2.87Z" transform="translate(1423.899 3546.723) rotate(90)"/></g><path class="c" d="M8070,9206.079H7805.388V9497.76H8070" transform="translate(-6719.607 -5798)"/><path class="d" d="M12.7,3.726a2,2,0,0,1,3.6,0l11.312,23.4a2,2,0,0,1-1.8,2.87H3.188a2,2,0,0,1-1.8-2.87Z" transform="translate(1377.313 3393.579) rotate(90)"/><path class="d" d="M12.7,3.726a2,2,0,0,1,3.6,0l11.312,23.4a2,2,0,0,1-1.8,2.87H3.188a2,2,0,0,1-1.8-2.87Z" transform="translate(1377.313 3687.289) rotate(90)"/></g><g transform="translate(14.121 -750.5)"><g class="x" transform="matrix(1, 0, 0, 1, 225.88, 3199)"><rect class="m" width="222" height="79" rx="16" transform="translate(858.36 188.08)"/></g><text class="s" transform="translate(1195.239 3422.079)"><tspan x="-56.72" y="0">850+ Telecom</tspan><tspan x="-91.128" y="20">operators connectivity</tspan></text></g><g transform="translate(54.728 -677.24)"><g class="w" transform="matrix(1, 0, 0, 1, 185.27, 3125.74)"><rect class="o" width="222" height="79" rx="16" transform="translate(858.36 479.76)"/></g><text class="t" transform="translate(1154.633 3640.5)"><tspan x="-85.328" y="0">Multiple connectivity</tspan><tspan x="-76.56" y="20">&amp; interface options</tspan></text></g><g transform="translate(-46.586 -732)"><g transform="translate(1200.26 3564.643)"><g transform="translate(0 0)"><path class="k" d="M43.015,76H4.145A4.151,4.151,0,0,0,0,80.145v24.869a4.151,4.151,0,0,0,4.145,4.145h38.87a4.15,4.15,0,0,0,4.145-4.145V80.145A4.149,4.149,0,0,0,43.015,76ZM44.4,104.452Z" transform="translate(31 -96)"/></g></g><g transform="translate(1231.26 3544.643)"><g transform="translate(0 0)"><path class="d" d="M43.015,76H4.145A4.151,4.151,0,0,0,0,80.145v24.869a4.151,4.151,0,0,0,4.145,4.145h38.87a4.15,4.15,0,0,0,4.145-4.145V80.145A4.149,4.149,0,0,0,43.015,76Zm-.58,2.763L26.511,94.6a4.145,4.145,0,0,1-5.864,0L4.725,78.763ZM2.763,104.452V80.709L14.7,92.587ZM4.727,106.4l11.936-11.86L18.7,96.557a6.908,6.908,0,0,0,9.767,0L30.5,94.536,42.433,106.4Zm39.67-1.944L32.456,92.587,44.4,80.709Z" transform="translate(0 -76)"/></g></g></g><g transform="translate(379.272 -878.262)"><g transform="translate(1231.26 3544.643)"><g transform="translate(0 0)"><path class="k" d="M27.795,76H2.678A2.682,2.682,0,0,0,0,78.678v16.07a2.682,2.682,0,0,0,2.678,2.678H27.795a2.681,2.681,0,0,0,2.678-2.678V78.678A2.681,2.681,0,0,0,27.795,76Zm.893,18.385Z" transform="translate(0 -76)"/></g></g><g transform="translate(1231.26 3544.643)"><g transform="translate(0 0)"><path class="d" d="M27.795,76H2.678A2.682,2.682,0,0,0,0,78.678v16.07a2.682,2.682,0,0,0,2.678,2.678H27.795a2.681,2.681,0,0,0,2.678-2.678V78.678A2.681,2.681,0,0,0,27.795,76Zm-.375,1.786L17.13,88.021a2.678,2.678,0,0,1-3.789,0L3.053,77.786ZM1.786,94.385V79.043L9.5,86.718Zm1.269,1.256,7.713-7.664,1.313,1.306a4.464,4.464,0,0,0,6.311,0l1.315-1.308,7.713,7.664Zm25.633-1.256-7.716-7.667,7.716-7.675Z" transform="translate(0 -76)"/></g></g></g><g transform="translate(379.272 -587.596)"><g transform="translate(1231.26 3544.643)"><g transform="translate(0 0)"><path class="k" d="M27.795,76H2.678A2.682,2.682,0,0,0,0,78.678v16.07a2.682,2.682,0,0,0,2.678,2.678H27.795a2.681,2.681,0,0,0,2.678-2.678V78.678A2.681,2.681,0,0,0,27.795,76Zm.893,18.385Z" transform="translate(0 -76)"/></g></g><g transform="translate(1231.26 3544.643)"><g transform="translate(0 0)"><path class="d" d="M27.795,76H2.678A2.682,2.682,0,0,0,0,78.678v16.07a2.682,2.682,0,0,0,2.678,2.678H27.795a2.681,2.681,0,0,0,2.678-2.678V78.678A2.681,2.681,0,0,0,27.795,76Zm-.375,1.786L17.13,88.021a2.678,2.678,0,0,1-3.789,0L3.053,77.786ZM1.786,94.385V79.043L9.5,86.718Zm1.269,1.256,7.713-7.664,1.313,1.306a4.464,4.464,0,0,0,6.311,0l1.315-1.308,7.713,7.664Zm25.633-1.256-7.716-7.667,7.716-7.675Z" transform="translate(0 -76)"/></g></g></g><path class="d" d="M29.546,59.092A29.546,29.546,0,1,0,0,29.546,29.61,29.61,0,0,0,29.546,59.092Zm8.765-4.979a27.562,27.562,0,0,0,3.921-7.256h6.805A26.163,26.163,0,0,1,38.311,54.112ZM51.639,43.4H43.352A51.852,51.852,0,0,0,45.1,31.277H55.57A25.908,25.908,0,0,1,51.639,43.4Zm0-27.7A25.908,25.908,0,0,1,55.57,27.815H45.1A51.853,51.853,0,0,0,43.352,15.7Zm-2.6-3.462H42.232a27.577,27.577,0,0,0-3.921-7.255A26.17,26.17,0,0,1,49.038,12.234ZM31.277,3.759c3.4,1.151,5.835,5.192,7.228,8.475H31.277Zm0,11.938h8.474a47.454,47.454,0,0,1,1.885,12.118H31.277Zm0,15.58H41.636A47.456,47.456,0,0,1,39.752,43.4H31.277Zm0,15.581h7.228c-1.4,3.29-3.834,7.326-7.228,8.476Zm-21.223,0H16.86a27.577,27.577,0,0,0,3.921,7.255A26.169,26.169,0,0,1,10.054,46.858Zm17.761,8.475c-3.394-1.15-5.832-5.186-7.228-8.475h7.228Zm0-11.938H19.34a47.454,47.454,0,0,1-1.885-12.118H27.815Zm0-15.581H17.455A47.454,47.454,0,0,1,19.34,15.7h8.474Zm0-24.056v8.475H20.586C21.983,8.945,24.42,4.909,27.815,3.759ZM20.781,4.979a27.575,27.575,0,0,0-3.921,7.255H10.054A26.169,26.169,0,0,1,20.781,4.979ZM7.453,15.7H15.74a51.871,51.871,0,0,0-1.748,12.12H3.521A25.917,25.917,0,0,1,7.453,15.7ZM3.521,31.277H13.992A51.852,51.852,0,0,0,15.74,43.4H7.453A25.908,25.908,0,0,1,3.521,31.277Z" transform="translate(1616.804 2780.844)"/><g transform="translate(379.272 -726.355)"><g transform="translate(1231.26 3544.643)"><g transform="translate(0 0)"><path class="k" d="M27.795,76H2.678A2.682,2.682,0,0,0,0,78.678v16.07a2.682,2.682,0,0,0,2.678,2.678H27.795a2.681,2.681,0,0,0,2.678-2.678V78.678A2.681,2.681,0,0,0,27.795,76Zm.893,18.385Z" transform="translate(0 -76)"/></g></g><g transform="translate(1231.26 3544.643)"><g transform="translate(0 0)"><path class="d" d="M27.795,76H2.678A2.682,2.682,0,0,0,0,78.678v16.07a2.682,2.682,0,0,0,2.678,2.678H27.795a2.681,2.681,0,0,0,2.678-2.678V78.678A2.681,2.681,0,0,0,27.795,76Zm-.375,1.786L17.13,88.021a2.678,2.678,0,0,1-3.789,0L3.053,77.786ZM1.786,94.385V79.043L9.5,86.718Zm1.269,1.256,7.713-7.664,1.313,1.306a4.464,4.464,0,0,0,6.311,0l1.315-1.308,7.713,7.664Zm25.633-1.256-7.716-7.667,7.716-7.675Z" transform="translate(0 -76)"/></g></g></g></g></svg>