<svg xmlns="http://www.w3.org/2000/svg" xmlns:xlink="http://www.w3.org/1999/xlink" width="448.781" height="216.553" viewBox="0 0 448.781 216.553"><defs><style>.a{fill:#e42223;}.b{fill:none;stroke:#c0c4c8;stroke-miterlimit:10;stroke-width:0.974px;}.c{fill:#c0c4c8;}.d{fill:url(#a);}.e{fill:url(#b);}.f{fill:url(#c);}.g{fill:#f4ddd2;}.h{fill:#fff;}.i{fill:#313131;}.j{fill:#603813;}.k{fill:#c6d2db;}.l{fill:#848484;}</style><radialGradient id="a" cx="0.5" cy="0.5" r="0.5" gradientUnits="objectBoundingBox"><stop offset="0" stop-color="#111"/><stop offset="1" stop-opacity="0.6"/></radialGradient><linearGradient id="b" x1="0.534" y1="0.176" x2="0.375" y2="1.024" gradientUnits="objectBoundingBox"><stop offset="0" stop-color="#e5c9be"/><stop offset="0.028" stop-color="#e5cabf"/><stop offset="0.522" stop-color="#f0d8cd"/><stop offset="0.945" stop-color="#f4ddd2"/></linearGradient><linearGradient id="c" x1="0.5" y1="0.065" x2="0.5" y2="1.544" xlink:href="#b"/></defs><g transform="translate(-1167.663 -1787.382)"><g transform="translate(1557.492 1809.223)"><path class="a" d="M959.52,1.1l7.556-3.94v1.679a.662.662,0,0,1-.1.348.776.776,0,0,1-.315.272L963.2,1.238a3.2,3.2,0,0,1-.463.2c-.162.054-.336.1-.52.148q.276.067.52.148a3.154,3.154,0,0,1,.463.2l3.463,1.784a.77.77,0,0,1,.315.272.66.66,0,0,1,.1.348V6.008l-7.556-3.95Z" transform="translate(-959.52 6.166)"/><path class="a" d="M988.782,2.484V-11.694h2.357v5.448a5,5,0,0,1,1.259-.878,3.656,3.656,0,0,1,1.612-.334,3.5,3.5,0,0,1,1.422.272,2.812,2.812,0,0,1,1.035.763,3.344,3.344,0,0,1,.63,1.174,4.983,4.983,0,0,1,.215,1.5v6.23h-2.356v-6.23a2.091,2.091,0,0,0-.415-1.388,1.539,1.539,0,0,0-1.245-.491,2.454,2.454,0,0,0-1.145.277,4.1,4.1,0,0,0-1.011.754V2.484Z" transform="translate(-977.782 11.694)"/><path class="a" d="M1019.38,4.948a2.573,2.573,0,0,1-1.955-.721,2.763,2.763,0,0,1-.687-1.989V-3.228h-.992a.475.475,0,0,1-.329-.124.474.474,0,0,1-.138-.372v-.935l1.574-.258.5-2.671a.473.473,0,0,1,.176-.3.56.56,0,0,1,.348-.1h1.221v3.082h2.576v1.679h-2.576v5.3a1.039,1.039,0,0,0,.229.715.777.777,0,0,0,.611.258A1.113,1.113,0,0,0,1020.3,3a2.071,2.071,0,0,0,.257-.11q.109-.058.2-.11a.328.328,0,0,1,.172-.053.27.27,0,0,1,.172.053.8.8,0,0,1,.143.158l.706,1.145a3.564,3.564,0,0,1-1.183.649A4.4,4.4,0,0,1,1019.38,4.948Z" transform="translate(-994.317 9.382)"/><path class="a" d="M1037.282,9.516V-.273h1.441a.579.579,0,0,1,.6.429l.152.725a5.536,5.536,0,0,1,.539-.525,3.464,3.464,0,0,1,.6-.41,3.251,3.251,0,0,1,.687-.272,3.048,3.048,0,0,1,.806-.1,2.286,2.286,0,0,1,1.522.5,3.02,3.02,0,0,1,.892,1.331,2.987,2.987,0,0,1,.572-.835,3.155,3.155,0,0,1,.754-.568,3.484,3.484,0,0,1,.873-.324,4.192,4.192,0,0,1,.93-.105,3.909,3.909,0,0,1,1.441.248,2.771,2.771,0,0,1,1.059.725,3.2,3.2,0,0,1,.653,1.164,5.077,5.077,0,0,1,.224,1.574v6.23h-2.357V3.286a2.094,2.094,0,0,0-.41-1.407,1.506,1.506,0,0,0-1.2-.473,1.8,1.8,0,0,0-.672.124,1.6,1.6,0,0,0-.544.358,1.627,1.627,0,0,0-.367.587,2.28,2.28,0,0,0-.134.811v6.23h-2.366V3.286a2.131,2.131,0,0,0-.4-1.431,1.477,1.477,0,0,0-1.168-.448,1.891,1.891,0,0,0-.949.253,3.2,3.2,0,0,0-.825.692V9.516Z" transform="translate(-1008.049 4.662)"/><path class="a" d="M1082.784-11.694V2.484h-2.357V-11.694Z" transform="translate(-1034.975 11.694)"/><path class="a" d="M1096.238,6.008V4.329a.659.659,0,0,1,.1-.348.767.767,0,0,1,.315-.272l3.463-1.784a4.549,4.549,0,0,1,.983-.344c-.185-.044-.357-.094-.52-.148a3.174,3.174,0,0,1-.463-.2l-3.463-1.774a.772.772,0,0,1-.315-.272.661.661,0,0,1-.1-.348V-2.836l7.557,3.94v.954Z" transform="translate(-1044.842 6.166)"/></g><g transform="translate(1446.842 1792.912)"><path class="a" d="M1228.838-142.9l-7.557-4.674v-1.672l7.557-4.653v2.413l-5.221,3.076,5.221,3.1Z" transform="translate(-1221.28 156.56)"/><path class="a" d="M1256.183-156.519a2.2,2.2,0,0,0-1.978,1.469,9.4,9.4,0,0,0-.724,4.084q0,5.446,2.841,5.446a5.191,5.191,0,0,0,2.6-.794v2.595a5.216,5.216,0,0,1-2.937.761,4.614,4.614,0,0,1-4.069-2.106,10.526,10.526,0,0,1-1.42-5.923,10.416,10.416,0,0,1,1.463-5.95,4.662,4.662,0,0,1,4.068-2.133,5.723,5.723,0,0,1,1.646.236,6.59,6.59,0,0,1,1.688.825l-.965,2.369a8.563,8.563,0,0,0-1.029-.605A2.623,2.623,0,0,0,1256.183-156.519Z" transform="translate(-1235.472 159.07)"/><path class="a" d="M1277.719-147.493a4.7,4.7,0,0,1-1.109,3.366,4.206,4.206,0,0,1-3.2,1.168,7.036,7.036,0,0,1-3.484-.8v-2.883a6.034,6.034,0,0,0,3.227,1.147,1.625,1.625,0,0,0,1.259-.461,1.781,1.781,0,0,0,.423-1.254,2.278,2.278,0,0,0-.5-1.431,7.509,7.509,0,0,0-1.662-1.443,7.4,7.4,0,0,1-1.527-1.334,4.809,4.809,0,0,1-.8-1.431,5.469,5.469,0,0,1-.284-1.844,4.445,4.445,0,0,1,1.12-3.194,3.949,3.949,0,0,1,3.007-1.179,6.583,6.583,0,0,1,3.463,1.008l-.965,2.337a9.3,9.3,0,0,0-1.077-.536,3.1,3.1,0,0,0-1.206-.236,1.324,1.324,0,0,0-1.088.466,1.951,1.951,0,0,0-.381,1.27,2.2,2.2,0,0,0,.456,1.383,6.751,6.751,0,0,0,1.592,1.34,6.617,6.617,0,0,1,2.138,2.1A4.882,4.882,0,0,1,1277.719-147.493Z" transform="translate(-1244.906 159.07)"/><path class="a" d="M1295.353-147.493a4.7,4.7,0,0,1-1.109,3.366,4.206,4.206,0,0,1-3.2,1.168,7.032,7.032,0,0,1-3.483-.8v-2.883a6.03,6.03,0,0,0,3.226,1.147,1.626,1.626,0,0,0,1.26-.461,1.781,1.781,0,0,0,.423-1.254,2.278,2.278,0,0,0-.5-1.431,7.508,7.508,0,0,0-1.662-1.443,7.4,7.4,0,0,1-1.528-1.334,4.814,4.814,0,0,1-.8-1.431,5.469,5.469,0,0,1-.284-1.844,4.445,4.445,0,0,1,1.12-3.194,3.95,3.95,0,0,1,3.007-1.179,6.584,6.584,0,0,1,3.463,1.008l-.965,2.337a9.3,9.3,0,0,0-1.077-.536,3.1,3.1,0,0,0-1.206-.236,1.323,1.323,0,0,0-1.088.466,1.951,1.951,0,0,0-.381,1.27,2.2,2.2,0,0,0,.456,1.383,6.745,6.745,0,0,0,1.592,1.34,6.622,6.622,0,0,1,2.138,2.1A4.883,4.883,0,0,1,1295.353-147.493Z" transform="translate(-1253.47 159.07)"/><path class="a" d="M1316.531-145.315l5.252-3.1-5.252-3.076V-153.9l7.557,4.653v1.672l-7.557,4.674Z" transform="translate(-1267.541 156.56)"/></g><g transform="translate(1509.297 1882.561)"><path class="a" d="M1102.961-130.319l8.922-4.653v1.982a.784.784,0,0,1-.113.412.917.917,0,0,1-.372.321l-4.089,2.1a3.749,3.749,0,0,1-.547.231c-.191.064-.4.122-.614.175.218.052.423.111.614.175a3.753,3.753,0,0,1,.547.231l4.089,2.107a.911.911,0,0,1,.372.321.782.782,0,0,1,.113.411v1.983l-8.922-4.664Z" transform="translate(-1102.961 138.903)"/><path class="a" d="M1123.793-124.523a1.649,1.649,0,0,1-.259.451,1.546,1.546,0,0,1-.361.321,1.694,1.694,0,0,1-.428.2,1.519,1.519,0,0,1-.44.068h-1.172l6.579-16.829a1.586,1.586,0,0,1,.552-.727,1.47,1.47,0,0,1,.867-.254h1.183Z" transform="translate(-1109.837 141.296)"/><path class="a" d="M1139.636-124.529v-1.983a.783.783,0,0,1,.112-.411.913.913,0,0,1,.372-.321l4.089-2.107a5.375,5.375,0,0,1,1.16-.405q-.326-.079-.614-.175a3.725,3.725,0,0,1-.546-.231l-4.089-2.1a.919.919,0,0,1-.372-.321.785.785,0,0,1-.112-.412v-1.982l8.921,4.653v1.126Z" transform="translate(-1116.836 138.903)"/></g><g transform="translate(1168.15 1787.869)"><rect class="b" width="197.066" height="16.17" rx="8.085" transform="translate(0.141)"/><g transform="translate(200.038)"><ellipse class="b" cx="8.085" cy="8.085" rx="8.085" ry="8.085" transform="translate(0)"/><ellipse class="b" cx="8.085" cy="8.085" rx="8.085" ry="8.085" transform="translate(18.847)"/><path class="c" d="M-366.611-1377.794l-3.91,3.873,3.91,3.947.745-.745-3.165-3.2,3.165-3.128Z" transform="translate(376.488 1382.197)"/><path class="c" d="M-331.989-1369.974l3.91-3.873-3.91-3.947-.745.745,3.165,3.2-3.165,3.128Z" transform="translate(357.756 1382.197)"/></g><path class="c" d="M-292.24-1370.665l-2.491-2.462a3.173,3.173,0,0,0,.534-1.768,3.268,3.268,0,0,0-3.258-3.224,3.293,3.293,0,0,0-2.294.934,3.183,3.183,0,0,0-.943,2.269,3.267,3.267,0,0,0,3.258,3.224h.013a3.261,3.261,0,0,0,1.785-.536l2.49,2.462Zm-2.927-4.23a2.227,2.227,0,0,1-.66,1.586,2.286,2.286,0,0,1-1.6.655h-.01a2.293,2.293,0,0,1-2.287-2.26,2.226,2.226,0,0,1,.659-1.586,2.278,2.278,0,0,1,1.608-.655A2.293,2.293,0,0,1-295.168-1374.9Z" transform="translate(305.311 1382.382)"/><rect class="b" width="234.829" height="99.542" rx="2.124" transform="translate(0 27)"/></g><g transform="translate(1342.408 1832.015)"><path class="d" d="M114.656,0c51.414,0,65.7,3.295,65.7,7.378S166.07,16.4,114.656,16.4,47.663,11.461,47.663,7.378,63.242,0,114.656,0Z" transform="translate(-47.663 155.521)"/><g transform="translate(2.19 0)"><path class="e" d="M299.588,110.3s.779,1.428.208,1.9l-6.175,1.446,2.823,9.13,11.563,5.033,18.362-5.336s3.395-12.4,3.395-12.957-2.355-3.672-2.355-3.672-5.709-.42-8.956-.321a20.367,20.367,0,0,0-2.832.321c-.747.181-1.338-1.108-3.317-2.841Z" transform="translate(-231.463 -64.109)"/><path class="c" d="M264.556,170.2s6.513-28.409,7.344-38.387c0,0-.138-15.244,9.563-15.66l11.086-2.495s2.911,11.5,12.334,11.225c0,0,17.184.97,20.648-18.847,0,0,12.2,3.187,19.678,11.363,0,0,9.562,8.315,10.393,41.435,0,0-.468,8.436,1.559,12.542,0,0,2.442,7.016-1.612,8.783l-1.871.364-30.427-3.9s-6.608,4-12.688,7.431Z" transform="translate(-229.586 -64.306)"/><path class="f" d="M271.431,224.633l18.154-4.781.589,9.112a128.091,128.091,0,0,1-19.747,3.5C258.4,233.745,271.431,224.633,271.431,224.633Z" transform="translate(-229.636 -71.657)"/><path class="g" d="M287.149,205.778l12.823,16.089V238.1s-3.469-1.351-10.329-7.691-22.865-11.017-22.865-11.017Z" transform="translate(-229.73 -70.748)"/><path class="h" d="M256.43,214.768a2.157,2.157,0,0,0-1.278-.373c-1.539.044-5.308.032-7.423-1-2.587-1.261-11.209-5.031-19.145,4.778a6.264,6.264,0,0,0-1.4,4.26c.133,2.45,1.422,5.87,7,7.769,0,0,3.742,1.469,10.445.637a28.257,28.257,0,0,1,11.208.415s8.956,1.559,12.126.675c0,0-1.556-4.622.841-6.139a1.384,1.384,0,0,0,.64-1.6c-.33-.954-1.41-2.342-4.553-3.851a10.037,10.037,0,0,1-1.279-.72Z" transform="translate(-227.172 -71.125)"/><path class="h" d="M300.647,226.4l-7.449-.659s-1.975,8.626,3.569,12.091c0,0,.555.52,3.88.52s.866,2.009,11.086,1.178a66.862,66.862,0,0,1,8.7,1.732s4.366,1.905,6.063-.347c0,0,1.42-18.4-1.386-21.237,0,0-2.676-1.23-5.95,1.342,0,0-.7-2.832-17.539,1.793A9.785,9.785,0,0,0,300.647,226.4Z" transform="translate(-231.414 -71.627)"/><path class="i" d="M273.357,219.823h0a2.356,2.356,0,0,1-.659-3.159c1.679-2.733,5.277-7.523,10.424-8.695a2.378,2.378,0,0,1,2.5.953,39.234,39.234,0,0,0,10.323,10.107,2.364,2.364,0,0,0,1.79.341l14.856-3.077a2.291,2.291,0,0,1,1.141.046,10.938,10.938,0,0,0,6.217-.234s1.525-1.294,2.353,7.36a2.373,2.373,0,0,0,1.907,2.112c3.632.7,12.023,1.36,17.047-5.938a140.228,140.228,0,0,0,11.745-22.45s2.858-7.483,0-12.42c0,0-6.859-22.776-58.572,9.388a2.373,2.373,0,0,1-2.411.063L248.49,169.833a2.458,2.458,0,0,0-.318-.149c-2.229-.844-25.445-9.1-17.272,16.527a2.394,2.394,0,0,0,.632,1l38.3,36.262a2.216,2.216,0,0,0,1.014.568,4.065,4.065,0,0,0,1.508.051A2.366,2.366,0,0,0,273.357,219.823Z" transform="translate(-227.3 -68.292)"/><path class="j" d="M300.111,107.746l1.923,37.677-16.81-3.01L280,84.17s2.875-25.776,20.891-22.45c0,0,15.244.554,21.9,23l1.634,55.675-8.827,5.023-2.854-43.861Z" transform="translate(-230.584 -61.424)"/><path class="g" d="M285.231,86.012c.186,2.247.792,6.973,2.711,10.468a7.837,7.837,0,0,1,.71,1.661l.425,1.528a7.872,7.872,0,0,0,2.862,4.192l3.216,2.412a2.857,2.857,0,0,1,.334.294c.918.949,5.619,5.637,5.807,5.7a14.128,14.128,0,0,0,2.881.054,6.909,6.909,0,0,0,5.191-3.089l3.451-5.248a8.733,8.733,0,0,0,1.431-4.564l.132-5.02a2.911,2.911,0,0,1,1.66-2.418c.321-.176.627-.615.845-1.509a20.319,20.319,0,0,0,.52-5.793,2.822,2.822,0,0,0-4.986-1.574c-.032.039-.064.08-.094.121-.776,1.024-2.391,1.674-3.376.847-6.84-5.743-16.35-10.941-23.11-.947A4.485,4.485,0,0,0,285.231,86.012Z" transform="translate(-230.92 -62.462)"/><path class="g" d="M317.677,175.724,313.37,179.1,316,190.741s2.651-8.886,3.326-8.523c.7.28-2.175,8.265-2.129,11.1.01.593,1.055,2.152,2.129.265l3.6-9.995s.665-.949.645.049c0,0-2.292,6.689-1.841,7.313,0,0,.537,1.975,1.922.191a76.576,76.576,0,0,1,3.032-8.436S326.279,172.8,317.677,175.724Z" transform="translate(-232.739 -68.772)"/><path class="k" d="M307.1,154.966,251.532,152.7a2.652,2.652,0,0,0-2.722,3.1l5.663,33.108a2.651,2.651,0,0,0,2.429,2.2l53.766,3.751a2.651,2.651,0,0,0,2.819-2.939l-3.863-34.592A2.652,2.652,0,0,0,307.1,154.966Z" transform="translate(-228.567 -67.319)"/><g transform="translate(13.247 59.677)"><path class="l" d="M248.977,219.944a6.96,6.96,0,0,1,.135,2.08,8.96,8.96,0,0,1-.379,2.055,7.017,7.017,0,0,1-.916,1.91,3.991,3.991,0,0,1-1.595,1.386,12.789,12.789,0,0,0,1.618-3.575C248.242,222.555,248.534,221.271,248.977,219.944Z" transform="translate(-241.649 -131.34)"/><path class="l" d="M252.409,220.667a4.41,4.41,0,0,1,.286,1.724,6.094,6.094,0,0,1-.285,1.732,5.314,5.314,0,0,1-.808,1.572,3.889,3.889,0,0,1-1.324,1.155c.235-.55.5-1.019.692-1.523a15.892,15.892,0,0,0,.55-1.493C251.858,222.826,252.092,221.793,252.409,220.667Z" transform="translate(-241.911 -131.387)"/><path class="l" d="M257.125,221.833a3.546,3.546,0,0,1,.212,1.6,4.228,4.228,0,0,1-.447,1.594,3.294,3.294,0,0,1-1.167,1.242,2.5,2.5,0,0,1-1.612.342,6.988,6.988,0,0,0,1.166-.921,5.224,5.224,0,0,0,.788-1.1A20.331,20.331,0,0,0,257.125,221.833Z" transform="translate(-242.158 -131.462)"/><path class="l" d="M243.308,217.333a7.1,7.1,0,0,1,1.507,2.615,6.275,6.275,0,0,1-.152,4.607,5.905,5.905,0,0,1-.866,1.311,6,6,0,0,1-1.136,1.039,9.17,9.17,0,0,1-1.328.717c.334-.385.712-.693,1.024-1.062a8.518,8.518,0,0,0,.854-1.131,5.962,5.962,0,0,0,.969-2.539A11.207,11.207,0,0,0,243.308,217.333Z" transform="translate(-241.333 -131.171)"/><path class="l" d="M320.583,223.111a22.194,22.194,0,0,0-2.992,3.02,9.857,9.857,0,0,0-1.924,3.584,6.146,6.146,0,0,0,.253,3.928,13.424,13.424,0,0,0,2.273,3.535,9.125,9.125,0,0,1-2.938-3.235,6.77,6.77,0,0,1-.669-2.175,6.446,6.446,0,0,1,.177-2.291,8.881,8.881,0,0,1,2.283-3.828A12.283,12.283,0,0,1,320.583,223.111Z" transform="translate(-246.062 -131.544)"/><path class="l" d="M313.737,226.815a30.481,30.481,0,0,0-1.214,4.758,7,7,0,0,0,.008,2.325,5.454,5.454,0,0,0,1,2.167,3.635,3.635,0,0,1-1.7-1.967,5.491,5.491,0,0,1-.233-2.648,8.588,8.588,0,0,1,.745-2.488A8.233,8.233,0,0,1,313.737,226.815Z" transform="translate(-245.867 -131.784)"/><path class="l" d="M310.038,226.815a30.488,30.488,0,0,0-1.214,4.758,7.027,7.027,0,0,0,.008,2.325,5.455,5.455,0,0,0,1,2.167,3.638,3.638,0,0,1-1.7-1.967,5.479,5.479,0,0,1-.232-2.648,8.558,8.558,0,0,1,.744-2.488A8.232,8.232,0,0,1,310.038,226.815Z" transform="translate(-245.628 -131.784)"/><path class="l" d="M307.779,226.815a30.488,30.488,0,0,0-1.214,4.758,7,7,0,0,0,.008,2.325,5.441,5.441,0,0,0,1,2.167,3.635,3.635,0,0,1-1.7-1.967,5.491,5.491,0,0,1-.233-2.648,8.586,8.586,0,0,1,.745-2.488A8.231,8.231,0,0,1,307.779,226.815Z" transform="translate(-245.483 -131.784)"/><path class="l" d="M305.075,226.815a30.488,30.488,0,0,0-1.214,4.758,7.052,7.052,0,0,0,.008,2.325,5.456,5.456,0,0,0,1,2.167,3.638,3.638,0,0,1-1.7-1.967,5.479,5.479,0,0,1-.232-2.648,8.559,8.559,0,0,1,.744-2.488A8.233,8.233,0,0,1,305.075,226.815Z" transform="translate(-245.308 -131.784)"/><path class="l" d="M346.917,125.222a2.617,2.617,0,0,0-.937,1.079,11,11,0,0,0-.593,1.322,24.891,24.891,0,0,0-.805,2.79c-.442,1.888-.717,3.814-.977,5.737q-.717,5.781-1.017,11.622l-.03,1.46-.017.73a3.864,3.864,0,0,1-.075.773c-.226.969-.5,1.9-.785,2.839q-.857,2.8-1.9,5.545a40.48,40.48,0,0,1-5.342,10.38,27.677,27.677,0,0,0,2.863-5.077c.8-1.771,1.51-3.585,2.155-5.421s1.227-3.692,1.748-5.564c.26-.934.51-1.88.7-2.815.088-.874.134-1.92.2-2.872a108.085,108.085,0,0,1,.928-11.678,50.5,50.5,0,0,1,1.182-5.75,23.4,23.4,0,0,1,.961-2.779,11.238,11.238,0,0,1,.7-1.3A2.658,2.658,0,0,1,346.917,125.222Z" transform="translate(-247.347 -125.222)"/><path class="l" d="M339.37,170.364a9.949,9.949,0,0,1,4.362-1.584,13.815,13.815,0,0,1,4.672.207,17.982,17.982,0,0,1,4.347,1.73c.684.373,1.324.824,1.985,1.234l1.818,1.462-1.96-1.255c-.68-.367-1.331-.78-2.022-1.109a18.915,18.915,0,0,0-4.282-1.563,14.126,14.126,0,0,0-4.511-.334,11.392,11.392,0,0,0-2.249.4A9.393,9.393,0,0,0,339.37,170.364Z" transform="translate(-247.665 -128.028)"/><path class="l" d="M321,173.7a13.438,13.438,0,0,1,3.437-.63,10.548,10.548,0,0,1,3.49.332,6.5,6.5,0,0,1,2.943,1.871,6.941,6.941,0,0,1,1.494,3.138,14.034,14.034,0,0,0-.794-1.542l-.449-.71-.566-.606a6.843,6.843,0,0,0-2.788-1.615,12.542,12.542,0,0,0-3.309-.45,14.854,14.854,0,0,0-1.716.052C322.162,173.558,321.587,173.628,321,173.7Z" transform="translate(-246.478 -128.311)"/><path class="l" d="M274.012,128.556a20.3,20.3,0,0,0,.2,5.468,16.366,16.366,0,0,0,1.744,5.139,48.26,48.26,0,0,1,1.914,5.208,43.227,43.227,0,0,1,1.271,5.386c-.526-1.767-1.069-3.523-1.681-5.252s-1.25-3.454-2.014-5.109a15.737,15.737,0,0,1-1.659-5.309A16.03,16.03,0,0,1,274.012,128.556Z" transform="translate(-243.42 -125.437)"/></g></g></g></g></svg>