<svg xmlns="http://www.w3.org/2000/svg" width="747.492" height="425.075" viewBox="0 0 747.492 425.075"><defs><style>.a{opacity:0.2;}.b{fill:#dcdfe2;}.c{fill:#c0c4c8;}.d{fill:#d1d3d4;}.e{fill:#ced1d4;}.f{fill:rgba(0,0,0,0.1);opacity:0.3;}.g{fill:#f2c193;}.h{fill:#b8b8b8;}.i{fill:#ebb685;}.j{fill:#e4e4e4;}.k{fill:#111;}.l{fill:none;stroke:#000;}.m{fill:#e42223;fill-rule:evenodd;}.n{fill:#f2f2f2;}.o{fill:#b9bdc1;}.p{fill:#bc1515;}.q{fill:#d81313;}.r{fill:#9e9e9e;}.s{fill:#686868;}.t{fill:#930f0f;}.u{fill:#770505;}.v{fill:#c4c4c4;}.w{fill:#eaeaea;}</style></defs><g transform="translate(-1062 -443.924)"><g class="a" transform="translate(1609.696 627.335)"><path class="b" d="M-1769.657,1227.951c-13-19.118-44.693-28.628-48.369-46.935s8.6-35.719,17.4-37.6c6.118,6.915,16.824,16.856,24.089,36.166S-1768.128,1226.039-1769.657,1227.951Z" transform="translate(1843.623 -1132.774)"/><path class="b" d="M-2162.061,1212.289c.765-21.532,6.883-27.65,13.383-46.768s15.677-28.634,31.736-40.126,39.373-18.047,45.879-9.417,8.035,32.719-23.319,59.1C-2123.06,1197.639-2140.648,1192.908-2162.061,1212.289Z" transform="translate(2258.204 -1112.022)"/><path class="b" d="M-2188.146,1459.5c7.654,11.161,32.529,26.469,47.2,40.342,11.8,10.683,30.934,6.627,42.415,4.349s17.54-18.986,6.7-35.506-33.167-25.13-57.4-20.985S-2184.319,1452.48-2188.146,1459.5Z" transform="translate(2285.956 -1333.224)"/><g transform="translate(81.675 125.115)"><path class="c" d="M-2061.591,1519.3l.7-.733c-7.911-7.6-26.784-18.136-46.963-26.216-22.613-9.054-41.005-12.913-50.459-10.585l-.066.016-.059.033c-4.051,2.25-8.049,7.373-11.258,14.425-2.856,6.275-4.63,13.26-4.63,18.229h1.017c0-10.214,7.2-27.165,15.306-31.732C-2137.479,1477.774-2077.666,1503.857-2061.591,1519.3Z" transform="translate(2174.322 -1481.103)"/></g><g transform="translate(87.863 6.365)"><path class="c" d="M-2147.831,1291.533l1.015-.076c-.034-.461-3.307-46.334,7.2-66.505,18.659-30.262,53.035-66.026,89.717-93.338l-.607-.816c-36.784,27.389-71.265,63.268-89.985,93.635l-.018.031C-2151.159,1244.886-2147.865,1291.069-2147.831,1291.533Z" transform="translate(2148.338 -1130.799)"/></g><g transform="translate(40.957 21.729)"><path class="c" d="M-1794.505,1325.477l.607-3.945c.069-.448,6.819-45.151-.01-72.087-2.8-11.051-9.137-21.1-15.264-30.815-8.148-12.922-16.573-26.283-17.222-42.508l-1.016.041c.659,16.5,9.159,29.974,17.378,43.009,6.084,9.65,12.376,19.628,15.139,30.523,5.609,22.124,1.975,56.413.516,67.837-1.314-9.357-5.555-33.027-15.907-43.842l-.734.7c12.543,13.1,16.078,46.774,16.112,47.113Z" transform="translate(1827.41 -1176.122)"/></g><g transform="translate(122.331 32.335)"><path class="c" d="M-1975.3,1239.985c.024-.239,2.388-24.034,4.645-32.308l-.981-.267c-2.279,8.357-4.652,32.235-4.676,32.476Z" transform="translate(1976.312 -1207.409)"/></g><g transform="translate(108.855 78.369)"><path class="c" d="M-2003.052,1346.942c7.372-3.137,27.7-2.695,27.909-2.69l.024-1.017c-.844-.02-20.759-.451-28.332,2.771Z" transform="translate(2003.45 -1343.205)"/></g><g transform="translate(61.815 46.178)"><path class="c" d="M-1787.487,1272.323c.086-.7,2.085-17.216,1.322-24.078l-1.011.112c.75,6.745-1.3,23.672-1.321,23.843Z" transform="translate(1788.496 -1248.245)"/></g><g transform="translate(32.662 37.158)"><path class="c" d="M-1732.98,1238.107l.26-.983c-.071-.019-7.314-2.1-18.509-15.486l-.78.652C-1740.565,1235.977-1733.284,1238.026-1732.98,1238.107Z" transform="translate(1752.008 -1221.637)"/></g><g transform="translate(44.148 66.539)"><path class="c" d="M-1774.641,1321.148l.2-1c-.142-.028-14.362-2.9-22.561-11.843l-.75.687C-1789.328,1318.188-1774.787,1321.12-1774.641,1321.148Z" transform="translate(1797.757 -1308.307)"/></g><g transform="translate(129.505 130.009)"><path class="c" d="M-2018.114,1528.621l.977-.283c-.292-1.009-7.285-24.812-18.034-32.8l-.606.816C-2025.3,1504.138-2018.185,1528.377-2018.114,1528.621Z" transform="translate(2035.778 -1495.543)"/></g><g transform="translate(122.593 117.577)"><path class="c" d="M-2076.142,1470.221c1.206-.127,29.631-3.208,39.166-10.547l-.621-.806c-9.307,7.164-38.36,10.31-38.652,10.341Z" transform="translate(2076.249 -1458.869)"/></g><g transform="translate(158.117 136.669)"><path class="c" d="M-2158.02,1520.725c8.667,0,19.236-2.334,27.334-4.557l-.269-.98c-14.462,3.969-25.92,5.362-33.134,4.029l-.184,1A34.708,34.708,0,0,0-2158.02,1520.725Z" transform="translate(2164.273 -1515.188)"/></g><g transform="translate(165.518 144.611)"><path class="c" d="M-2103.381,1558.643l1-.193a81.982,81.982,0,0,0-6.976-19.834l-.9.476A80.857,80.857,0,0,1-2103.381,1558.643Z" transform="translate(2110.258 -1538.616)"/></g><g transform="translate(177.167 150.612)"><path class="c" d="M-2134.439,1570.32l1.007-.143c-.653-4.586-2.632-10.878-5.435-13.858l-.741.7C-2136.957,1559.834-2135.07,1565.888-2134.439,1570.32Z" transform="translate(2139.608 -1556.319)"/></g><path class="c" d="M-1964.48,1646.959h47.686a19.2,19.2,0,0,0,18.85-15.572l10.032-52.2h-105.45l10.032,52.2A19.2,19.2,0,0,0-1964.48,1646.959Z" transform="translate(2021.679 -1420.822)"/><path class="b" d="M-1739.88,1434.029c14.06,6.9,16.448,22.763,4.775,45.472s-19.631,34.381-41.385,28.544-19.366-24.724-12.2-39.156S-1759.512,1425.717-1739.88,1434.029Z" transform="translate(1793.761 -1323.893)"/><g transform="translate(14.345 111.392)"><path class="c" d="M-1766.178,1505.22c1.183-2.248,2.722-5.405,4.5-9.062,8.582-17.608,24.557-50.384,37.31-54.567l-.317-.966c-13.162,4.317-28.653,36.1-37.908,55.088-1.778,3.649-3.314,6.8-4.49,9.034Z" transform="translate(1767.078 -1440.624)"/></g><g transform="translate(21.438 119.975)"><path class="c" d="M-1728.42,1469.409c7.923,0,17.539-2.349,18.069-2.48l-.244-.987c-.169.042-16.937,4.137-24.224,1.635l-.33.962A21.522,21.522,0,0,0-1728.42,1469.409Z" transform="translate(1735.15 -1465.942)"/></g><g transform="translate(50.34 115.585)"><path class="c" d="M-1757.9,1490.277l.992-.223a181.041,181.041,0,0,1-3.932-37.048l-1.017-.015A182.216,182.216,0,0,0-1757.9,1490.277Z" transform="translate(1761.862 -1452.991)"/></g><g transform="translate(35.719 134.316)"><path class="c" d="M-1714.941,1544.493l.991-.231c-.049-.212-4.922-21.32-3.875-35.941l-1.014-.073C-1719.9,1523.024-1714.99,1544.28-1714.941,1544.493Z" transform="translate(1718.989 -1508.248)"/></g><g transform="translate(5.156 145.266)"><path class="c" d="M-1687.669,1550.015c.669-.119,16.474-2.971,24.868-8.623l-.568-.843c-8.214,5.531-24.315,8.437-24.477,8.466Z" transform="translate(1687.846 -1540.548)"/></g><g transform="translate(1.329 157.555)"><path class="c" d="M-1668.343,1584.318c.129-.01,12.962-1.047,22.21-6.647l-.527-.87c-9.043,5.476-21.634,6.493-21.76,6.5Z" transform="translate(1668.42 -1576.801)"/></g><g transform="translate(158.732 21.36)"><path class="c" d="M-2148.257,1183.061c.929-.135,22.8-3.363,27.445-7.247l-.652-.78c-4.427,3.7-26.716,6.988-26.94,7.021Z" transform="translate(2148.404 -1175.034)"/></g><g transform="translate(145.858 40.281)"><path class="c" d="M-2103.941,1232.762c4.8,0,9.317-.228,12.057-.912l-.246-.986c-7.857,1.961-31.664.006-31.9-.013l-.084,1.013C-2123.47,1231.917-2113.183,1232.762-2103.941,1232.762Z" transform="translate(2124.118 -1230.85)"/></g><g transform="translate(141.639 15.835)"><path class="c" d="M-2035.037,1187.407c.03-.214,2.965-21.55,5.589-28.306l-.948-.368c-2.667,6.868-5.528,27.655-5.649,28.536Z" transform="translate(2036.045 -1158.733)"/></g><g transform="translate(49.256 26.239)"><path class="c" d="M-1752.138,1212a60.54,60.54,0,0,0,1.682-22.575l-1.009.13a59.46,59.46,0,0,1-1.645,22.149Z" transform="translate(1753.111 -1189.424)"/></g><g transform="translate(32.634 21.462)"><path class="c" d="M-1715.293,1184.54l.511-.879c-.059-.034-5.962-3.5-9.3-8.328l-.837.578C-1721.449,1180.929-1715.543,1184.4-1715.293,1184.54Z" transform="translate(1724.915 -1175.333)"/></g></g><g class="a" transform="translate(1062 709.626)"><path class="c" d="M134.471,349.292c-33.475-17.078-21.546-75.061-23.955-85.04C141.486,305.545,146.3,338.08,146.3,338.08c.344-56.624,1.721-67.29,11.355-83.12,6.882,36.821,7.916,81.379,7.916,81.379,29.594-70.022,43.358-81.379,43.358-81.379-4.13,40.95-27.185,88.688-27.185,88.688,23.055-21.929,46.8-21.24,46.8-21.24-17.206,16.173-38.139,25.723-38.139,25.723C153.53,350.624,134.471,349.292,134.471,349.292Z" transform="translate(-99.619 -252.552)"/><path class="b" d="M140.063,332.007c-6.557-45.415-3.442-65.209,0-72.091,3.441,23.4,18.9,65.663,13.052,88.874C143.16,344.567,142.953,352.023,140.063,332.007Z" transform="translate(-98.54 -252.345)"/><path class="b" d="M147.838,341.43c2.481-37.971,20.418-74.673,19.156-88.782,9.981,32.071,1.634,72.18-1.492,83.787C162.3,348.97,147.389,348.3,147.838,341.43Z" transform="translate(-98.056 -252.648)"/><path class="d" d="M145.336,346c-11.735-20.265-6.229-31.226-14.258-49.547,15.79,10.4,31.139,39.551,28.659,50.379C150.655,348.166,145.336,346,145.336,346Z" transform="translate(-98.754 -250.823)"/><path class="b" d="M185.795,333.809c6.93-50.054,39.631-65.194,39.631-65.194C220.837,295,212.808,339.629,199.5,345.53,184.361,342.255,184.5,343.17,185.795,333.809Z" transform="translate(-96.497 -251.983)"/><path class="d" d="M144.408,345.178c-32.661-3.979-37.708-38.748-44.361-44.189,15.829.918,29.594,25.153,40.835,31.472C145.471,339.3,144.408,345.178,144.408,345.178Z" transform="translate(-100.047 -250.634)"/><path class="d" d="M159.07,342.753c.053-27.4,12.228-58.091,25.464-67.311-3.442,29.594-6.692,68.479-10.916,72.264C165,349.828,159.062,347.082,159.07,342.753Z" transform="translate(-97.588 -251.698)"/><path class="d" d="M173.364,344.575c6.9-27.928,22.731-48.61,34.431-50.485-10.668,8.449-11.7,42.515-20.475,49.57C177.707,346.93,173.364,344.575,173.364,344.575Z" transform="translate(-96.993 -250.922)"/><path class="c" d="M192.638,392.409h-53.8a12.335,12.335,0,0,1-12.328-11.91c-.009-.283-.022-.566-.051-.846l-3.08-29.376A9.678,9.678,0,0,1,133,339.591h65.471a9.677,9.677,0,0,1,9.625,10.686l-3.079,29.376c-.03.28-.043.563-.052.846A12.334,12.334,0,0,1,192.638,392.409Z" transform="translate(-99.077 -249.026)"/></g><g class="a" transform="translate(1285.64 461.586)"><path class="c" d="M-938.569,1611.12h28.36l49.451,150.662h-3.8Z" transform="translate(1121.415 -1373.119)"/><path class="c" d="M-947.788,1611.12h-28.359l-49.451,150.662h3.8Z" transform="translate(1037.552 -1373.119)"/><path class="c" d="M-943.708,1756.594h4.768l9.1-140.09h-22.977Z" transform="translate(1107.689 -1367.93)"/><path class="e" d="M-742.445,1539.1l-34.335,174.02a63.154,63.154,0,0,1-14.57,18.808,63.365,63.365,0,0,1-41.929,15.862l-168.374-9.857c-10.749,0-4.485-13.113-4.485-13.113s102.807,14.149,145.282-11.7a104.635,104.635,0,0,0,19.609-15.391c27.722-27.65,26.932-93.939,27.088-94.519.609-1.312-7.734-74.3,13.385-109.538C-774.609,1481.918-738.154,1502.952-742.445,1539.1Z" transform="translate(1012.59 -1490.401)"/><path class="c" d="M-761.6,1553.253l-9.435,159.654a63.155,63.155,0,0,1-14.57,18.808,63.365,63.365,0,0,1-41.929,15.862h-179.325a28.136,28.136,0,0,1-24.83-14.9c7.951-3.764,22.358-1.036,30.417-1.054,48.4-.09,103.686,7.132,146.161-18.717a104.652,104.652,0,0,0,19.609-15.391c27.722-27.65,26.932-93.939,27.088-94.519.609-1.312-7.447-76.484,13.671-111.718C-765.253,1494.1-757.305,1517.106-761.6,1553.253Z" transform="translate(1031.686 -1490.189)"/></g><g transform="translate(1244.147 443.924)"><ellipse class="f" cx="156.249" cy="18.229" rx="156.249" ry="18.229" transform="translate(0.143 388.617)"/><g transform="translate(135.009 54.537) rotate(-14)"><path class="g" d="M.286,20.883a105.448,105.448,0,0,0,7.6-8.549C10.653,8.659,21.07,0,21.07,0l1.65,18.609L9.705,29.734S-1.954,23.58.286,20.883Z" transform="translate(0 0)"/></g><g transform="translate(151.449 54.165) rotate(-14)"><path class="g" d="M6.678,14.992S15.9,9.368,16.766,8.529a78.373,78.373,0,0,0,6.671-6.8c1.684-2.215-5.531-2.372-7.477-.071A10.683,10.683,0,0,1,10.566,4.9C9.211,5.412,1.826,6.869.213,9.14S6.678,14.992,6.678,14.992Z" transform="translate(0 0)"/></g><g transform="matrix(0.951, -0.309, 0.309, 0.951, 102.474, 85.211)"><path class="h" d="M51.005,9.705,40.193,0S20.745,15.109,9.462,31.405s-9.5,30.853-9.141,32.6,1.242,4.81,8.063,6.542S55.216,48.213,67.889,41.379C104.744,21.508,92.94,7,65.869,9.224c-6.652.546-40.563,31.5-40.563,31.5Z" transform="translate(0 0)"/></g><path class="i" d="M70.808,6.662c-1.24,15.74-3.546,70.229-1.239,95.45.974,10.646,2.024,20.774,3.055,29.77C50.49,91.922,14.273,33.466,14.273,33.466L0,40.014S16.813,95.623,27.573,118.53c12.282,26.149,23.8,48.543,28.645,56.431,7.624,12.407,20.9,8.078,27.909.567,10.209,6.154,27.336-1.753,27.324-10.554C111.415,138.642,87.476,14.533,86.227,6.688,85.565,2.536,81.5,0,77.71,0,74.336,0,71.175,2,70.808,6.662Z" transform="translate(139.821 397.927) rotate(180)"/><path d="M0,3.587l4.768,124.5c4.546,21.824,43.268,11.644,43.267-.054C48.032,101.473,36.571,0,36.571,0Z" transform="translate(138.099 339.551) rotate(160)"/><g transform="translate(0 377.28)"><path class="j" d="M66.211,6.186c1.343-.456,1.612-.1,2,1.269l2.832,8.789s1.108,6.531-.4,9.808-62.367,6.657-69.9,0,.334-12.9,2.146-14.272S11.8,8.04,11.8,8.04L47.159.327A1.238,1.238,0,0,1,48.81.989l1.054,5.2S55.3,8.738,58.7,8.738Z" transform="translate(2.472 -0.219)"/></g><g transform="matrix(0.799, -0.602, 0.602, 0.799, 78.723, 385.839)"><path class="j" d="M68.684,5.967c1.343-.456,1.612-.1,2,1.269l2.832,8.789s1.108,6.531-.4,9.808-62.367,6.657-69.9,0,.334-12.9,2.146-14.272,8.918-3.74,8.918-3.74L49.632.108A1.238,1.238,0,0,1,51.282.77l1.054,5.2S57.771,8.52,61.169,8.52Z" transform="translate(0 0)"/></g><path class="k" d="M0,45.33C0,78.385,11.13,155.516,11.14,162.794H49.291S41.9,59.6,44.053,58.483s88.06,8.611,113.827,8.611c37.155,0,52.526-23.521,53.773-67.094h-73.6C123.063,1.61,44.893,17.438,15.862,22.879,3.434,25.209,0,36.225,0,45.33Z" transform="translate(24.938 196.574)"/><path class="l" d="M11441.409,2171.091s-.742,59.066-12.048,87.9-32.2,29.57-35.331,27.239-4.661-3.744-4.6-10.284,9.422-23.64,16.431,1.388-38.346,42.083-38.346,42.083" transform="translate(-11293.262 -2104.964)"/><g transform="translate(135.986 30.285)"><path class="m" d="M29.412,32.272a3.636,3.636,0,0,1-5.441-.338l-3.736-4.8a3.626,3.626,0,0,1-.658-3.112l1.14-4.563a1.414,1.414,0,0,0-.371-1.342l-5.121-5.119a1.414,1.414,0,0,0-1.342-.371l-4.561,1.14a3.636,3.636,0,0,1-3.113-.658L1.4,9.37a3.635,3.635,0,0,1-.34-5.441L3.221,1.772A5.791,5.791,0,0,1,9.215.31a38.826,38.826,0,0,1,14.6,9.21,38.826,38.826,0,0,1,9.211,14.6,5.793,5.793,0,0,1-1.463,6l-2.156,2.153Z" transform="translate(9.748 41.63) rotate(-107)"/><path class="i" d="M.624,4.7a1.111,1.111,0,0,0,1.987-.225C3.487,2.892,3.4-.75,1.157.137S.624,4.7.624,4.7Z" transform="translate(7.708 19.082) rotate(-14)"/><path class="i" d="M.012,4.137S.41,6.828,1.8,5.611,4.566-.124,2.138,0,.012,4.137.012,4.137Z" transform="translate(10.012 14.107) rotate(-14)"/><path class="i" d="M.012,4.137S.02,7.387,1.631,6.443C2.846,5.734,4.567-.124,2.138,0S.012,4.137.012,4.137Z" transform="translate(12.897 9.323) rotate(-14)"/></g><g transform="translate(154.789 2.827)"><path class="i" d="M4.775,71.4a33.807,33.807,0,0,1,5.951-21.216L0,0H29.746L24.623,36.379c7.786-5.3,15.778-7.86,19.7-6.846,9.282,2.4,10.136,36.491,2.954,49.93-3.458,6.471-13.007,11.015-22.188,11.014C15.2,90.477,5.74,85.207,4.775,71.4Z" transform="translate(52.055 90.477) rotate(180)"/></g><path class="n" d="M95.434,141.84H0S33.758,39.407,34.461,2.408c.016-.928,4.788-1.792,5.812-1.5A31.9,31.9,0,0,0,60.518,0C83.142,36.528,90.966,81.5,95.434,141.84Z" transform="translate(140.114 69.057)"/><path class="o" d="M2.861,0S38,12.157,61.576,12.157c9.6,0,24.507.7,24.507.7S67.1,90.6,45.032,157.295H30.246c-3.771,0-5.372-2.745-6.124-4.2C4.431,114.962-5.221,54.524,2.861,0Z" transform="translate(237.541 226.351) rotate(180)"/><g transform="matrix(0.951, -0.309, 0.309, 0.951, 26.019, 199.77)"><path class="p" d="M.51.957,55.578,0s1.341,11.057.668,11.988-2.036,1.758-5.021,1.809l-22.944.4-22.943.4c-2.984.053-4.375-.727-5.081-1.634S.51.957.51.957Z" transform="translate(0 39.032)"/><path class="q" d="M12.031.546c.1,5.948,6.855,10.653,15.082,10.51,6.173-.106,11.419-2.913,13.611-6.822A8.316,8.316,0,0,0,41.812.492h.013l1.16,4.034a18.26,18.26,0,0,1,3.936,1.19c1.058.523,8.148,11.8,8.148,11.8L0,18.474S4.165,7.092,5.614,6.2A36.643,36.643,0,0,1,11,4.074L12.022,0h.019C12.031.182,12.028.364,12.031.546Z" transform="translate(0.51 21.516)"/><path class="r" d="M3.946,0,5.318,1.817,4.031,3.7l-2.659.061L0,1.941,1.286.061Z" transform="translate(24.744 15.681)"/><path class="s" d="M5.318,0,4.045,2.585l-2.659.061L0,.124,1.372,1.941,4.031,1.88Z" transform="translate(24.744 17.498)"/><path class="s" d="M2.079,0A1.98,1.98,0,0,1,4.22,1.78a1.5,1.5,0,0,1-.023.29A2.05,2.05,0,0,0,2.1,1,2.053,2.053,0,0,0,.032,2.141,1.746,1.746,0,0,1,0,1.853,1.982,1.982,0,0,1,2.079,0Z" transform="translate(30.547 24.867)"/><path class="s" d="M2.078,0a1.982,1.982,0,0,1,2.14,1.778,1.662,1.662,0,0,1-.023.289A2.045,2.045,0,0,0,2.1,1C1.044,1.018.182,1.512.032,2.141A1.325,1.325,0,0,1,0,1.853,1.979,1.979,0,0,1,2.078,0Z" transform="translate(25.729 25.767)"/><path class="s" d="M2.08,0A1.978,1.978,0,0,1,4.22,1.778a1.676,1.676,0,0,1-.022.29A2.05,2.05,0,0,0,2.1,1C1.046,1.016.182,1.51.033,2.14A1.372,1.372,0,0,1,0,1.851,1.979,1.979,0,0,1,2.08,0Z" transform="translate(20.536 25.119)"/><path class="s" d="M2.08,0A1.978,1.978,0,0,1,4.22,1.779a1.44,1.44,0,0,1-.022.29A2.05,2.05,0,0,0,2.1,1C1.047,1.018.184,1.51.032,2.14A1.7,1.7,0,0,1,0,1.851,1.981,1.981,0,0,1,2.08,0Z" transform="translate(16.803 22.596)"/><path class="s" d="M1.974,0A1.849,1.849,0,0,1,4,1.608a1.37,1.37,0,0,1-.021.262C3.821,1.3,2.987.887,1.99.9S.174,1.367.031,1.938A1.338,1.338,0,0,1,0,1.678,1.849,1.849,0,0,1,1.974,0Z" transform="translate(14.877 19.346)"/><path class="s" d="M1.975,0A1.85,1.85,0,0,1,4,1.608a1.451,1.451,0,0,1-.021.264c-.162-.566-1-.984-1.991-.966S.175,1.369.032,1.94A1.372,1.372,0,0,1,0,1.678,1.853,1.853,0,0,1,1.975,0Z" transform="translate(14.812 15.639)"/><path class="s" d="M1.979,0C3.085-.019,3.991.568,4,1.31a.842.842,0,0,1-.008.135C3.881.893,3.022.478,1.988.495S.1.961.014,1.516A.769.769,0,0,1,0,1.38C-.011.636.874.019,1.979,0Z" transform="translate(16.967 12.732)"/><path class="s" d="M1.979,0C3.084-.02,3.99.568,4,1.31a.956.956,0,0,1-.008.136C3.885.895,3.022.478,1.986.5S.1.961.014,1.516A.705.705,0,0,1,0,1.38C-.013.637.872.02,1.979,0Z" transform="translate(20.639 10.521)"/><path class="s" d="M1.979,0C3.085-.018,3.991.568,4,1.312A1.222,1.222,0,0,1,4,1.448C3.885.895,3.024.477,1.986.5S.1.961.014,1.516A.765.765,0,0,1,0,1.38C-.013.637.874.019,1.979,0Z" transform="translate(25.275 9.776)"/><path class="s" d="M2.735.086C3.471.275,3.993.748,4,1.311A1.071,1.071,0,0,1,4,1.448C3.885.895,3.025.476,1.988.495S.1.96.014,1.517A.72.72,0,0,1,0,1.38C-.011.638.874.019,1.979,0A2.887,2.887,0,0,1,2.735.086Z" transform="translate(29.939 10.546)"/><path class="p" d="M1.973,0c1.038-.018,1.9.4,2.008.953-.086.654-.868,1.183-1.849,1.238-.039,0-.08,0-.12,0s-.08,0-.121,0A1.82,1.82,0,0,1,0,1.023C.09.466.938.02,1.973,0Z" transform="translate(29.953 11.04)"/><path class="p" d="M1.972,0c1.038-.018,1.9.4,2.009.953-.087.653-.867,1.183-1.849,1.238-.039,0-.08.005-.12,0s-.08,0-.121,0A1.821,1.821,0,0,1,0,1.021C.09.466.935.019,1.972,0Z" transform="translate(25.29 10.271)"/><path class="p" d="M1.972,0C3.008-.017,3.87.4,3.98.951a1.776,1.776,0,0,1-1.731,1.23c-.039,0-.078.008-.117.009s-.081.005-.121,0-.08,0-.121,0-.1,0-.143-.006A1.759,1.759,0,0,1,0,1.021C.09.465.934.019,1.972,0Z" transform="translate(20.653 11.017)"/><path class="p" d="M1.974,0C3.009-.017,3.867.4,3.98.95c-.084.655-.865,1.186-1.847,1.241-.039,0-.081.005-.121,0s-.08,0-.121,0A1.82,1.82,0,0,1,0,1.022C.09.466.936.019,1.974,0Z" transform="translate(16.982 13.226)"/><path class="p" d="M1.959,0c1-.018,1.83.4,1.992.966a1.894,1.894,0,0,1-1.8,1.408c-.052,0-.1.005-.155.008s-.1,0-.155,0A1.891,1.891,0,0,1,0,1.035C.143.464.961.018,1.959,0Z" transform="translate(14.844 16.544)"/><path class="p" d="M1.959,0c1-.017,1.83.4,1.992.966a1.894,1.894,0,0,1-1.8,1.408c-.052,0-.1.007-.155.008s-.1,0-.155,0A1.888,1.888,0,0,1,0,1.035C.143.464.961.017,1.959,0Z" transform="translate(14.908 20.249)"/><path class="p" d="M2.065,0a2.05,2.05,0,0,1,2.1,1.07A2.012,2.012,0,0,1,2.273,2.623c-.053,0-.108.008-.163.009s-.108,0-.163,0A2.014,2.014,0,0,1,0,1.142C.151.512,1.014.02,2.065,0Z" transform="translate(16.836 23.594)"/><path class="p" d="M2.065,0a2.049,2.049,0,0,1,2.1,1.07A2.015,2.015,0,0,1,2.274,2.623c-.055,0-.11.006-.164.007s-.109,0-.163,0A2.015,2.015,0,0,1,0,1.142C.15.512,1.014.018,2.065,0Z" transform="translate(20.568 26.117)"/><path class="p" d="M2.065,0a2.044,2.044,0,0,1,2.1,1.068A2.011,2.011,0,0,1,2.273,2.622c-.055.005-.108.008-.163.009s-.11,0-.163,0A2.017,2.017,0,0,1,0,1.142,2.053,2.053,0,0,1,2.065,0Z" transform="translate(25.761 26.766)"/><path class="p" d="M2.065,0a2.049,2.049,0,0,1,2.1,1.07A2.014,2.014,0,0,1,2.273,2.623c-.053,0-.109.006-.163.007s-.108,0-.162,0A2.016,2.016,0,0,1,0,1.142,2.054,2.054,0,0,1,2.065,0Z" transform="translate(30.581 25.866)"/><path class="t" d="M2.4.058l.188,1.855L.343,4.056l-.08-1.48C.173,2.532.086,2.488,0,2.442A10.165,10.165,0,0,0,2.014,0C2.254.042,2.4.058,2.4.058Z" transform="translate(38.386 23.626)"/><path class="t" d="M.885.531C1.662,2.252,4.3,2.857,5.3,3.025A10.2,10.2,0,0,1,3.283,5.467C.308,3.9-.2,1.367.061.4.2-.115.558-.193.885.531Z" transform="translate(35.104 20.601)"/><path class="u" d="M3.377,5.074c-.143.132-.294.259-.446.383C-.432,3.511-.094.879.134,0L.156.005C-.109.974.4,3.5,3.377,5.074Z" transform="translate(35.01 20.994)"/><path class="q" d="M30.288.341a3.876,3.876,0,0,1,4.123.553c-.959,9.23-7.575,11.165-7.575,11.165l-.005.009a15.6,15.6,0,0,0-3.821-1.641,18.873,18.873,0,0,0-5.478-.7,17.324,17.324,0,0,0-9.574,2.9h0C7.813,12.6,1.265,10.832,0,1.74a3.871,3.871,0,0,1,4.1-.7c2.557.923.82,6.249,7.245,6.828,0,0,8.437-.611,11.943-.456C28.691,7.656,27.766,1.354,30.288.341Z" transform="translate(9.721 0)"/><path class="p" d="M.741,0A8.229,8.229,0,0,1,1.927,4.073c0,.156,0,.31-.006.465A8.307,8.307,0,0,1,.833,8.28l-.26-.211L.385,6.214S.24,6.2,0,6.156a7.7,7.7,0,0,0,1.089-4.04A7.357,7.357,0,0,0,.741,0Z" transform="translate(40.4 17.47)"/><path class="v" d="M4.311,10.441,3.857,10.3a4.534,4.534,0,0,0,.475-2.091C4.294,5.948,2.533,4.018,0,3.114L.16,2.7a3.341,3.341,0,0,0,.815.109c.041,0,.08,0,.12,0s.082,0,.121,0c1.049-.052,1.872-.544,1.861-1.127a.577.577,0,0,0-.013-.111.953.953,0,0,0,.009-.136C3.064.867,2.542.393,1.806.2L1.863,0A15.628,15.628,0,0,1,5.684,1.641a10.063,10.063,0,0,1,4.589,5.4,7.357,7.357,0,0,1,.348,2.116A7.712,7.712,0,0,1,9.532,13.2c-1-.168-3.635-.773-4.412-2.494-.327-.724-.683-.646-.823-.133l-.021-.005A1.2,1.2,0,0,1,4.311,10.441Z" transform="translate(30.868 10.427)"/><path class="p" d="M28.433,7.8l.26.211c-2.191,3.908-7.437,6.715-13.611,6.822C6.856,14.979.1,10.274,0,4.326c0-.182,0-.364.01-.545A8.317,8.317,0,0,1,1.163,0,7.44,7.44,0,0,0,.828,2.338C.925,7.917,7.3,12.331,15.065,12.2A16.9,16.9,0,0,0,25.4,8.716c.079.045.159.091.24.135l.016.944.534.153Z" transform="translate(12.54 17.735)"/><path class="u" d="M.711.134l.08,1.48L.256,1.462.24.518C.159.474.079.428,0,.383.153.259.3.132.447,0,.532.046.619.09.711.134Z" transform="translate(37.94 26.068)"/><path class="v" d="M19.364.7l-.057.2a2.887,2.887,0,0,0-.756-.086c-1.105.019-1.991.637-1.979,1.379a.721.721,0,0,0,.014.138.577.577,0,0,0-.009.111c.006.422.447.778,1.085.952l-.161.414a9.725,9.725,0,0,0-3.429-.547C9.84,3.34,6.455,5.986,6.511,9.178s3.531,5.717,7.763,5.644c3.257-.056,6.012-1.638,7.084-3.82l.454.139c-.013.036-.023.078-.035.126-.229.879-.567,3.511,2.8,5.457A16.9,16.9,0,0,1,14.238,20.2C6.473,20.339.1,15.925,0,10.346A7.44,7.44,0,0,1,.337,8.008a10,10,0,0,1,3.974-5.1h0A17.327,17.327,0,0,1,13.886,0,18.881,18.881,0,0,1,19.364.7Zm-3.453.661C15.9.617,14.993.031,13.888.05S11.9.686,11.909,1.429a.765.765,0,0,0,.014.136.526.526,0,0,0-.009.111c.01.585.85,1.048,1.9,1.063.041,0,.08,0,.12,0s.082,0,.121,0c1.048-.051,1.87-.543,1.861-1.127A.64.64,0,0,0,15.9,1.5,1.071,1.071,0,0,0,15.911,1.361ZM21.4,16.92a1.98,1.98,0,0,0-2.14-1.78,1.981,1.981,0,0,0-2.079,1.852,1.671,1.671,0,0,0,.032.289,2.016,2.016,0,0,0,1.948,1.487c.054,0,.108,0,.162,0s.11,0,.164-.007a2.014,2.014,0,0,0,1.891-1.553A1.441,1.441,0,0,0,21.4,16.92ZM11.274,2.1c-.013-.742-.918-1.33-2.024-1.31s-1.992.636-1.979,1.38a.767.767,0,0,0,.014.136.526.526,0,0,0-.01.111c.009.557.775,1,1.758,1.057.047,0,.1.006.143.006s.08,0,.121,0,.081,0,.121,0,.078,0,.117-.009c.991-.081,1.752-.556,1.743-1.12a.563.563,0,0,0-.012-.111A.955.955,0,0,0,11.274,2.1Zm5.307,15.714a1.982,1.982,0,0,0-2.14-1.778,1.979,1.979,0,0,0-2.078,1.852,1.324,1.324,0,0,0,.032.288,2.016,2.016,0,0,0,1.946,1.487c.054,0,.109,0,.163,0s.108,0,.163-.009a2.01,2.01,0,0,0,1.89-1.553A1.592,1.592,0,0,0,16.581,17.818ZM7.6,4.315c-.011-.742-.918-1.328-2.024-1.31S3.589,3.641,3.6,4.385a.767.767,0,0,0,.014.136.577.577,0,0,0-.009.111c.01.585.85,1.047,1.9,1.063.041,0,.08,0,.12,0s.082,0,.121,0c1.048-.051,1.87-.543,1.861-1.127a.614.614,0,0,0-.014-.114A.841.841,0,0,0,7.6,4.315Zm3.786,12.856a1.978,1.978,0,0,0-2.14-1.778,1.979,1.979,0,0,0-2.08,1.851,1.373,1.373,0,0,0,.032.289,2.014,2.014,0,0,0,1.946,1.487c.053,0,.109,0,.163,0s.108,0,.163-.007a2.015,2.015,0,0,0,1.892-1.553A1.676,1.676,0,0,0,11.389,17.171ZM5.449,7.52A1.849,1.849,0,0,0,3.42,5.913,1.854,1.854,0,0,0,1.445,7.591a1.373,1.373,0,0,0,.032.261A1.891,1.891,0,0,0,3.322,9.2c.052,0,.1,0,.155,0s.1,0,.155-.008a1.894,1.894,0,0,0,1.8-1.408A1.451,1.451,0,0,0,5.449,7.52Zm2.207,7.128a1.977,1.977,0,0,0-2.14-1.778A1.981,1.981,0,0,0,3.438,14.72a1.784,1.784,0,0,0,.032.288A2.015,2.015,0,0,0,5.417,16.5c.054,0,.108.005.163,0s.11,0,.163-.009a2.012,2.012,0,0,0,1.891-1.553A1.39,1.39,0,0,0,7.656,14.647ZM5.514,11.226A1.849,1.849,0,0,0,3.484,9.619,1.85,1.85,0,0,0,1.51,11.3a1.338,1.338,0,0,0,.031.26A1.888,1.888,0,0,0,3.386,12.9c.052,0,.1,0,.155,0s.1,0,.154-.008a1.894,1.894,0,0,0,1.8-1.408A1.37,1.37,0,0,0,5.514,11.226Z" transform="translate(13.367 9.727)"/><path class="w" d="M10.991.548c2.533.9,4.294,2.834,4.332,5.1a4.534,4.534,0,0,1-.475,2.091c-1.072,2.181-3.827,3.764-7.084,3.82C3.532,11.629.056,9.1,0,5.913S3.33.075,7.562,0A9.723,9.723,0,0,1,10.991.548Zm-.806,3.957L8.813,2.689l-2.66.061L4.867,4.63,6.252,7.151l2.66-.061Z" transform="translate(19.877 12.992)"/></g><path class="i" d="M2.828,0,48.559,17.919c11.109.03,11.322-.43,19.39,1.883,1.857.5,15.946,9.93,9,11.228s-15.927-1.748-16.241.835,4.552,4.267,3.5,7.92Q63.145,43.44,42.034,28.821L0,23.211Z" transform="matrix(-0.719, 0.695, -0.695, -0.719, 141.166, 205.224)"/><path class="c" d="M27.9,95.651C59.129,62.3,94.513,42.446,146.42,23.108L134.92,0C81.378,5.117,52.752,9.19,30.282,42.587,24.642,50.969,6.9,71.387.858,86.36c0,0-5.035,10.632,9.29,13.61S27.9,95.651,27.9,95.651Z" transform="translate(249.919 167.889) rotate(158)"/><g transform="translate(152.5)"><path d="M194.453-133.876c-4.953-.738-9.391-3.162-11.8-8.647,3.5,2.545,9,2.946,13.27,3.345A29.536,29.536,0,0,0,194.453-133.876Z" transform="translate(-180.664 149.959)"/><path d="M170.156-139.583c3.019.309,5.6.806,8.57.344,2.675-.449,5.14-1.988,7.671-2.416-.525,1.431-1.965,2.605-2.791,4.052,3.885-.195,7.332-.367,10.841-2.113l.025.063a19.188,19.188,0,0,1-1.782.818c-2.509.878-4.868,2.575-7.315,3.777l.025.045c-2.08,1.551-4.219,3.135-6.911,2.994a30.391,30.391,0,0,0,2.818-3.589c-4.357,1.084-9.549,1.884-14.271,1.155a29.534,29.534,0,0,1,1.471-5.3C169.086-139.692,169.639-139.644,170.156-139.583Z" transform="translate(-153.247 150.535)"/><path d="M178.157-119.806c-2.552,2.218-5.4,2.4-8.514,2.4a8.548,8.548,0,0,0-.073-1.89c-.492-3.676-4.394-5.955-6.12-3.855-.12,1.1-.3,2.2-.517,3.317-.06.3-.118.607-.18.906a6.6,6.6,0,0,1-1.867-1.724c.3,2.851-2.436,2.414-3.478,1.819l-.192.122c.815-3.927,1.148-12.776,1.994-15.83l-.022-.047c2.505-1.031,4.436-.72,6.984-1.438.59-.2,1.436.013,2.058-.263,3.28-1.413,6.835-3.558,8.977-6.2l.015-.023a.053.053,0,0,1,.045.023c.733-.923,1.4-1.879,2.063-2.793a13.275,13.275,0,0,1,3.614,2.133c1.988,1.8,1.8,3.2,2.191,5.8.8,4.384,1.4,8.382.6,12.577a22.671,22.671,0,0,1-.924,3.052c-.11.108-.214.216-.324.316a22.625,22.625,0,0,1-6.141,3.815C178.35-118.4,177.954-119.209,178.157-119.806Z" transform="translate(-128.553 148.125)"/><path d="M163.561-126.74a13.2,13.2,0,0,0,8.906-2.858c-.2.6.193,1.4.193,2.2a22.626,22.626,0,0,0,6.141-3.815c-.106.452-.214.908-.347,1.36-2.07,7.677-6.815,15.139-9.8,22.183l-.361,1.057c0,.9.075,1.169.075,2.366a8.99,8.99,0,0,1-5.626-3.39c-2.878-3.388-4.494-8.61-4.795-12.432A6.86,6.86,0,0,0,163.561-126.74Z" transform="translate(-122.471 157.454)"/><path d="M172.966-140.029a10.714,10.714,0,0,1-4.494-5.691c5.247,1.87,10.183.981,15.067.012,4.048-.81,8.056-1.686,12.191-1.074a29.682,29.682,0,0,1,12.169.968c1.232.514,2.73,1.032,4.168,1.651-.662.914-1.33,1.87-2.063,2.793a.053.053,0,0,0-.045-.023l-.015.023a24.793,24.793,0,0,1-8.958,6.492l-.023-.063c-3.591,1.5-7.042,1.5-10.932,1.5.9-1.342,2.4-2.4,2.992-3.737-2.55.286-5.091,1.639-7.784,1.94-2.992.3-5.543-.3-8.542-.741-.512-.083-1.064-.155-1.638-.243-3.4-.469-7.573-.976-10.831-2.489a5.3,5.3,0,0,1-2.936-3.388l0-.022C164.883-140.93,169.073-139.729,172.966-140.029Z" transform="translate(-161.289 146.996)"/></g></g></g></svg>