<svg xmlns="http://www.w3.org/2000/svg" width="587.408" height="151.49" viewBox="0 0 587.408 151.49"><defs><style>.a,.c{fill:none;}.a,.b,.g{stroke:#e42223;}.a,.b{stroke-linecap:round;stroke-linejoin:round;}.b,.h{fill:#fff;}.c{stroke:#707070;}.d{fill:#ebebeb;}.e{fill:#263238;}.f{fill:#848484;}.g,.k{fill:#e8505b;}.g{stroke-miterlimit:10;}.i{fill:#e0e0e0;}.j{fill:#f5f5f5;}.l{fill:#c0c4c8;}.m{opacity:0.2;}</style></defs><g transform="translate(-1121.5 -2462.691)"><g transform="translate(1652.222 2463.398)"><rect class="a" width="15.13" height="15.13" transform="translate(0 0)"/><line class="b" x2="15.13" y2="15.13" transform="translate(0 0)"/><line class="b" x1="15.13" y2="15.13" transform="translate(0 0)"/></g><g transform="translate(1664.526 2492.108)"><rect class="a" width="43.746" height="15.13" transform="translate(0 0)"/><line class="b" x2="43.746" y2="15.13" transform="translate(0 0)"/><line class="b" x1="43.746" y2="15.13" transform="translate(0 0)"/></g><g transform="translate(1197.991 2504.126)"><g transform="translate(143.511 31.904)"><g transform="translate(0 0)"><path class="c" d="M1057.036-1052.9l-1.96,0a1.486,1.486,0,0,0-.59.064.929.929,0,0,0-.467.415,1.01,1.01,0,0,0-.11.315,2.061,2.061,0,0,0-.014.348v.361a1.7,1.7,0,0,1-.023.373.991.991,0,0,1-.437.631.929.929,0,0,1-.384.137c-.14.012-.275,0-.416.006h-7.109a1.085,1.085,0,0,1-.284-.028.942.942,0,0,1-.488-.3,1.01,1.01,0,0,1-.239-.532,2.279,2.279,0,0,1-.01-.295v-.294a1.564,1.564,0,0,0-.059-.578.945.945,0,0,0-.35-.459.913.913,0,0,0-.564-.156h-4.521a3.11,3.11,0,0,0-1.318.25,3.082,3.082,0,0,0-1.1.821,3.018,3.018,0,0,0-.621,1.254c-.031.115-.04.235-.061.352,0,.1-.01.2-.013.3v48.359a3.155,3.155,0,0,0,.12.952,3.009,3.009,0,0,0,1.165,1.608,3.1,3.1,0,0,0,1.919.528h2.04l4.038,0,7.9,0,3.847,0c.635,0,1.27.01,1.894-.008a2.976,2.976,0,0,0,1.7-.658,3.18,3.18,0,0,0,.613-.68,2.98,2.98,0,0,0,.376-.829,3.135,3.135,0,0,0,.113-.9q0-.459,0-.916,0-1.827,0-3.612c.005-9.514.01-18.083.015-25.279s.013-13.02.017-17.045q0-.755,0-1.425a3.1,3.1,0,0,0-.221-1.216,3,3,0,0,0-.568-.9,2.89,2.89,0,0,0-.682-.558,2.872,2.872,0,0,0-1.126-.4,2.568,2.568,0,0,0-.306-.028l-.1-.007s-.14,0-.411,0Z" transform="translate(-1035.902 1052.911)"/></g></g><g transform="translate(0.066 10.443)"><g transform="translate(0 0)"><path class="c" d="M974.494-1168.592l-1.96,0a1.489,1.489,0,0,0-.59.064.929.929,0,0,0-.467.415,1,1,0,0,0-.109.314,2,2,0,0,0-.014.347v.362a1.711,1.711,0,0,1-.023.373.986.986,0,0,1-.437.631.925.925,0,0,1-.384.136c-.14.012-.275,0-.415.006h-7.109a1.067,1.067,0,0,1-.284-.028.941.941,0,0,1-.488-.3,1,1,0,0,1-.238-.532,2.117,2.117,0,0,1-.01-.295c0-.1,0-.2,0-.294a1.565,1.565,0,0,0-.059-.579.943.943,0,0,0-.35-.459.911.911,0,0,0-.563-.156h-4.521a3.11,3.11,0,0,0-1.318.25,3.085,3.085,0,0,0-1.1.821,3.03,3.03,0,0,0-.621,1.254c-.031.115-.04.235-.06.352-.005.1-.011.2-.014.3v48.359a3.135,3.135,0,0,0,.121.952,3,3,0,0,0,1.164,1.608,3.1,3.1,0,0,0,1.919.528l2.04,0,4.039,0,7.9,0,3.847,0c.634,0,1.271.01,1.894-.008a2.97,2.97,0,0,0,1.7-.658,3.2,3.2,0,0,0,.613-.68,3.015,3.015,0,0,0,.376-.829,3.151,3.151,0,0,0,.113-.9v-.917q0-1.828,0-3.612c.005-9.514.01-18.083.014-25.279s.013-13.02.017-17.045q0-.755,0-1.424a3.1,3.1,0,0,0-.221-1.217,3.008,3.008,0,0,0-.567-.9,2.9,2.9,0,0,0-.682-.558,2.864,2.864,0,0,0-1.126-.4,2.58,2.58,0,0,0-.3-.028l-.1-.007s-.139,0-.411,0Z" transform="translate(-953.36 1168.6)"/></g></g><g transform="translate(93.596 31.904)"><g transform="translate(0.031 0.062)"><path class="c" d="M974.081-1052.8l-1.96,0a1.489,1.489,0,0,0-.59.064.924.924,0,0,0-.467.415.992.992,0,0,0-.109.314,1.947,1.947,0,0,0-.014.347v.361a1.716,1.716,0,0,1-.023.374.992.992,0,0,1-.437.631.92.92,0,0,1-.384.136c-.14.013-.275,0-.416.006h-7.108a1.062,1.062,0,0,1-.284-.028.943.943,0,0,1-.488-.3,1.012,1.012,0,0,1-.239-.532,2.334,2.334,0,0,1-.01-.3v-.294a1.568,1.568,0,0,0-.059-.579.942.942,0,0,0-.35-.458.913.913,0,0,0-.564-.156h-4.521a3.1,3.1,0,0,0-1.318.251,3.076,3.076,0,0,0-1.1.821,3.029,3.029,0,0,0-.621,1.254c-.031.115-.04.234-.06.352-.005.1-.011.2-.014.3v48.359a3.155,3.155,0,0,0,.12.952,3.01,3.01,0,0,0,1.165,1.607,3.1,3.1,0,0,0,1.919.529h2.04l4.039,0,7.9.005,3.847,0c.634,0,1.271.01,1.894-.008a2.971,2.971,0,0,0,1.7-.658,3.181,3.181,0,0,0,.613-.68,2.964,2.964,0,0,0,.376-.829,3.151,3.151,0,0,0,.114-.9v-.916q0-1.826,0-3.611c0-9.514.01-18.083.014-25.28s.013-13.02.017-17.045q0-.754,0-1.424a3.1,3.1,0,0,0-.221-1.217,3,3,0,0,0-.567-.9,2.892,2.892,0,0,0-.682-.559,2.867,2.867,0,0,0-1.126-.4,2.426,2.426,0,0,0-.305-.028c-.069,0-.1-.008-.1-.008s-.14,0-.411,0Z" transform="translate(-952.947 1052.808)"/></g><g transform="translate(0)"><g transform="translate(4.263 20.559)"><rect class="d" width="17.005" height="3.473"/></g><path class="e" d="M975.733-1052.869s.035,0,.1,0a2.257,2.257,0,0,1,.307.023,2.849,2.849,0,0,1,1.133.391,2.908,2.908,0,0,1,.69.559,3.022,3.022,0,0,1,.575.9,3.123,3.123,0,0,1,.226,1.226q0,.669,0,1.425c0,4.026.006,9.849.01,17.045s0,15.765,0,25.28v4.527a3.213,3.213,0,0,1-.115.922,3.069,3.069,0,0,1-.386.852,3.257,3.257,0,0,1-.629.7,3.055,3.055,0,0,1-1.745.677c-.633.019-1.262,0-1.9.008h-3.847l-7.9,0-4.039,0h-2.039a3.192,3.192,0,0,1-1.968-.543,3.091,3.091,0,0,1-1.2-1.654,3.33,3.33,0,0,1-.126-1.022q0-.51,0-1.019,0-2.034,0-4.04,0-4.011,0-7.9c0-5.178,0-10.173.005-14.931s0-9.279.007-13.511q0-3.173,0-6.123,0-.368,0-.733c0-.121.01-.245.017-.366s.031-.242.062-.36a3.092,3.092,0,0,1,.636-1.28,3.139,3.139,0,0,1,1.12-.837,3.173,3.173,0,0,1,1.343-.254l2.633,0,1.267,0h.621a.967.967,0,0,1,.595.167.994.994,0,0,1,.37.485,1.619,1.619,0,0,1,.061.6v.294a2.281,2.281,0,0,0,.01.288.956.956,0,0,0,.225.506.889.889,0,0,0,.462.286,1,1,0,0,0,.272.027h1.369l3.984.006,1.757,0c.138,0,.28.006.411-.005a.891.891,0,0,0,.37-.13.959.959,0,0,0,.423-.609,1.667,1.667,0,0,0,.023-.367c0-.123,0-.243,0-.361a2.087,2.087,0,0,1,.016-.352,1.026,1.026,0,0,1,.114-.324.952.952,0,0,1,.482-.426,1.514,1.514,0,0,1,.6-.064l1.96.005,1.205,0c.271,0,.41,0,.41,0l-.41,0-1.205,0-1.96,0a1.5,1.5,0,0,0-.59.064.927.927,0,0,0-.467.415.993.993,0,0,0-.11.314,2.068,2.068,0,0,0-.014.348v.361a1.711,1.711,0,0,1-.023.373.991.991,0,0,1-.437.631.929.929,0,0,1-.384.136c-.14.012-.275,0-.416.006h-7.109a1.1,1.1,0,0,1-.284-.028.943.943,0,0,1-.488-.3,1.01,1.01,0,0,1-.239-.532,2.31,2.31,0,0,1-.01-.295v-.294a1.564,1.564,0,0,0-.059-.578.944.944,0,0,0-.35-.459.912.912,0,0,0-.564-.156h-4.521a3.112,3.112,0,0,0-1.318.25,3.083,3.083,0,0,0-1.1.821,3.022,3.022,0,0,0-.621,1.254c-.031.115-.04.235-.061.352s-.014.239-.016.36q0,.365,0,.733,0,2.946,0,6.123c0,4.232,0,8.753,0,13.511s0,9.753,0,14.931q0,3.883,0,7.9,0,2.005,0,4.04,0,.508,0,1.019a3.259,3.259,0,0,0,.123,1,3.01,3.01,0,0,0,1.164,1.608,3.106,3.106,0,0,0,1.92.528h2.04l4.038,0,7.9,0,3.847,0c.634,0,1.27.01,1.894-.008a2.981,2.981,0,0,0,1.7-.659,3.191,3.191,0,0,0,.613-.679,2.98,2.98,0,0,0,.376-.829,3.135,3.135,0,0,0,.113-.9v-.916q0-1.828,0-3.612c.005-9.514.01-18.083.014-25.28s.013-13.019.017-17.045q0-.755,0-1.425a3.1,3.1,0,0,0-.221-1.216,3,3,0,0,0-.568-.9,2.888,2.888,0,0,0-.682-.558,2.868,2.868,0,0,0-1.126-.4,2.315,2.315,0,0,0-.305-.028Z" transform="translate(-952.896 1052.911)"/><g transform="translate(21.191 4.919)"><path class="e" d="M990.366-1044.715c0,.013-.5.027-1.115.033s-1.115,0-1.115-.014.5-.028,1.115-.032S990.366-1044.728,990.366-1044.715Z" transform="translate(-988.136 1044.731)"/><g transform="translate(0.004 0.571)"><path class="e" d="M990.374-1043.766c0,.013-.5.028-1.115.033s-1.115,0-1.115-.014.5-.028,1.115-.033S990.373-1043.779,990.374-1043.766Z" transform="translate(-988.143 1043.782)"/></g><g transform="translate(0.009 1.141)"><path class="e" d="M990.381-1042.817c0,.013-.5.028-1.115.033s-1.115,0-1.115-.014.5-.028,1.115-.032S990.381-1042.83,990.381-1042.817Z" transform="translate(-988.151 1042.833)"/></g></g><g transform="translate(3.111 4.861)"><path class="e" d="M958.093-1042.961a.341.341,0,0,1,.046,0l.129,0,.476-.011-.013.014-.005-.345c0-.064-.006-.125,0-.2a.182.182,0,0,1,.16-.147c.076,0,.144-.005.227,0a.185.185,0,0,1,.156.184c0,.161,0,.329.005.5l-.022-.022.6-.006-.023.024-.007-.749v-.191a.2.2,0,0,0-.085-.142l-.263-.259-.253-.25-.123-.121c-.042-.041-.075-.083-.125-.093a.16.16,0,0,0-.138.026c-.036.031-.075.075-.112.11l-.215.218c-.136.141-.277.269-.379.391a.425.425,0,0,0-.031.224v.212l0,.341c0,.087,0,.159,0,.218a.67.67,0,0,1,0,.079.559.559,0,0,1,0-.073l-.006-.214-.008-.344,0-.216,0-.119a.242.242,0,0,1,.033-.126c.111-.136.244-.257.38-.4l.214-.219c.039-.038.07-.075.116-.115a.2.2,0,0,1,.174-.034.319.319,0,0,1,.144.1l.123.121.254.25.263.258a.5.5,0,0,1,.067.073.2.2,0,0,1,.032.1l0,.191c0,.257,0,.507.005.749v.023h-.023l-.6,0h-.022v-.022c0-.174,0-.343,0-.5a.145.145,0,0,0-.121-.145c-.069,0-.151,0-.218,0a.148.148,0,0,0-.13.117c-.005.06,0,.131,0,.192v.359h-.013l-.484,0-.126,0Z" transform="translate(-958.07 1044.828)"/></g><g transform="translate(4.299 25.74)"><rect class="d" width="17.005" height="3.473"/></g><g transform="translate(4.299 30.78)"><rect class="d" width="17.005" height="3.473"/></g><g transform="translate(6.945 37.683)"><path class="f" d="M974.718-986.774h-8.535a1.737,1.737,0,0,1-1.737-1.737h0a1.737,1.737,0,0,1,1.737-1.737h8.535a1.737,1.737,0,0,1,1.737,1.737h0A1.737,1.737,0,0,1,974.718-986.774Z" transform="translate(-964.445 990.247)"/></g><g transform="translate(7.572 16.813)"><path class="e" d="M976.16-1024.8a45.5,45.5,0,0,1-5.336.157,45.478,45.478,0,0,1-5.336-.157,45.758,45.758,0,0,1,5.336-.156A45.781,45.781,0,0,1,976.16-1024.8Z" transform="translate(-965.488 1024.952)"/></g></g></g><g transform="translate(104.76 87.87)"><g transform="translate(0.618 0.714)"><path class="g" d="M972.585-958.654a.78.78,0,0,1,.016.176c0,.134.009.3.016.517.007.476.017,1.141.03,1.985.007.87.016,1.922.026,3.141.01.609,0,1.276.025,1.953a3.054,3.054,0,0,0,.882,1.885,3.021,3.021,0,0,0,2.1.877l2.621-.007,5.787-.014,13.26-.013,13.262.013,5.787.014,2.621.007a3.018,3.018,0,0,0,2.1-.877,3.047,3.047,0,0,0,.881-1.886c.029-.677.015-1.344.025-1.953.011-1.218.019-2.271.027-3.141.012-.844.022-1.509.029-1.985l.015-.516a.754.754,0,0,1,.016-.176.742.742,0,0,1,.016.176l.015.516c.007.476.018,1.141.03,1.985.008.87.016,1.922.027,3.141,0,.616.021,1.259,0,1.969a3.248,3.248,0,0,1-.923,2.026,3.247,3.247,0,0,1-2.249.963l-2.625.011-5.787.015-13.262.012-13.26-.012-5.787-.015-2.624-.011a3.247,3.247,0,0,1-2.249-.962,3.253,3.253,0,0,1-.924-2.025c-.023-.71,0-1.354,0-1.969.01-1.218.019-2.271.026-3.141.013-.844.022-1.509.03-1.985.007-.212.011-.382.016-.517A.743.743,0,0,1,972.585-958.654Z" transform="translate(-972.488 958.654)"/></g><g transform="translate(0 0)"><path class="g" d="M971.46-959.128a.715.715,0,0,1,.715-.714.715.715,0,0,1,.715.714.715.715,0,0,1-.715.715A.715.715,0,0,1,971.46-959.128Z" transform="translate(-971.46 959.842)"/></g></g><g transform="translate(143.444 31.904)"><path class="e" d="M1058.629-1052.869s.034,0,.1,0a2.254,2.254,0,0,1,.306.023,2.845,2.845,0,0,1,1.133.391,2.908,2.908,0,0,1,.69.559,3.012,3.012,0,0,1,.575.9,3.12,3.12,0,0,1,.227,1.226q0,.669,0,1.425c0,4.026.006,9.849.01,17.045s0,15.765,0,25.28q0,1.784,0,3.612,0,.456,0,.916a3.215,3.215,0,0,1-.115.922,3.044,3.044,0,0,1-.386.852,3.257,3.257,0,0,1-.629.7,3.055,3.055,0,0,1-1.744.677c-.634.019-1.263,0-1.9.008h-3.847l-7.9,0-4.038,0h-2.04a3.192,3.192,0,0,1-1.968-.543,3.091,3.091,0,0,1-1.2-1.654,3.33,3.33,0,0,1-.126-1.022q0-.51,0-1.019,0-2.034,0-4.04,0-4.011,0-7.9c0-5.178,0-10.173.005-14.931s0-9.279.007-13.511q0-3.173,0-6.123,0-.368,0-.733c0-.121.01-.245.017-.366s.031-.242.062-.36a3.1,3.1,0,0,1,.636-1.28,3.141,3.141,0,0,1,1.12-.837,3.174,3.174,0,0,1,1.343-.254l2.633,0,1.267,0h.62a.965.965,0,0,1,.595.167.994.994,0,0,1,.37.485,1.62,1.62,0,0,1,.061.6c0,.1,0,.2,0,.294a2.282,2.282,0,0,0,.01.288.955.955,0,0,0,.226.506.891.891,0,0,0,.462.286,1,1,0,0,0,.272.027h1.369l3.983.006,1.757,0c.138,0,.28.006.411-.005a.885.885,0,0,0,.37-.13.959.959,0,0,0,.423-.609,1.664,1.664,0,0,0,.023-.367c0-.123,0-.243,0-.361a2.081,2.081,0,0,1,.016-.352,1.024,1.024,0,0,1,.114-.324.952.952,0,0,1,.482-.426,1.514,1.514,0,0,1,.6-.064l1.96.005,1.205,0c.271,0,.411,0,.411,0l-.411,0-1.205,0-1.96,0a1.5,1.5,0,0,0-.59.064.929.929,0,0,0-.467.415.994.994,0,0,0-.109.314,2,2,0,0,0-.015.348v.361a1.711,1.711,0,0,1-.023.373.992.992,0,0,1-.437.631.928.928,0,0,1-.384.136c-.14.012-.276,0-.416.006H1045.5a1.1,1.1,0,0,1-.284-.028.942.942,0,0,1-.488-.3,1.011,1.011,0,0,1-.239-.532,2.321,2.321,0,0,1-.01-.295v-.294a1.564,1.564,0,0,0-.059-.578.94.94,0,0,0-.35-.459.912.912,0,0,0-.564-.156h-4.521a3.112,3.112,0,0,0-1.318.25,3.084,3.084,0,0,0-1.1.821,3.021,3.021,0,0,0-.621,1.254c-.031.115-.04.235-.061.352s-.015.239-.016.36v.733q0,2.946,0,6.123c0,4.232,0,8.753,0,13.511s0,9.753,0,14.931q0,3.883,0,7.9,0,2.005,0,4.04v1.019a3.261,3.261,0,0,0,.123,1,3.012,3.012,0,0,0,1.165,1.608,3.1,3.1,0,0,0,1.919.528h2.04l4.038,0,7.9,0,3.847,0c.634,0,1.27.01,1.894-.008a2.979,2.979,0,0,0,1.7-.659,3.19,3.19,0,0,0,.613-.679,2.98,2.98,0,0,0,.376-.829,3.135,3.135,0,0,0,.113-.9v-.916q0-1.828,0-3.612c0-9.514.01-18.083.014-25.28s.013-13.019.017-17.045q0-.755,0-1.425a3.093,3.093,0,0,0-.221-1.216,3,3,0,0,0-.568-.9,2.886,2.886,0,0,0-.682-.558,2.869,2.869,0,0,0-1.126-.4,2.316,2.316,0,0,0-.305-.028Z" transform="translate(-1035.791 1052.911)"/><g transform="translate(21.191 4.919)"><path class="e" d="M1073.261-1044.715c0,.013-.5.027-1.115.033s-1.115,0-1.115-.014.5-.028,1.115-.032S1073.261-1044.728,1073.261-1044.715Z" transform="translate(-1071.031 1044.731)"/><g transform="translate(0.004 0.571)"><path class="e" d="M1073.269-1043.766c0,.013-.5.028-1.115.033s-1.115,0-1.115-.014.5-.028,1.115-.033S1073.268-1043.779,1073.269-1043.766Z" transform="translate(-1071.038 1043.782)"/></g><g transform="translate(0.009 1.141)"><path class="e" d="M1073.277-1042.817c0,.013-.5.028-1.116.033s-1.115,0-1.115-.014.5-.028,1.115-.032S1073.276-1042.83,1073.277-1042.817Z" transform="translate(-1071.046 1042.833)"/></g></g><g transform="translate(3.111 4.861)"><path class="e" d="M1040.989-1042.961a.342.342,0,0,1,.046,0l.129,0,.476-.011-.013.014c0-.106,0-.221-.005-.345,0-.064-.005-.125,0-.2a.182.182,0,0,1,.16-.147c.077,0,.144-.005.227,0a.185.185,0,0,1,.156.184c0,.161,0,.329.005.5l-.022-.022.6-.006-.023.024-.007-.749v-.191a.194.194,0,0,0-.085-.142l-.262-.259-.254-.25-.123-.121c-.042-.041-.075-.083-.124-.093a.161.161,0,0,0-.138.026c-.036.031-.075.075-.112.11l-.215.218c-.136.141-.277.269-.379.391a.43.43,0,0,0-.031.224v.212l0,.341,0,.218a.632.632,0,0,1,0,.079.544.544,0,0,1,0-.073c0-.058,0-.129-.006-.214s0-.214-.008-.344c0-.068,0-.14,0-.216l0-.119a.249.249,0,0,1,.033-.126c.111-.136.244-.257.381-.4l.214-.219c.038-.038.07-.075.116-.115a.2.2,0,0,1,.174-.034.324.324,0,0,1,.144.1l.123.121.254.25.263.258a.489.489,0,0,1,.067.073.2.2,0,0,1,.032.1l0,.191c0,.257,0,.507.005.749v.023h-.023l-.6,0h-.022v-.022c0-.174,0-.343,0-.5a.145.145,0,0,0-.122-.145c-.069,0-.15,0-.218,0a.148.148,0,0,0-.13.117c-.005.06,0,.131,0,.192v.359h-.013l-.484,0-.126,0Z" transform="translate(-1040.965 1044.828)"/></g><g transform="translate(7.506 12.201)"><g transform="translate(0 0)"><circle class="f" cx="5.045" cy="5.045" r="5.045" transform="translate(0 9.959) rotate(-80.807)"/><g transform="translate(4.055 3.751)"><g transform="translate(0 1.913)"><path class="h" d="M1058.477-1021.046h-3.461v-.425a1.731,1.731,0,0,1,1.731-1.731h0a1.731,1.731,0,0,1,1.731,1.731Z" transform="translate(-1055.016 1023.202)"/></g><g transform="translate(0.714)"><circle class="h" cx="1.017" cy="1.017" r="1.017"/></g></g></g></g><g transform="translate(4.299 28.81)"><rect class="d" width="17.005" height="3.473"/></g><g transform="translate(4.299 33.85)"><rect class="d" width="17.005" height="3.473"/></g><g transform="translate(6.945 40.753)"><path class="f" d="M1057.613-981.669h-8.535a1.737,1.737,0,0,1-1.737-1.737h0a1.737,1.737,0,0,1,1.737-1.737h8.535a1.737,1.737,0,0,1,1.737,1.737h0A1.737,1.737,0,0,1,1057.613-981.669Z" transform="translate(-1047.341 985.142)"/></g><g transform="translate(7.608 26.56)"><path class="e" d="M1059.114-1008.587a45.6,45.6,0,0,1-5.336.156,45.613,45.613,0,0,1-5.336-.156,45.525,45.525,0,0,1,5.336-.157A45.517,45.517,0,0,1,1059.114-1008.587Z" transform="translate(-1048.442 1008.744)"/></g><g transform="translate(5.764 30.115)"><g transform="translate(0 0.563)"><path class="i" d="M1046.26-1001.262h-.751a.133.133,0,0,1-.134-.134h0a.5.5,0,0,1,.5-.5h.017a.5.5,0,0,1,.5.5h0A.133.133,0,0,1,1046.26-1001.262Z" transform="translate(-1045.376 1001.896)"/></g><g transform="translate(0.21)"><circle class="i" cx="0.299" cy="0.299" r="0.299"/></g></g><g transform="translate(5.712 35.027)"><g transform="translate(0.112 0.615)"><rect class="i" width="0.897" height="0.634"/></g><path class="i" d="M1046.4-993.914h-.3v-.2a.254.254,0,0,0-.254-.254.254.254,0,0,0-.254.254v.2h-.3v-.2a.555.555,0,0,1,.554-.554.555.555,0,0,1,.554.554Z" transform="translate(-1045.29 994.664)"/></g></g><g transform="translate(0 10.381)"><g transform="translate(0 0)"><path class="e" d="M976.087-1168.662l.1,0a2.162,2.162,0,0,1,.306.024,2.84,2.84,0,0,1,1.134.391,2.9,2.9,0,0,1,.689.559,3.027,3.027,0,0,1,.576.9,3.14,3.14,0,0,1,.226,1.227q0,.669,0,1.424c0,4.025.005,9.849.01,17.045s0,15.765,0,25.28v4.527a3.233,3.233,0,0,1-.116.921,3.041,3.041,0,0,1-.385.851,3.281,3.281,0,0,1-.63.7,3.061,3.061,0,0,1-1.745.677c-.634.019-1.263,0-1.9.008l-3.847,0-7.9,0-4.039,0h-2.04a3.194,3.194,0,0,1-1.968-.544,3.1,3.1,0,0,1-1.2-1.654,3.333,3.333,0,0,1-.126-1.022v-1.019q0-2.033,0-4.04,0-4.011,0-7.9c0-5.178,0-10.173.005-14.931s0-9.279.007-13.51q0-3.174,0-6.123,0-.369,0-.733c0-.122.01-.245.017-.366s.031-.243.062-.36a3.088,3.088,0,0,1,.636-1.28,3.154,3.154,0,0,1,1.12-.838,3.177,3.177,0,0,1,1.343-.254l2.634,0,1.266,0h.621a.968.968,0,0,1,.595.166,1,1,0,0,1,.369.485,1.619,1.619,0,0,1,.061.6v.294a2.146,2.146,0,0,0,.009.287.958.958,0,0,0,.225.506.892.892,0,0,0,.462.287,1.033,1.033,0,0,0,.272.027h.278l1.09,0,3.983.006,1.756,0c.138,0,.28.007.411,0a.894.894,0,0,0,.37-.13.956.956,0,0,0,.423-.609,1.7,1.7,0,0,0,.024-.367c0-.122,0-.242,0-.361a2.034,2.034,0,0,1,.016-.352,1.019,1.019,0,0,1,.114-.323.954.954,0,0,1,.482-.426,1.507,1.507,0,0,1,.6-.064l1.96.005,1.205,0c.272,0,.411,0,.411,0s-.139,0-.411,0l-1.205,0-1.96,0a1.5,1.5,0,0,0-.59.064.924.924,0,0,0-.467.415.99.99,0,0,0-.109.314,2,2,0,0,0-.014.347v.361a1.677,1.677,0,0,1-.023.374.987.987,0,0,1-.437.631.913.913,0,0,1-.384.136c-.14.013-.275,0-.416.007h-7.108a1.062,1.062,0,0,1-.285-.028.939.939,0,0,1-.488-.3,1,1,0,0,1-.238-.532,2.145,2.145,0,0,1-.01-.3c0-.1,0-.2,0-.293a1.569,1.569,0,0,0-.059-.579.943.943,0,0,0-.35-.458.912.912,0,0,0-.563-.156h-4.522a3.107,3.107,0,0,0-1.318.251,3.082,3.082,0,0,0-1.1.821,3.03,3.03,0,0,0-.621,1.254c-.031.115-.039.234-.06.352s-.015.238-.016.36v.733q0,2.946,0,6.123c0,4.231,0,8.753,0,13.51s0,9.753,0,14.931q0,3.884,0,7.9,0,2.006,0,4.04v1.019a3.228,3.228,0,0,0,.123,1,3.01,3.01,0,0,0,1.164,1.608,3.109,3.109,0,0,0,1.919.528h2.04l4.039,0,7.9.005,3.848,0c.634,0,1.27.01,1.894-.008a2.971,2.971,0,0,0,1.7-.659,3.179,3.179,0,0,0,.613-.68,3,3,0,0,0,.376-.829,3.153,3.153,0,0,0,.113-.9v-.916q0-1.827,0-3.611c.005-9.514.01-18.083.014-25.28s.013-13.02.017-17.045q0-.754,0-1.424a3.112,3.112,0,0,0-.22-1.217,3.011,3.011,0,0,0-.568-.9,2.887,2.887,0,0,0-.682-.559,2.862,2.862,0,0,0-1.126-.4,2.36,2.36,0,0,0-.3-.028Z" transform="translate(-953.25 1168.703)"/><g transform="translate(21.191 4.919)"><path class="e" d="M990.719-1160.508c0,.013-.5.028-1.115.032s-1.115,0-1.115-.014.5-.028,1.115-.033S990.719-1160.521,990.719-1160.508Z" transform="translate(-988.489 1160.524)"/><g transform="translate(0.005 0.571)"><path class="e" d="M990.727-1159.559c0,.013-.5.028-1.115.032s-1.115,0-1.115-.014.5-.028,1.115-.033S990.727-1159.572,990.727-1159.559Z" transform="translate(-988.497 1159.575)"/></g><g transform="translate(0.01 1.141)"><path class="e" d="M990.735-1158.61c0,.013-.5.028-1.115.032s-1.115,0-1.115-.014.5-.028,1.115-.033S990.735-1158.623,990.735-1158.61Z" transform="translate(-988.505 1158.626)"/></g></g><g transform="translate(3.111 4.86)"><path class="e" d="M958.447-1158.754l.046,0,.129,0,.476-.011-.013.013-.005-.345c0-.064-.005-.125,0-.2a.183.183,0,0,1,.16-.147c.077,0,.144,0,.227,0a.186.186,0,0,1,.156.184c0,.161,0,.33.005.5l-.022-.022.6-.006-.023.023-.007-.748,0-.191a.2.2,0,0,0-.084-.142l-.263-.258-.254-.25-.123-.121c-.042-.04-.075-.082-.124-.093a.164.164,0,0,0-.138.026c-.036.031-.075.074-.112.11l-.215.217c-.135.141-.277.27-.379.391a.423.423,0,0,0-.03.224c0,.075,0,.145,0,.212,0,.13,0,.244,0,.341s0,.159,0,.218,0,.077,0,.078a.443.443,0,0,1,0-.072l-.006-.215-.008-.344,0-.215,0-.119a.249.249,0,0,1,.033-.126c.111-.137.244-.257.381-.4l.214-.219c.039-.038.07-.076.116-.115a.2.2,0,0,1,.174-.035.328.328,0,0,1,.144.1l.123.121.254.249.263.259a.507.507,0,0,1,.067.073.194.194,0,0,1,.031.1l0,.192c0,.256,0,.506.005.749v.023h-.023l-.6,0h-.022v-.022c0-.174,0-.342,0-.5a.145.145,0,0,0-.121-.146c-.069,0-.15,0-.218,0a.148.148,0,0,0-.129.117c-.006.06,0,.13,0,.192v.358H959.1l-.484,0-.126,0A.188.188,0,0,1,958.447-1158.754Z" transform="translate(-958.423 1160.621)"/></g></g><g transform="translate(4.938 26.525)"><rect class="d" width="17.005" height="3.473"/></g><g transform="translate(4.938 31.996)"><rect class="d" width="17.005" height="3.473"/></g><g transform="translate(4.938 37.468)"><rect class="d" width="17.005" height="3.473"/></g><g transform="translate(7.454 44.473)"><path class="f" d="M975.918-1091.274h-8.535a1.737,1.737,0,0,1-1.737-1.737h0a1.737,1.737,0,0,1,1.737-1.737h8.535a1.737,1.737,0,0,1,1.737,1.737h0A1.737,1.737,0,0,1,975.918-1091.274Z" transform="translate(-965.646 1094.747)"/></g><g transform="translate(4.938 21.054)"><rect class="d" width="17.005" height="3.473"/></g><g transform="translate(4.938 15.583)"><rect class="d" width="17.005" height="3.473"/></g><g transform="translate(8.105 12.2)"><path class="e" d="M977.4-1148.259a45.452,45.452,0,0,1-5.336.157,45.429,45.429,0,0,1-5.336-.157,45.809,45.809,0,0,1,5.336-.156A45.833,45.833,0,0,1,977.4-1148.259Z" transform="translate(-966.728 1148.415)"/></g></g><g transform="translate(157.056 19.852)"><g transform="translate(0.619 0)"><path class="g" d="M1109.068-1062.141a.741.741,0,0,1-.016-.176l-.016-.517c-.007-.476-.017-1.141-.029-1.985-.007-.87-.016-1.923-.026-3.141-.01-.608,0-1.276-.025-1.953a3.05,3.05,0,0,0-.881-1.885,3.018,3.018,0,0,0-2.1-.877l-2.621.007-5.787.015-13.259.012-13.263-.012-5.787-.015-2.621-.007a3.02,3.02,0,0,0-2.1.877,3.049,3.049,0,0,0-.881,1.885c-.029.678-.015,1.345-.025,1.953-.01,1.218-.019,2.271-.026,3.141-.013.844-.022,1.508-.03,1.984l-.016.517a.73.73,0,0,1-.016.176.757.757,0,0,1-.016-.176l-.016-.517c-.007-.476-.017-1.14-.03-1.984-.007-.87-.016-1.923-.026-3.141,0-.616-.022-1.259,0-1.969a3.255,3.255,0,0,1,.922-2.025,3.246,3.246,0,0,1,2.25-.963l2.624-.011,5.787-.015,13.263-.013,13.259.013,5.787.015,2.624.011a3.245,3.245,0,0,1,2.25.962,3.252,3.252,0,0,1,.923,2.025c.023.71,0,1.353,0,1.969-.01,1.218-.019,2.271-.026,3.141-.013.844-.022,1.509-.03,1.985l-.016.517A.731.731,0,0,1,1109.068-1062.141Z" transform="translate(-1059.455 1072.954)"/></g><g transform="translate(0 10.098)"><path class="g" d="M1059.856-1055.446a.715.715,0,0,1-.715.715.715.715,0,0,1-.715-.715.716.716,0,0,1,.715-.715A.715.715,0,0,1,1059.856-1055.446Z" transform="translate(-1058.426 1056.161)"/></g><g transform="translate(49.517 10.098)"><path class="g" d="M1142.2-1055.446a.715.715,0,0,1-.715.715.715.715,0,0,1-.715-.715.715.715,0,0,1,.715-.715A.716.716,0,0,1,1142.2-1055.446Z" transform="translate(-1140.77 1056.161)"/></g></g><path class="g" d="M1141.895-959.784a.712.712,0,0,1,.016.176c0,.133.01.3.016.516.007.476.017,1.141.03,1.986.007.87.016,1.922.026,3.141.01.609,0,1.275.025,1.953a3.05,3.05,0,0,0,.881,1.886,3.022,3.022,0,0,0,2.1.877l2.621-.007,5.786-.014,13.26-.013,13.263.013,5.787.014,2.621.007a3.022,3.022,0,0,0,2.1-.877,3.048,3.048,0,0,0,.881-1.886c.029-.677.015-1.344.025-1.953.01-1.218.019-2.271.026-3.141.013-.844.022-1.509.03-1.985l.016-.516a.736.736,0,0,1,.016-.176.734.734,0,0,1,.016.176l.016.516c.007.476.017,1.141.03,1.985.007.87.016,1.922.026,3.141,0,.616.022,1.259,0,1.969a3.253,3.253,0,0,1-.923,2.026,3.25,3.25,0,0,1-2.249.963L1185.7-949l-5.787.014-13.263.012-13.26-.012-5.786-.014-2.624-.011a3.247,3.247,0,0,1-2.25-.962,3.252,3.252,0,0,1-.924-2.026c-.023-.71,0-1.353,0-1.969.01-1.218.019-2.271.026-3.141.013-.845.023-1.509.029-1.986.007-.212.012-.383.016-.516A.759.759,0,0,1,1141.895-959.784Z" transform="translate(-934.607 1047.689)"/><path class="g" d="M1141.895-949a.711.711,0,0,0,.016-.176c0-.134.01-.3.016-.516.007-.476.017-1.141.03-1.986.007-.87.016-1.922.026-3.141.01-.609,0-1.275.025-1.952a3.05,3.05,0,0,1,.881-1.886,3.021,3.021,0,0,1,2.1-.877l2.621.007,5.786.014,13.26.013,13.263-.013c2.037,0,90.422-.263,92.236-.267.906,0,.907-.08,0-.084-1.814,0-90.2.068-92.236.063l-13.263-.012-13.26.012-5.786.014-2.624.011a3.247,3.247,0,0,0-2.25.962,3.252,3.252,0,0,0-.924,2.026c-.023.71,0,1.353,0,1.969.01,1.218.019,2.271.026,3.141.013.845.023,1.509.029,1.986.007.212.012.382.016.516A.758.758,0,0,0,1141.895-949Z" transform="translate(-1128.239 959.927)"/><g transform="translate(241.534 31.522)"><g transform="translate(0 0.024)"><path class="c" d="M1220.394-1053.5l-1.992,0a1.533,1.533,0,0,0-.6.064.935.935,0,0,0-.474.416.979.979,0,0,0-.112.314,2,2,0,0,0-.014.348v.362a1.637,1.637,0,0,1-.024.374.994.994,0,0,1-.445.631.957.957,0,0,1-.39.136c-.143.012-.28,0-.423.006h-7.226a1.1,1.1,0,0,1-.289-.028.965.965,0,0,1-.5-.3,1,1,0,0,1-.242-.533,2.215,2.215,0,0,1-.01-.295v-.294a1.539,1.539,0,0,0-.06-.579.944.944,0,0,0-.356-.459.936.936,0,0,0-.573-.156h-4.6a3.207,3.207,0,0,0-1.34.25,3.14,3.14,0,0,0-1.115.821,3.011,3.011,0,0,0-.631,1.254c-.031.116-.04.235-.061.352,0,.1-.011.2-.014.3v48.358a3.112,3.112,0,0,0,.123.952,3.008,3.008,0,0,0,1.184,1.608,3.193,3.193,0,0,0,1.95.529h2.074l4.105,0,8.027.005,3.911,0c.645,0,1.291.01,1.925-.008a3.052,3.052,0,0,0,1.727-.658,3.2,3.2,0,0,0,.623-.68,2.946,2.946,0,0,0,.382-.829,3.112,3.112,0,0,0,.115-.9v-.916q0-1.827,0-3.612c.005-9.514.01-18.083.014-25.279s.013-13.02.017-17.045q0-.755,0-1.424a3.057,3.057,0,0,0-.224-1.217,2.993,2.993,0,0,0-.577-.9,2.933,2.933,0,0,0-.694-.558,2.945,2.945,0,0,0-1.144-.4,2.44,2.44,0,0,0-.31-.028l-.1-.008s-.141,0-.417,0Z" transform="translate(-1198.909 1053.507)"/></g><g transform="translate(0 0)"><path class="e" d="M1222.066-1053.5l.105,0a2.337,2.337,0,0,1,.31.024,2.893,2.893,0,0,1,1.149.4,2.944,2.944,0,0,1,.7.567,3.051,3.051,0,0,1,.583.915,3.163,3.163,0,0,1,.23,1.244q0,.678,0,1.444c0,4.082.006,9.987.01,17.283s0,15.986,0,25.634v4.591a3.26,3.26,0,0,1-.117.934,3.088,3.088,0,0,1-.391.864,3.3,3.3,0,0,1-.638.708,3.1,3.1,0,0,1-1.769.687c-.642.019-1.28,0-1.925.008l-3.9,0-8.007,0-4.095,0h-2.069a3.233,3.233,0,0,1-1.995-.551,3.134,3.134,0,0,1-1.215-1.677,3.367,3.367,0,0,1-.128-1.036q0-.518,0-1.033,0-2.062,0-4.1,0-4.067,0-8.009c0-5.25,0-10.315.005-15.14s0-9.409.007-13.7q0-3.217,0-6.208,0-.373,0-.743c0-.123.011-.248.017-.372.022-.122.031-.246.063-.365a3.14,3.14,0,0,1,.645-1.3,3.183,3.183,0,0,1,1.136-.849,3.212,3.212,0,0,1,1.362-.257l2.67,0h1.914a.976.976,0,0,1,.6.168,1.013,1.013,0,0,1,.375.492,1.629,1.629,0,0,1,.062.606v.3a2.128,2.128,0,0,0,.01.292.968.968,0,0,0,.229.513.9.9,0,0,0,.468.29,1.04,1.04,0,0,0,.277.027h1.388l4.039.006,1.781,0c.141,0,.284.007.417-.005a.893.893,0,0,0,.375-.132.971.971,0,0,0,.429-.617,1.761,1.761,0,0,0,.024-.372q0-.186,0-.366a2.1,2.1,0,0,1,.016-.357,1.049,1.049,0,0,1,.116-.328.966.966,0,0,1,.489-.432,1.542,1.542,0,0,1,.609-.065l1.987.005,1.222,0c.276,0,.416,0,.416,0s-.141,0-.416,0l-1.222,0-1.987,0a1.516,1.516,0,0,0-.6.065.941.941,0,0,0-.473.421,1,1,0,0,0-.111.319,2.065,2.065,0,0,0-.015.352v.366a1.734,1.734,0,0,1-.024.38,1,1,0,0,1-.443.64.931.931,0,0,1-.39.138c-.142.013-.279,0-.422.007h-7.208a1.081,1.081,0,0,1-.289-.028.954.954,0,0,1-.495-.306,1.022,1.022,0,0,1-.242-.54,2.176,2.176,0,0,1-.01-.3q0-.148,0-.3a1.594,1.594,0,0,0-.06-.587.956.956,0,0,0-.355-.465.924.924,0,0,0-.572-.158h-4.585a3.146,3.146,0,0,0-1.336.254,3.129,3.129,0,0,0-1.112.833,3.074,3.074,0,0,0-.63,1.271c-.031.117-.04.238-.061.357s-.015.242-.017.365v.743q0,2.987,0,6.208c0,4.291,0,8.875,0,13.7s0,9.89,0,15.14q0,3.938,0,8.009,0,2.034,0,4.1v1.033a3.294,3.294,0,0,0,.125,1.012,3.053,3.053,0,0,0,1.18,1.63,3.153,3.153,0,0,0,1.946.536h2.069l4.1,0,8.006.005,3.9,0c.643,0,1.288.011,1.92-.008a3.016,3.016,0,0,0,1.722-.667,3.239,3.239,0,0,0,.622-.689,3.037,3.037,0,0,0,.381-.84,3.206,3.206,0,0,0,.114-.913v-.929q0-1.853,0-3.662c.005-9.648.01-18.337.015-25.634s.013-13.2.017-17.283q0-.766,0-1.444a3.139,3.139,0,0,0-.223-1.234,3.054,3.054,0,0,0-.575-.91,2.947,2.947,0,0,0-.692-.566,2.907,2.907,0,0,0-1.141-.4,2.385,2.385,0,0,0-.31-.028C1222.1-1053.5,1222.066-1053.5,1222.066-1053.5Z" transform="translate(-1198.909 1053.547)"/><g transform="translate(21.488 4.988)"><path class="e" d="M1236.9-1045.236c0,.013-.506.028-1.131.033s-1.131,0-1.131-.014.506-.028,1.13-.033S1236.9-1045.249,1236.9-1045.236Z" transform="translate(-1234.642 1045.252)"/><g transform="translate(0.005 0.579)"><path class="e" d="M1236.912-1044.274c0,.013-.506.028-1.13.033s-1.131,0-1.131-.014.506-.028,1.13-.033S1236.912-1044.287,1236.912-1044.274Z" transform="translate(-1234.65 1044.29)"/></g><g transform="translate(0.01 1.157)"><path class="e" d="M1236.92-1043.312c0,.013-.506.028-1.131.034s-1.131,0-1.131-.015.506-.028,1.13-.033S1236.92-1043.325,1236.92-1043.312Z" transform="translate(-1234.658 1043.328)"/></g></g><g transform="translate(3.155 4.929)"><path class="e" d="M1204.179-1043.457a.354.354,0,0,1,.047,0l.131,0,.483-.011-.013.014c0-.107,0-.224-.006-.35,0-.066-.005-.127,0-.2a.184.184,0,0,1,.162-.149c.078,0,.146-.005.231,0a.188.188,0,0,1,.158.187c0,.163,0,.334.006.51l-.023-.022.609-.007-.023.024c0-.246,0-.5-.007-.76l0-.193a.2.2,0,0,0-.086-.144l-.266-.262-.257-.254-.125-.123c-.043-.042-.076-.084-.126-.094a.166.166,0,0,0-.14.027c-.037.031-.076.075-.113.111l-.219.221c-.137.142-.28.273-.385.4a.435.435,0,0,0-.031.227v.215c0,.132,0,.247,0,.346l0,.221a.682.682,0,0,1,0,.08.562.562,0,0,1,0-.073l-.006-.218c0-.1,0-.216-.008-.349,0-.069,0-.142,0-.219l0-.12a.256.256,0,0,1,.034-.128c.112-.138.247-.26.386-.407l.217-.223c.039-.039.071-.076.118-.117a.206.206,0,0,1,.176-.034.328.328,0,0,1,.147.1l.125.122.257.253.267.262a.52.52,0,0,1,.068.074.194.194,0,0,1,.032.1l0,.195.006.759v.024h-.023l-.609,0h-.022v-.022c0-.177,0-.348,0-.511a.146.146,0,0,0-.123-.147c-.07,0-.153,0-.221,0a.149.149,0,0,0-.131.118c-.006.061,0,.133,0,.195,0,.126,0,.243,0,.35v.014h-.014l-.491,0-.128,0Z" transform="translate(-1204.155 1045.35)"/></g><g transform="translate(2.229 9.841)"><g transform="translate(0.04 0.039)"><rect class="j" width="21.361" height="3.886" rx="1.943"/></g><path class="e" d="M1222.379-1033.257s.042,0,.123-.01a1.76,1.76,0,0,0,.352-.068,1.7,1.7,0,0,0,.514-.27,1.611,1.611,0,0,0,.487-.617,1.582,1.582,0,0,0,.129-.453,4.109,4.109,0,0,0,.014-.524,3.433,3.433,0,0,0-.025-.569,1.6,1.6,0,0,0-.212-.569,1.617,1.617,0,0,0-1.078-.749,4.486,4.486,0,0,0-.743-.028h-.789l-16.856.012a1.606,1.606,0,0,0-1.088.428,1.6,1.6,0,0,0-.505,1.037c-.014.194,0,.4-.007.6a1.867,1.867,0,0,0,.061.578,1.613,1.613,0,0,0,.661.905,1.543,1.543,0,0,0,.518.221,2.363,2.363,0,0,0,.562.042h3.322l7.577.008,5.108.013,1.389.008.361,0c.081,0,.123,0,.123,0s-.042,0-.123,0l-.361,0-1.389.007-5.108.013-7.577.009H1204.5a2.4,2.4,0,0,1-.58-.044,1.609,1.609,0,0,1-.543-.231,1.689,1.689,0,0,1-.694-.949,1.944,1.944,0,0,1-.064-.6c0-.2-.007-.4.007-.6a1.683,1.683,0,0,1,.53-1.09,1.684,1.684,0,0,1,1.142-.449l16.856.011h.789a4.529,4.529,0,0,1,.752.032,1.666,1.666,0,0,1,1.106.776,1.65,1.65,0,0,1,.215.586,3.507,3.507,0,0,1,.022.576,4.119,4.119,0,0,1-.018.528,1.587,1.587,0,0,1-.135.461,1.627,1.627,0,0,1-.5.624,1.7,1.7,0,0,1-.524.267,1.654,1.654,0,0,1-.357.061C1222.421-1033.256,1222.379-1033.257,1222.379-1033.257Z" transform="translate(-1202.616 1037.182)"/><g transform="translate(18.646 1.152)"><path class="e" d="M1235.07-1034.529c-.008,0-.007-.062-.037-.168a.7.7,0,0,0-.258-.369.678.678,0,0,0-.636-.09.674.674,0,0,0-.437.626.672.672,0,0,0,.437.627.677.677,0,0,0,.636-.09.7.7,0,0,0,.258-.369c.03-.105.029-.168.037-.168s0,.016.005.046a.525.525,0,0,1-.013.13.7.7,0,0,1-.254.407.731.731,0,0,1-.7.114.742.742,0,0,1-.491-.7.741.741,0,0,1,.491-.7.728.728,0,0,1,.7.114.7.7,0,0,1,.254.406.528.528,0,0,1,.013.131C1235.075-1034.544,1235.073-1034.529,1235.07-1034.529Z" transform="translate(-1233.623 1035.267)"/><g transform="translate(1.203 1.268)"><path class="e" d="M1236.255-1032.475a1.384,1.384,0,0,1-.344-.314,1.407,1.407,0,0,1-.286-.368,1.394,1.394,0,0,1,.344.314A1.4,1.4,0,0,1,1236.255-1032.475Z" transform="translate(-1235.624 1033.158)"/></g></g><g transform="translate(2.543 1.494)"><path class="i" d="M1207.227-1034.6h-.381v-.1h.876v.1h-.381v.985h-.115Z" transform="translate(-1206.846 1034.697)"/><g transform="translate(0.869 0.263)"><path class="i" d="M1209.082-1033.811h-.682a.3.3,0,0,0,.321.283.319.319,0,0,0,.249-.107l.062.072a.4.4,0,0,1-.314.133.4.4,0,0,1-.427-.415.392.392,0,0,1,.4-.414.388.388,0,0,1,.394.414C1209.083-1033.836,1209.082-1033.824,1209.082-1033.811Zm-.682-.082h.578a.283.283,0,0,0-.289-.271A.284.284,0,0,0,1208.4-1033.893Z" transform="translate(-1208.291 1034.259)"/></g><g transform="translate(1.739 0.27)"><path class="i" d="M1210.381-1033.434l-.259-.34-.26.34h-.124l.322-.418-.307-.4h.124l.245.319.245-.319h.121l-.307.4.325.418Z" transform="translate(-1209.738 1034.248)"/></g><g transform="translate(2.563 0.091)"><path class="i" d="M1211.664-1033.6a.262.262,0,0,1-.172.057.215.215,0,0,1-.238-.237v-.492h-.146v-.093h.146v-.179h.11v.179h.248v.093h-.248v.486a.13.13,0,0,0,.141.149.184.184,0,0,0,.121-.042Z" transform="translate(-1211.108 1034.545)"/></g></g></g><g transform="translate(9.857 17.426)"><path class="k" d="M1222.285-1024.528c0,.022-1.564.04-3.492.04s-3.492-.018-3.492-.04,1.563-.04,3.492-.04S1222.285-1024.55,1222.285-1024.528Z" transform="translate(-1215.301 1024.568)"/><g transform="translate(0 1.434)"><path class="e" d="M1227.853-1022.144c0,.022-2.81.04-6.276.04s-6.277-.018-6.277-.04,2.809-.04,6.277-.04S1227.853-1022.167,1227.853-1022.144Z" transform="translate(-1215.301 1022.184)"/></g><g transform="translate(0 2.457)"><path class="e" d="M1227.705-1020.442c0,.022-2.777.04-6.2.04s-6.2-.018-6.2-.04,2.776-.04,6.2-.04S1227.705-1020.465,1227.705-1020.442Z" transform="translate(-1215.301 1020.482)"/></g><g transform="translate(0 3.434)"><path class="e" d="M1222.625-1018.818c0,.022-1.64.04-3.662.04s-3.662-.018-3.662-.04,1.639-.04,3.662-.04S1222.625-1018.84,1222.625-1018.818Z" transform="translate(-1215.301 1018.858)"/></g></g><g transform="translate(9.857 25.216)"><path class="k" d="M1222.285-1011.574c0,.022-1.564.04-3.492.04s-3.492-.018-3.492-.04,1.563-.04,3.492-.04S1222.285-1011.6,1222.285-1011.574Z" transform="translate(-1215.301 1011.614)"/><g transform="translate(0 1.434)"><path class="e" d="M1227.853-1009.19c0,.022-2.81.04-6.276.04s-6.277-.018-6.277-.04,2.809-.04,6.277-.04S1227.853-1009.213,1227.853-1009.19Z" transform="translate(-1215.301 1009.23)"/></g><g transform="translate(0 2.457)"><path class="e" d="M1227.705-1007.488c0,.022-2.777.04-6.2.04s-6.2-.018-6.2-.04,2.776-.04,6.2-.04S1227.705-1007.51,1227.705-1007.488Z" transform="translate(-1215.301 1007.528)"/></g><g transform="translate(0 3.434)"><path class="e" d="M1222.625-1005.864c0,.022-1.64.04-3.662.04s-3.662-.018-3.662-.04,1.639-.04,3.662-.04S1222.625-1005.886,1222.625-1005.864Z" transform="translate(-1215.301 1005.904)"/></g></g><g transform="translate(9.857 33.006)"><path class="k" d="M1222.285-998.62c0,.022-1.564.04-3.492.04s-3.492-.017-3.492-.04,1.563-.04,3.492-.04S1222.285-998.642,1222.285-998.62Z" transform="translate(-1215.301 998.66)"/><g transform="translate(0 1.434)"><path class="e" d="M1227.853-996.236c0,.022-2.81.04-6.276.04s-6.277-.018-6.277-.04,2.809-.04,6.277-.04S1227.853-996.259,1227.853-996.236Z" transform="translate(-1215.301 996.276)"/></g><g transform="translate(0 2.457)"><path class="e" d="M1227.705-994.534c0,.022-2.777.04-6.2.04s-6.2-.017-6.2-.04,2.776-.04,6.2-.04S1227.705-994.557,1227.705-994.534Z" transform="translate(-1215.301 994.574)"/></g><g transform="translate(0 3.434)"><path class="e" d="M1222.625-992.91c0,.022-1.64.04-3.662.04s-3.662-.018-3.662-.04,1.639-.04,3.662-.04S1222.625-992.933,1222.625-992.91Z" transform="translate(-1215.301 992.95)"/></g></g><g transform="translate(9.857 40.795)"><path class="k" d="M1222.285-985.666c0,.022-1.564.04-3.492.04s-3.492-.017-3.492-.04,1.563-.04,3.492-.04S1222.285-985.688,1222.285-985.666Z" transform="translate(-1215.301 985.706)"/><g transform="translate(0 1.434)"><path class="e" d="M1227.853-983.282c0,.022-2.81.04-6.276.04s-6.277-.018-6.277-.04,2.809-.04,6.277-.04S1227.853-983.3,1227.853-983.282Z" transform="translate(-1215.301 983.322)"/></g><g transform="translate(0 2.457)"><path class="e" d="M1227.705-981.58c0,.022-2.777.04-6.2.04s-6.2-.017-6.2-.04,2.776-.04,6.2-.04S1227.705-981.6,1227.705-981.58Z" transform="translate(-1215.301 981.62)"/></g><g transform="translate(0 3.434)"><path class="e" d="M1222.625-979.956c0,.022-1.64.04-3.662.04s-3.662-.018-3.662-.04,1.639-.04,3.662-.04S1222.625-979.979,1222.625-979.956Z" transform="translate(-1215.301 979.996)"/></g></g><g transform="translate(9.857 48.53)"><path class="k" d="M1222.285-972.8c0,.022-1.564.04-3.492.04s-3.492-.018-3.492-.04,1.563-.04,3.492-.04S1222.285-972.825,1222.285-972.8Z" transform="translate(-1215.301 972.843)"/><g transform="translate(0 1.434)"><path class="e" d="M1227.853-970.419c0,.022-2.81.04-6.276.04s-6.277-.017-6.277-.04,2.809-.04,6.277-.04S1227.853-970.442,1227.853-970.419Z" transform="translate(-1215.301 970.459)"/></g><g transform="translate(0 2.457)"><path class="e" d="M1227.705-968.717c0,.022-2.777.04-6.2.04s-6.2-.017-6.2-.04,2.776-.04,6.2-.04S1227.705-968.739,1227.705-968.717Z" transform="translate(-1215.301 968.757)"/></g><g transform="translate(0 3.434)"><path class="e" d="M1222.625-967.093c0,.022-1.64.04-3.662.04s-3.662-.018-3.662-.04,1.639-.04,3.662-.04S1222.625-967.116,1222.625-967.093Z" transform="translate(-1215.301 967.133)"/></g></g><g transform="translate(2.355 17.408)"><g transform="translate(0 0)"><rect class="l" width="4.276" height="5.688" transform="translate(0 4.275) rotate(-89.681)"/></g><g transform="translate(0 1.629)"><path class="k" d="M1202.825-1019.242l2-2.646,1.221,1.67.84-.884,1.626,1.893Z" transform="translate(-1202.825 1021.889)"/></g><g transform="translate(2.861 0.863)"><path class="k" d="M1208.478-1022.713a.448.448,0,0,1-.45.446.448.448,0,0,1-.446-.45.449.449,0,0,1,.45-.446A.448.448,0,0,1,1208.478-1022.713Z" transform="translate(-1207.582 1023.163)"/></g><g class="m" transform="translate(0 1.629)"><path d="M1202.825-1019.242l2-2.646,1.221,1.67.84-.884,1.626,1.893Z" transform="translate(-1202.825 1021.889)"/></g><g class="m" transform="translate(2.861 0.863)"><path d="M1208.478-1022.713a.448.448,0,0,1-.45.446.448.448,0,0,1-.446-.45.449.449,0,0,1,.45-.446A.448.448,0,0,1,1208.478-1022.713Z" transform="translate(-1207.582 1023.163)"/></g></g><g transform="translate(2.355 25.099)"><g transform="translate(0 0)"><rect class="l" width="4.276" height="5.688" transform="translate(0 4.275) rotate(-89.681)"/></g><g transform="translate(0 1.629)"><path class="k" d="M1202.825-1006.453l2-2.647,1.221,1.67.84-.884,1.626,1.893Z" transform="translate(-1202.825 1009.099)"/></g><g transform="translate(2.861 0.863)"><path class="k" d="M1208.478-1009.924a.448.448,0,0,1-.45.446.448.448,0,0,1-.446-.45.449.449,0,0,1,.45-.446A.448.448,0,0,1,1208.478-1009.924Z" transform="translate(-1207.582 1010.374)"/></g><g class="m" transform="translate(0 1.629)"><path d="M1202.825-1006.453l2-2.647,1.221,1.67.84-.884,1.626,1.893Z" transform="translate(-1202.825 1009.099)"/></g><g class="m" transform="translate(2.861 0.863)"><path d="M1208.478-1009.924a.448.448,0,0,1-.45.446.448.448,0,0,1-.446-.45.449.449,0,0,1,.45-.446A.448.448,0,0,1,1208.478-1009.924Z" transform="translate(-1207.582 1010.374)"/></g></g><g transform="translate(2.355 32.79)"><g transform="translate(0 0)"><rect class="l" width="4.276" height="5.688" transform="translate(0 4.275) rotate(-89.681)"/></g><g transform="translate(0 1.629)"><path class="k" d="M1202.825-993.664l2-2.646,1.221,1.67.84-.884,1.626,1.893Z" transform="translate(-1202.825 996.31)"/></g><g transform="translate(2.861 0.863)"><path class="k" d="M1208.478-997.134a.447.447,0,0,1-.45.446.448.448,0,0,1-.446-.45.448.448,0,0,1,.45-.445A.447.447,0,0,1,1208.478-997.134Z" transform="translate(-1207.582 997.584)"/></g><g class="m" transform="translate(0 1.629)"><path d="M1202.825-993.664l2-2.646,1.221,1.67.84-.884,1.626,1.893Z" transform="translate(-1202.825 996.31)"/></g><g class="m" transform="translate(2.861 0.863)"><path d="M1208.478-997.134a.447.447,0,0,1-.45.446.448.448,0,0,1-.446-.45.448.448,0,0,1,.45-.445A.447.447,0,0,1,1208.478-997.134Z" transform="translate(-1207.582 997.584)"/></g></g><g transform="translate(2.355 40.48)"><g transform="translate(0 0)"><rect class="l" width="4.276" height="5.688" transform="translate(0 4.275) rotate(-89.681)"/></g><g transform="translate(0 1.629)"><path class="k" d="M1202.825-980.875l2-2.646,1.221,1.67.84-.884,1.626,1.893Z" transform="translate(-1202.825 983.521)"/></g><g transform="translate(2.861 0.863)"><path class="k" d="M1208.478-984.344a.447.447,0,0,1-.45.445.448.448,0,0,1-.446-.45.448.448,0,0,1,.45-.445A.447.447,0,0,1,1208.478-984.344Z" transform="translate(-1207.582 984.795)"/></g><g class="m" transform="translate(0 1.629)"><path d="M1202.825-980.875l2-2.646,1.221,1.67.84-.884,1.626,1.893Z" transform="translate(-1202.825 983.521)"/></g><g class="m" transform="translate(2.861 0.863)"><path d="M1208.478-984.344a.447.447,0,0,1-.45.445.448.448,0,0,1-.446-.45.448.448,0,0,1,.45-.445A.447.447,0,0,1,1208.478-984.344Z" transform="translate(-1207.582 984.795)"/></g></g><g transform="translate(2.355 48.133)"><g transform="translate(0 0)"><rect class="l" width="4.276" height="5.688" transform="translate(0 4.275) rotate(-89.681)"/></g><g transform="translate(0 1.629)"><path class="k" d="M1202.825-968.148l2-2.646,1.221,1.67.84-.884,1.626,1.893Z" transform="translate(-1202.825 970.794)"/></g><g transform="translate(2.861 0.863)"><path class="k" d="M1208.478-971.618a.447.447,0,0,1-.45.445.448.448,0,0,1-.446-.45.448.448,0,0,1,.45-.445A.448.448,0,0,1,1208.478-971.618Z" transform="translate(-1207.582 972.068)"/></g><g class="m" transform="translate(0 1.629)"><path d="M1202.825-968.148l2-2.646,1.221,1.67.84-.884,1.626,1.893Z" transform="translate(-1202.825 970.794)"/></g><g class="m" transform="translate(2.861 0.863)"><path d="M1208.478-971.618a.447.447,0,0,1-.45.445.448.448,0,0,1-.446-.45.448.448,0,0,1,.45-.445A.448.448,0,0,1,1208.478-971.618Z" transform="translate(-1207.582 972.068)"/></g></g></g></g><g transform="translate(193.306 31.904)"><g transform="translate(0.066 0.062)"><path class="c" d="M1139.954-1052.8l-1.96,0a1.489,1.489,0,0,0-.59.064.924.924,0,0,0-.467.416.988.988,0,0,0-.11.314,2.089,2.089,0,0,0-.015.348v.361a1.715,1.715,0,0,1-.023.373.994.994,0,0,1-.437.632.938.938,0,0,1-.385.136c-.14.012-.275,0-.416.006h-7.108a1.065,1.065,0,0,1-.284-.028.938.938,0,0,1-.488-.3,1,1,0,0,1-.239-.532,2.348,2.348,0,0,1-.01-.295v-.294a1.572,1.572,0,0,0-.059-.578.947.947,0,0,0-.35-.459.913.913,0,0,0-.564-.156h-4.521a3.11,3.11,0,0,0-1.318.25,3.084,3.084,0,0,0-1.1.821,3.027,3.027,0,0,0-.621,1.254c-.03.116-.039.235-.06.352-.005.1-.01.2-.014.3v19.643c0,.263,0,.518,0,.783,0,.792,0,1.6,0,2.408v25.525a3.168,3.168,0,0,0,.121.952,3,3,0,0,0,1.164,1.608,3.1,3.1,0,0,0,1.919.529h2.04l4.039,0,7.9.005,3.847,0c.634,0,1.27.01,1.893-.008a2.972,2.972,0,0,0,1.7-.658,3.176,3.176,0,0,0,.613-.68,2.968,2.968,0,0,0,.376-.829,3.157,3.157,0,0,0,.113-.9v-.916q0-1.827,0-3.612c.005-9.514.01-18.083.014-25.279s.013-13.02.017-17.045q0-.755,0-1.424a3.113,3.113,0,0,0-.22-1.217,3,3,0,0,0-.568-.9,2.89,2.89,0,0,0-.682-.558,2.866,2.866,0,0,0-1.125-.4,2.592,2.592,0,0,0-.306-.028l-.1-.007s-.139,0-.411,0Z" transform="translate(-1118.819 1052.808)"/></g><path class="e" d="M1141.546-1052.869s.035,0,.1,0a2.255,2.255,0,0,1,.307.023,2.849,2.849,0,0,1,1.133.391,2.9,2.9,0,0,1,.689.559,3.011,3.011,0,0,1,.575.9,3.123,3.123,0,0,1,.226,1.226q0,.669,0,1.425c0,4.026.006,9.849.01,17.045s0,15.765,0,25.28v4.527a3.219,3.219,0,0,1-.116.922,3.062,3.062,0,0,1-.386.852,3.273,3.273,0,0,1-.629.7,3.056,3.056,0,0,1-1.745.677c-.633.019-1.262,0-1.9.008h-3.847l-7.9,0-4.039,0H1122a3.193,3.193,0,0,1-1.968-.543,3.094,3.094,0,0,1-1.2-1.654,3.33,3.33,0,0,1-.126-1.022v-1.019q0-2.034,0-4.04,0-4.011,0-7.9c0-5.178,0-10.173.005-14.931s0-9.279.007-13.511q0-3.173,0-6.123,0-.368,0-.733c0-.121.01-.245.017-.366s.031-.242.062-.36a3.092,3.092,0,0,1,.635-1.28,3.148,3.148,0,0,1,1.121-.837,3.172,3.172,0,0,1,1.343-.254l2.633,0,1.267,0h.62a.966.966,0,0,1,.595.167,1,1,0,0,1,.37.485,1.631,1.631,0,0,1,.062.6v.294a2.281,2.281,0,0,0,.01.288.956.956,0,0,0,.225.506.888.888,0,0,0,.461.286,1.007,1.007,0,0,0,.272.027h1.369l3.984.006,1.756,0c.139,0,.28.006.412-.005a.889.889,0,0,0,.37-.13.962.962,0,0,0,.424-.609,1.671,1.671,0,0,0,.023-.367c0-.123,0-.243,0-.361a2.093,2.093,0,0,1,.016-.352,1.006,1.006,0,0,1,.114-.324.952.952,0,0,1,.482-.426,1.515,1.515,0,0,1,.6-.064l1.96.005,1.205,0c.271,0,.41,0,.41,0l-.41,0-1.205,0-1.96,0a1.5,1.5,0,0,0-.59.064.927.927,0,0,0-.467.415.992.992,0,0,0-.11.314,2.074,2.074,0,0,0-.015.348c0,.119,0,.239,0,.361a1.718,1.718,0,0,1-.023.373.991.991,0,0,1-.437.631.927.927,0,0,1-.385.136c-.139.012-.275,0-.415.006h-7.109a1.1,1.1,0,0,1-.284-.028.94.94,0,0,1-.488-.3,1.006,1.006,0,0,1-.239-.532,2.3,2.3,0,0,1-.01-.295v-.294a1.579,1.579,0,0,0-.059-.578.945.945,0,0,0-.35-.459.912.912,0,0,0-.564-.156h-4.521a3.112,3.112,0,0,0-1.318.25,3.082,3.082,0,0,0-1.1.821,3.028,3.028,0,0,0-.621,1.254c-.03.115-.039.235-.06.352-.006.12-.014.239-.016.36v.733q0,2.946,0,6.123c0,4.232,0,8.753,0,13.511s0,9.753,0,14.931q0,3.883,0,7.9,0,2.005,0,4.04v1.019a3.246,3.246,0,0,0,.123,1,3.008,3.008,0,0,0,1.164,1.608,3.105,3.105,0,0,0,1.919.528h2.04l4.039,0,7.9,0,3.847,0c.634,0,1.27.01,1.894-.008a2.981,2.981,0,0,0,1.7-.659,3.193,3.193,0,0,0,.613-.679,2.977,2.977,0,0,0,.376-.829,3.153,3.153,0,0,0,.113-.9v-.916q0-1.828,0-3.612c.005-9.514.01-18.083.014-25.28s.012-13.019.017-17.045q0-.755,0-1.425a3.1,3.1,0,0,0-.22-1.216,3,3,0,0,0-.568-.9,2.878,2.878,0,0,0-.682-.558,2.865,2.865,0,0,0-1.125-.4,2.319,2.319,0,0,0-.305-.028Z" transform="translate(-1118.709 1052.911)"/><g transform="translate(21.191 4.919)"><path class="e" d="M1156.179-1044.715c0,.013-.5.027-1.115.033s-1.115,0-1.115-.014.5-.028,1.115-.032S1156.178-1044.728,1156.179-1044.715Z" transform="translate(-1153.948 1044.731)"/><g transform="translate(0.005 0.571)"><path class="e" d="M1156.186-1043.766c0,.013-.5.028-1.115.033s-1.115,0-1.115-.014.5-.028,1.115-.033S1156.186-1043.779,1156.186-1043.766Z" transform="translate(-1153.956 1043.782)"/></g><g transform="translate(0.01 1.141)"><path class="e" d="M1156.194-1042.817c0,.013-.5.028-1.115.033s-1.115,0-1.115-.014.5-.028,1.115-.032S1156.194-1042.83,1156.194-1042.817Z" transform="translate(-1153.964 1042.833)"/></g></g><g transform="translate(3.111 4.861)"><path class="e" d="M1123.906-1042.961a.326.326,0,0,1,.046,0l.129,0,.476-.011-.013.014c0-.106,0-.221-.006-.345,0-.064-.005-.125,0-.2a.182.182,0,0,1,.159-.147c.077,0,.144-.005.228,0a.185.185,0,0,1,.156.184c0,.161,0,.329.006.5l-.022-.022.6-.006-.023.024-.007-.749,0-.191a.192.192,0,0,0-.084-.142l-.263-.259-.253-.25-.123-.121c-.042-.041-.076-.083-.125-.093a.159.159,0,0,0-.138.026c-.037.031-.075.075-.112.11l-.216.218c-.135.141-.276.269-.379.391a.425.425,0,0,0-.03.224v.212l0,.341c0,.087,0,.159,0,.218s0,.078,0,.079a.563.563,0,0,1,0-.073c0-.058,0-.129-.006-.214l-.008-.344c0-.068,0-.14,0-.216l0-.119a.244.244,0,0,1,.033-.126c.111-.136.244-.257.38-.4l.214-.219c.038-.038.07-.075.116-.115a.2.2,0,0,1,.174-.034.317.317,0,0,1,.144.1l.123.121.254.25.263.258a.5.5,0,0,1,.067.073.2.2,0,0,1,.032.1v.191c0,.257,0,.507.006.749v.023h-.023l-.6,0h-.022v-.022l0-.5a.145.145,0,0,0-.121-.145c-.069,0-.151,0-.219,0a.147.147,0,0,0-.129.117c-.006.06,0,.131,0,.192v.359h-.013l-.484,0-.126,0Z" transform="translate(-1123.883 1044.828)"/></g><g transform="translate(11.252 7.839)"><path class="k" d="M1141.448-1037.862a2.013,2.013,0,0,1-2.013,2.013,2.014,2.014,0,0,1-2.014-2.013,2.014,2.014,0,0,1,2.014-2.014A2.013,2.013,0,0,1,1141.448-1037.862Z" transform="translate(-1137.421 1039.876)"/><g transform="translate(1.323 1.201)"><g transform="translate(0 0.764)"><path class="h" d="M1141-1035.748h-1.382v-.169a.691.691,0,0,1,.691-.691h0a.691.691,0,0,1,.691.691Z" transform="translate(-1139.621 1036.608)"/></g><g transform="translate(0.285)"><path class="h" d="M1140.907-1037.472a.406.406,0,0,1-.406.407.406.406,0,0,1-.406-.407.406.406,0,0,1,.406-.406A.406.406,0,0,1,1140.907-1037.472Z" transform="translate(-1140.095 1037.878)"/></g></g></g><g transform="translate(7.608 15.018)"><path class="e" d="M1142.032-1027.781a45.568,45.568,0,0,1-5.336.157,45.567,45.567,0,0,1-5.336-.157,45.717,45.717,0,0,1,5.336-.156A45.717,45.717,0,0,1,1142.032-1027.781Z" transform="translate(-1131.36 1027.937)"/></g><g transform="translate(2.019 20.478)"><g transform="translate(0 0)"><rect class="l" width="6.925" height="9.214" transform="translate(0 6.925) rotate(-89.681)"/></g><g transform="translate(0 2.639)"><path class="k" d="M1122.067-1010.184l3.242-4.287,1.979,2.7,1.36-1.432,2.633,3.066Z" transform="translate(-1122.067 1014.471)"/></g><g transform="translate(4.633 1.398)"><path class="k" d="M1131.223-1015.8a.725.725,0,0,1-.729.721.725.725,0,0,1-.722-.729.725.725,0,0,1,.73-.721A.724.724,0,0,1,1131.223-1015.8Z" transform="translate(-1129.772 1016.534)"/></g><g class="m" transform="translate(0 2.639)"><path d="M1122.067-1010.184l3.242-4.287,1.979,2.7,1.36-1.432,2.633,3.066Z" transform="translate(-1122.067 1014.471)"/></g><g class="m" transform="translate(4.633 1.398)"><path d="M1131.223-1015.8a.725.725,0,0,1-.729.721.725.725,0,0,1-.722-.729.725.725,0,0,1,.73-.721A.724.724,0,0,1,1131.223-1015.8Z" transform="translate(-1129.772 1016.534)"/></g></g><g transform="translate(1.935 29.539)"><g transform="translate(0 0)"><rect class="l" width="16.01" height="21.3" transform="matrix(0.006, -1, 1, 0.006, 0, 16.009)"/></g><g transform="translate(0 6.1)"><path class="k" d="M1121.927-983.736l7.495-9.91,4.574,6.252,3.144-3.311,6.087,7.088Z" transform="translate(-1121.927 993.646)"/></g><g transform="translate(10.712 3.231)"><path class="k" d="M1143.1-996.73a1.677,1.677,0,0,1-1.687,1.668,1.677,1.677,0,0,1-1.668-1.687,1.677,1.677,0,0,1,1.687-1.667A1.677,1.677,0,0,1,1143.1-996.73Z" transform="translate(-1139.741 998.417)"/></g><g class="m" transform="translate(0 6.1)"><path d="M1121.927-983.736l7.495-9.91,4.574,6.252,3.144-3.311,6.087,7.088Z" transform="translate(-1121.927 993.646)"/></g><g class="m" transform="translate(10.712 3.231)"><path d="M1143.1-996.73a1.677,1.677,0,0,1-1.687,1.668,1.677,1.677,0,0,1-1.668-1.687,1.677,1.677,0,0,1,1.687-1.667A1.677,1.677,0,0,1,1143.1-996.73Z" transform="translate(-1139.741 998.417)"/></g></g><g transform="translate(14.183 20.478)"><g transform="translate(0 0)"><rect class="l" width="6.925" height="9.214" transform="translate(0 6.925) rotate(-89.681)"/></g><g transform="translate(0 2.639)"><path class="k" d="M1142.295-1010.184l3.242-4.287,1.978,2.7,1.36-1.432,2.633,3.066Z" transform="translate(-1142.295 1014.471)"/></g><g transform="translate(4.634 1.398)"><path class="k" d="M1151.451-1015.8a.725.725,0,0,1-.729.721.725.725,0,0,1-.721-.729.724.724,0,0,1,.729-.721A.725.725,0,0,1,1151.451-1015.8Z" transform="translate(-1150.001 1016.534)"/></g><g class="m" transform="translate(0 2.639)"><path d="M1142.295-1010.184l3.242-4.287,1.978,2.7,1.36-1.432,2.633,3.066Z" transform="translate(-1142.295 1014.471)"/></g><g class="m" transform="translate(4.634 1.398)"><path d="M1151.451-1015.8a.725.725,0,0,1-.729.721.725.725,0,0,1-.721-.729.724.724,0,0,1,.729-.721A.725.725,0,0,1,1151.451-1015.8Z" transform="translate(-1150.001 1016.534)"/></g></g></g><g transform="translate(331.361 22.549)"><g transform="translate(0 0)"><path class="c" d="M1134.5-926.46l-1.967,0a1.5,1.5,0,0,0-.592.064.932.932,0,0,0-.469.415,1.013,1.013,0,0,0-.11.314,2.078,2.078,0,0,0-.014.348v.361a1.716,1.716,0,0,1-.023.373.993.993,0,0,1-.439.632.94.94,0,0,1-.386.136c-.14.012-.276,0-.417.006h-7.135a1.092,1.092,0,0,1-.285-.028.952.952,0,0,1-.49-.3,1.008,1.008,0,0,1-.239-.533,2.324,2.324,0,0,1-.01-.295v-.294a1.566,1.566,0,0,0-.06-.579.946.946,0,0,0-.351-.459.918.918,0,0,0-.566-.156h-4.538a3.135,3.135,0,0,0-1.323.25,3.089,3.089,0,0,0-1.1.821,3.025,3.025,0,0,0-.624,1.254c-.03.115-.039.235-.06.352-.005.1-.011.2-.014.3v48.359a3.119,3.119,0,0,0,.122.952,3,3,0,0,0,1.168,1.608,3.124,3.124,0,0,0,1.926.529h2.047l4.053,0,7.925.005,3.861,0c.637,0,1.275.01,1.9-.008a2.989,2.989,0,0,0,1.7-.658,3.189,3.189,0,0,0,.615-.68,2.97,2.97,0,0,0,.377-.829,3.131,3.131,0,0,0,.114-.9V-876q0-1.827,0-3.612c.006-9.514.01-18.083.015-25.279s.012-13.02.017-17.045q0-.755,0-1.425a3.1,3.1,0,0,0-.221-1.217,3,3,0,0,0-.569-.9,2.91,2.91,0,0,0-.685-.558,2.884,2.884,0,0,0-1.13-.4,2.594,2.594,0,0,0-.306-.028l-.1-.007s-.139,0-.412,0Z" transform="translate(-1113.287 926.468)"/></g><g transform="translate(0.03 0)"><path class="e" d="M1136.173-926.426s.035,0,.1,0a2.267,2.267,0,0,1,.306.023,2.85,2.85,0,0,1,1.134.391,2.915,2.915,0,0,1,.689.559,3.032,3.032,0,0,1,.576.9,3.136,3.136,0,0,1,.226,1.226q0,.669,0,1.425c0,4.025.005,9.849.01,17.045s0,15.765,0,25.279v4.528a3.238,3.238,0,0,1-.116.922,3.047,3.047,0,0,1-.385.852,3.265,3.265,0,0,1-.63.7,3.054,3.054,0,0,1-1.745.677c-.634.019-1.263,0-1.9.008H1130.6l-7.9,0-4.039,0h-2.04a3.193,3.193,0,0,1-1.968-.544,3.1,3.1,0,0,1-1.2-1.654,3.329,3.329,0,0,1-.126-1.022v-1.019q0-2.034,0-4.04,0-4.011,0-7.9c0-5.178,0-10.173.005-14.931s0-9.279.007-13.511q0-3.173,0-6.123,0-.368,0-.733c0-.122.01-.245.017-.366.022-.12.031-.242.062-.36a3.089,3.089,0,0,1,.636-1.28,3.15,3.15,0,0,1,1.12-.837,3.163,3.163,0,0,1,1.343-.254l2.634,0h1.888a.966.966,0,0,1,.595.167.993.993,0,0,1,.369.485,1.624,1.624,0,0,1,.061.6v.294a2.175,2.175,0,0,0,.009.288.958.958,0,0,0,.226.506.9.9,0,0,0,.462.287,1.027,1.027,0,0,0,.272.026h1.368l3.983.006,1.757,0c.138,0,.28.006.411-.005a.884.884,0,0,0,.37-.13.959.959,0,0,0,.423-.609,1.694,1.694,0,0,0,.024-.367c0-.123,0-.243,0-.361a2.032,2.032,0,0,1,.016-.352,1.017,1.017,0,0,1,.114-.324.952.952,0,0,1,.482-.426,1.51,1.51,0,0,1,.6-.064l1.96.005,1.205,0c.272,0,.411,0,.411,0s-.139,0-.411,0l-1.205,0-1.96,0a1.49,1.49,0,0,0-.59.064.928.928,0,0,0-.467.416.986.986,0,0,0-.109.314,2.012,2.012,0,0,0-.014.348v.361a1.671,1.671,0,0,1-.023.373.986.986,0,0,1-.437.631.923.923,0,0,1-.384.136c-.14.012-.275,0-.416.006h-7.108a1.087,1.087,0,0,1-.285-.028.942.942,0,0,1-.488-.3,1,1,0,0,1-.238-.532,2.1,2.1,0,0,1-.01-.295c0-.1,0-.2,0-.294a1.56,1.56,0,0,0-.059-.578.944.944,0,0,0-.35-.459.912.912,0,0,0-.564-.156h-4.521a3.114,3.114,0,0,0-1.318.25,3.088,3.088,0,0,0-1.1.821,3.028,3.028,0,0,0-.621,1.254c-.031.115-.039.235-.06.352s-.015.239-.016.36v.733q0,2.946,0,6.123c0,4.232,0,8.753,0,13.511s0,9.753,0,14.931q0,3.883,0,7.9,0,2.005,0,4.04v1.019a3.224,3.224,0,0,0,.123,1,3,3,0,0,0,1.164,1.608,3.1,3.1,0,0,0,1.919.528l2.04,0,4.039,0,7.9,0,3.848,0c.634,0,1.27.01,1.894-.008a2.975,2.975,0,0,0,1.7-.659,3.18,3.18,0,0,0,.613-.679,3.006,3.006,0,0,0,.376-.829,3.157,3.157,0,0,0,.113-.9v-.916q0-1.827,0-3.612c.005-9.514.01-18.083.014-25.279s.013-13.02.017-17.045q0-.755,0-1.425a3.107,3.107,0,0,0-.22-1.216,3.026,3.026,0,0,0-.568-.9,2.889,2.889,0,0,0-.682-.558,2.863,2.863,0,0,0-1.126-.4,2.551,2.551,0,0,0-.3-.028Z" transform="translate(-1113.336 926.468)"/><g transform="translate(21.191 4.919)"><path class="e" d="M1150.805-918.272c0,.013-.5.028-1.115.033s-1.115,0-1.115-.014.5-.028,1.115-.032S1150.805-918.285,1150.805-918.272Z" transform="translate(-1148.575 918.288)"/><g transform="translate(0.005 0.571)"><path class="e" d="M1150.813-917.323c0,.013-.5.028-1.115.033s-1.115,0-1.115-.014.5-.028,1.115-.033S1150.813-917.336,1150.813-917.323Z" transform="translate(-1148.583 917.339)"/></g><g transform="translate(0.01 1.141)"><path class="e" d="M1150.821-916.374c0,.013-.5.028-1.115.033s-1.115,0-1.115-.014.5-.028,1.115-.032S1150.821-916.387,1150.821-916.374Z" transform="translate(-1148.591 916.39)"/></g></g><g transform="translate(3.111 4.861)"><path class="e" d="M1118.533-916.518a.287.287,0,0,1,.046,0l.129,0,.476-.011-.013.013-.005-.345c0-.064-.005-.125,0-.2a.182.182,0,0,1,.16-.147c.077,0,.144,0,.227,0a.185.185,0,0,1,.156.184q0,.242.005.5l-.022-.022.6-.006-.023.023-.007-.749,0-.191a.193.193,0,0,0-.084-.142l-.263-.259-.254-.25-.123-.121c-.042-.041-.075-.083-.124-.093a.163.163,0,0,0-.138.026c-.036.031-.075.075-.112.11l-.215.218c-.135.141-.277.269-.379.391a.422.422,0,0,0-.03.224c0,.075,0,.145,0,.212,0,.13,0,.244,0,.341s0,.159,0,.218,0,.078,0,.079a.442.442,0,0,1,0-.072l-.006-.215-.008-.344,0-.216,0-.118a.25.25,0,0,1,.033-.126c.111-.136.244-.257.381-.4l.214-.219c.039-.038.07-.075.116-.115a.206.206,0,0,1,.174-.034.329.329,0,0,1,.144.1l.123.121.254.25.263.258a.533.533,0,0,1,.067.073.194.194,0,0,1,.031.1l0,.191c0,.257,0,.507.005.749v.023h-.023l-.6,0h-.022v-.022c0-.174,0-.343,0-.5a.144.144,0,0,0-.121-.146c-.069,0-.15,0-.218,0a.147.147,0,0,0-.129.117c-.006.06,0,.131,0,.192v.359h-.013l-.484,0-.126,0Z" transform="translate(-1118.509 918.385)"/></g><g transform="translate(7.608 26.56)"><path class="e" d="M1136.659-882.144a45.625,45.625,0,0,1-5.336.156,45.62,45.62,0,0,1-5.336-.156,45.571,45.571,0,0,1,5.336-.156A45.576,45.576,0,0,1,1136.659-882.144Z" transform="translate(-1125.987 882.3)"/></g><g transform="translate(6.039 12.738)"><g transform="translate(0 0)"><rect class="l" width="10.36" height="13.784" transform="translate(0 10.36) rotate(-89.681)"/></g><g transform="translate(0 3.947)"><path class="k" d="M1123.379-892.307l4.85-6.413,2.96,4.046,2.035-2.143,3.939,4.587Z" transform="translate(-1123.379 898.72)"/></g><g transform="translate(6.932 2.091)"><path class="k" d="M1137.078-900.716a1.086,1.086,0,0,1-1.091,1.079,1.086,1.086,0,0,1-1.079-1.091,1.086,1.086,0,0,1,1.091-1.079A1.086,1.086,0,0,1,1137.078-900.716Z" transform="translate(-1134.907 901.808)"/></g><g class="m" transform="translate(0 3.947)"><path d="M1123.379-892.307l4.85-6.413,2.96,4.046,2.035-2.143,3.939,4.587Z" transform="translate(-1123.379 898.72)"/></g><g class="m" transform="translate(6.932 2.091)"><path d="M1137.078-900.716a1.086,1.086,0,0,1-1.091,1.079,1.086,1.086,0,0,1-1.079-1.091,1.086,1.086,0,0,1,1.091-1.079A1.086,1.086,0,0,1,1137.078-900.716Z" transform="translate(-1134.907 901.808)"/></g></g><g transform="translate(3.509 30.373)"><path class="e" d="M1138.1-875.8c0,.087-4.236.157-9.462.157s-9.463-.07-9.463-.157,4.236-.156,9.463-.156S1138.1-875.889,1138.1-875.8Z" transform="translate(-1119.172 875.959)"/></g><g transform="translate(3.509 33.011)"><path class="e" d="M1138.1-871.416c0,.087-4.236.156-9.462.156s-9.463-.07-9.463-.156,4.236-.156,9.463-.156S1138.1-871.5,1138.1-871.416Z" transform="translate(-1119.172 871.572)"/></g><g transform="translate(3.509 35.648)"><path class="e" d="M1138.1-867.029c0,.086-4.236.156-9.462.156s-9.463-.07-9.463-.156,4.236-.157,9.463-.157S1138.1-867.116,1138.1-867.029Z" transform="translate(-1119.172 867.186)"/></g><g transform="translate(3.509 38.286)"><path class="e" d="M1138.1-862.643c0,.087-4.236.157-9.462.157s-9.463-.07-9.463-.157,4.236-.156,9.463-.156S1138.1-862.729,1138.1-862.643Z" transform="translate(-1119.172 862.799)"/></g><g transform="translate(3.509 40.924)"><path class="e" d="M1138.1-858.256c0,.087-4.236.156-9.462.156s-9.463-.07-9.463-.156,4.236-.157,9.463-.157S1138.1-858.343,1138.1-858.256Z" transform="translate(-1119.172 858.413)"/></g><g transform="translate(7.499 43.333)"><path class="e" d="M1136.671-854.251a8.058,8.058,0,0,1-1.591.111c-.983.028-2.341.046-3.84.046s-2.859-.017-3.841-.046a8.057,8.057,0,0,1-1.591-.111,8.045,8.045,0,0,1,1.591-.111c.983-.028,2.341-.046,3.841-.046s2.858.017,3.84.046A8.047,8.047,0,0,1,1136.671-854.251Z" transform="translate(-1125.807 854.407)"/></g></g></g><g transform="translate(105.825 17.851)"><g transform="translate(0.558 0.715)"><path class="g" d="M974.317-1060.409c-.087,0-.157-3.287-.157-7.341s.07-7.342.157-7.342.156,3.286.156,7.342S974.4-1060.409,974.317-1060.409Z" transform="translate(-974.16 1075.092)"/></g><g transform="translate(0 0)"><path class="g" d="M974.662-1075.566a.715.715,0,0,1-.715.715.715.715,0,0,1-.715-.715.715.715,0,0,1,.715-.715A.715.715,0,0,1,974.662-1075.566Z" transform="translate(-973.232 1076.281)"/></g><g transform="translate(0 14.482)"><path class="g" d="M974.662-1051.483a.715.715,0,0,1-.715.715.715.715,0,0,1-.715-.715.715.715,0,0,1,.715-.715A.715.715,0,0,1,974.662-1051.483Z" transform="translate(-973.232 1052.198)"/></g></g><g transform="translate(12.958)"><g transform="translate(0 10.867)"><circle class="g" cx="0.715" cy="0.715" r="0.715"/></g><g transform="translate(98.394)"><path class="g" d="M1025.939-1100.7a.317.317,0,0,1-.016-.113c0-.086-.009-.2-.016-.333-.007-.306-.017-.734-.029-1.278-.011-1.124-.029-2.726-.049-4.7-.012-3.981-.271-15.115-.289-21.165a2.686,2.686,0,0,0-.122-1.1,2.254,2.254,0,0,0-.78-.944,5.094,5.094,0,0,0-2.969-.844l-6.633-.006-11.23-.021-7.571-.031-2.059-.018h-.008l-.528-.01c-.121,0-11.217-.075-11.217-.078s11.1.062,11.217.058l.535-.01,2.059-.018,7.571-.031,11.23-.021,6.633-.006a5.5,5.5,0,0,1,3.207.909,2.441,2.441,0,0,1,.845,1.02,2.8,2.8,0,0,1,.132,1.146c-.018,6.05.209,17.184.2,21.165-.021,1.974-.038,3.577-.05,4.7-.013.544-.022.972-.03,1.278-.007.137-.011.247-.016.333A.31.31,0,0,1,1025.939-1100.7Z" transform="translate(-982.423 1131.369)"/></g><g transform="translate(141.195 29.95)"><circle class="g" cx="0.715" cy="0.715" r="0.715"/></g></g><path class="g" d="M1141.81-977.954a.715.715,0,0,1,.016.176c0,.133.01.3.016.516.007.476.017,1.141.03,1.986.007.87.016,1.923.026,3.141.01.609.051,12.151.08,12.828a3.052,3.052,0,0,0,.881,1.886,3.022,3.022,0,0,0,2.1.877l2.621-.007,5.786-.014,13.26-.013,13.263.013c2.037,0,90.423.263,92.236.267.906,0,.907.08,0,.084-1.814,0-90.2-.068-92.236-.063l-13.263.012-13.26-.012-5.786-.014-2.624-.011a3.247,3.247,0,0,1-2.25-.962,3.255,3.255,0,0,1-.924-2.026c-.023-.71-.054-12.229-.056-12.844.01-1.218.019-2.271.026-3.141.013-.845.023-1.509.029-1.986.007-.212.012-.382.016-.516A.751.751,0,0,1,1141.81-977.954Z" transform="translate(-938.185 1065.71)"/><g transform="translate(301.376 78.174)"><g transform="translate(0 0.715)"><path class="g" d="M1025.939-1131.369a.317.317,0,0,0-.016.113c0,.086-.009.2-.016.333-.007.306-.017.734-.029,1.278-.011,1.124-.029,2.726-.049,4.7-.012,3.981-.271,15.115-.289,21.165a2.686,2.686,0,0,1-.122,1.1,2.253,2.253,0,0,1-.78.944,5.094,5.094,0,0,1-2.969.844l-6.633.005-11.23.021-7.571.031-2.059.018h-.008l-.528.01c-.121,0-11.217.075-11.217.078s11.1-.062,11.217-.059l.535.01,2.059.018,7.571.031,11.23.021,6.633.006a5.5,5.5,0,0,0,3.207-.909,2.44,2.44,0,0,0,.845-1.02,2.8,2.8,0,0,0,.132-1.146c-.018-6.05.209-17.184.2-21.165-.021-1.974-.038-3.577-.05-4.7-.013-.544-.022-.972-.03-1.278-.007-.137-.011-.247-.016-.333A.31.31,0,0,0,1025.939-1131.369Z" transform="translate(-982.423 1131.369)"/></g><g transform="translate(42.801 0)"><ellipse class="g" cx="0.715" cy="0.715" rx="0.715" ry="0.715"/></g></g><circle class="g" cx="0.715" cy="0.715" r="0.715" transform="translate(203.019 87.19)"/><g transform="translate(206.573 87.19)"><path class="g" d="M1140.77-960.258a.715.715,0,0,1,.715-.715.716.716,0,0,1,.715.715.715.715,0,0,1-.715.715A.715.715,0,0,1,1140.77-960.258Z" transform="translate(-1140.77 960.973)"/><path class="g" d="M1140.77-960.258a.715.715,0,0,1,.715-.715.716.716,0,0,1,.715.715.715.715,0,0,1-.715.715A.715.715,0,0,1,1140.77-960.258Z" transform="translate(-1091.46 960.973)"/></g></g><g transform="translate(1122 2472.094)"><line class="b" x1="37.786" transform="translate(2.38 1.538)"/><path class="a" d="M227.886-173.179s0-17.557-19.62-17.557-19.62,17.557-19.62,17.557" transform="translate(-186.993 192.189)"/><circle class="b" cx="1.653" cy="1.653" r="1.653" transform="translate(39.239 17.357)"/><path class="b" d="M186.631-169.694a1.653,1.653,0,0,1,1.653-1.654,1.653,1.653,0,0,1,1.653,1.654,1.653,1.653,0,0,1-1.653,1.653A1.653,1.653,0,0,1,186.631-169.694Z" transform="translate(-186.631 188.705)"/><g transform="translate(0.2 0)"><rect class="b" width="2.907" height="2.907" transform="translate(42.146 2.907) rotate(180)"/><rect class="b" width="2.907" height="2.907" transform="translate(22.527 2.907) rotate(180)"/><rect class="b" width="2.907" height="2.907" transform="translate(2.907 2.907) rotate(180)"/></g></g><g transform="translate(1608.421 2491.781)"><rect class="a" width="35.469" height="35.469" transform="translate(0 0)"/><line class="b" x2="35.469" y2="35.469" transform="translate(0 0)"/><line class="b" x1="35.469" y2="35.469" transform="translate(0 0)"/></g></g></svg>