<svg xmlns="http://www.w3.org/2000/svg" width="316.496" height="186.845" viewBox="0 0 316.496 186.845"><defs><style>.a,.b,.f,.h{fill:none;}.a{stroke:#c0c4c8;stroke-width:1.5px;}.b{stroke:#b2b2b2;stroke-miterlimit:10;stroke-width:2px;}.c{fill:#fdab70;}.d{fill:#42210b;}.e{fill:#49230d;}.f,.g,.h{stroke:#707070;}.g{fill:#111;}.h{stroke-dasharray:2 1;}</style></defs><g transform="translate(-317.989 -2191.961)"><g transform="translate(318.739 2193)"><path class="a" d="M41.669-69.872A3.342,3.342,0,0,0,38.32-66.5v16.232a3.336,3.336,0,0,0,3.349,3.339,3.336,3.336,0,0,0,3.349-3.339V-66.5A3.342,3.342,0,0,0,41.669-69.872Z" transform="translate(-38.32 97.395)"/><path class="a" d="M47.121-69.872A3.359,3.359,0,0,0,43.782-66.5v16.232a3.353,3.353,0,0,0,3.339,3.339,3.382,3.382,0,0,0,3.387-3.339V-66.5A3.388,3.388,0,0,0,47.121-69.872Z" transform="translate(8.928 97.395)"/><path class="a" d="M39.328-69.872v30.1a5.039,5.039,0,0,0,5.037,5.057H49.75v8.531a3.346,3.346,0,0,0,3.368,3.339,3.34,3.34,0,0,0,3.368-3.339v-8.531h5.723v8.531a3.348,3.348,0,0,0,3.378,3.339,3.324,3.324,0,0,0,3.349-3.339v-8.531h5.414a5.049,5.049,0,0,0,5.028-5.057V-69.727l-.019-.145Z" transform="translate(-29.601 97.395)"/><path class="a" d="M69.007-65.621l3.58-6.678-.733-.425L68.254-66a19.533,19.533,0,0,0-9.013-2.162,19.978,19.978,0,0,0-8.666,1.949L47.12-72.724l-.733.425,3.474,6.466A19.93,19.93,0,0,0,39.342-48.415H79.1A19.959,19.959,0,0,0,69.007-65.621ZM48.973-56.077a1.893,1.893,0,0,1-1.891-1.911,1.894,1.894,0,0,1,1.891-1.891,1.9,1.9,0,0,1,1.9,1.891A1.9,1.9,0,0,1,48.973-56.077Zm20.169,0a1.891,1.891,0,0,1-1.882-1.911,1.893,1.893,0,0,1,1.882-1.891A1.87,1.87,0,0,1,71-57.988,1.869,1.869,0,0,1,69.142-56.077Z" transform="translate(-29.479 72.724)"/></g><g transform="translate(572.987 2193)"><path class="b" d="M53-28.367a27.707,27.707,0,0,1,1.535-9.291,20.011,20.011,0,0,1,4.247-7.018,18.228,18.228,0,0,1,7.391-4.8,18.49,18.49,0,0,1,4.259-.882,16.4,16.4,0,0,1,7.426,1.348c1.329.505,2.642,1.057,4,1.5a6.035,6.035,0,0,0,3.991-.085c1.927-.672,3.789-1.519,5.739-2.122a17.033,17.033,0,0,1,4.869-.9,19.161,19.161,0,0,1,8.269,1.648,16.38,16.38,0,0,1,5.4,3.89,16.736,16.736,0,0,1,1.337,1.667c.109.152.117.225-.062.338a16.726,16.726,0,0,0-3.221,2.646,16.139,16.139,0,0,0-4.352,8.3,16.444,16.444,0,0,0-.159,4.822,15.928,15.928,0,0,0,1.741,5.829,16.6,16.6,0,0,0,5.817,6.221,13.511,13.511,0,0,0,1.993,1.076c.288.124.311.272.221.528-.459,1.341-.964,2.658-1.55,3.948a40.3,40.3,0,0,1-3.338,6.023A36.178,36.178,0,0,1,103.2,3,9.773,9.773,0,0,1,98.442,5.53a10.062,10.062,0,0,1-5-.385c-1.158-.369-2.25-.9-3.365-1.364a14.235,14.235,0,0,0-6.493-1.018A15.967,15.967,0,0,0,78.227,4.2a19.747,19.747,0,0,1-4.061,1.4,7.943,7.943,0,0,1-6.015-1.111A17.294,17.294,0,0,1,64.4,1.1a53.062,53.062,0,0,1-4.08-5.506,43.971,43.971,0,0,1-4.442-8.926,47.025,47.025,0,0,1-1.993-6.878c-.272-1.321-.494-2.65-.637-3.991A40.908,40.908,0,0,1,53-28.367Z" transform="translate(-53 68.561)"/><path class="b" d="M60.744-39.582a14.349,14.349,0,0,1,1.562-6.252,16.589,16.589,0,0,1,3.816-5.145,17.766,17.766,0,0,1,5.561-3.373,14.963,14.963,0,0,1,3.676-.878c.288-.031.393.058.412.354a16.192,16.192,0,0,1-3.151,10.5A15.257,15.257,0,0,1,66.4-39.186,11.4,11.4,0,0,1,62.166-38.1a5.9,5.9,0,0,1-1.111,0c-.171-.023-.225-.066-.249-.241A10.247,10.247,0,0,1,60.744-39.582Z" transform="translate(-30.652 55.237)"/></g><g transform="translate(423.971 2258.277)"><path class="c" d="M-1021.256-213.669a19.583,19.583,0,0,0,7.7,1.659,23.923,23.923,0,0,0,8.367-1.783h0c-2.58-.661-2.259-5.6-2.215-8.267l-2.051-.982-7.363.348-1.131,3.91c-.056,2.138-.463,4.273-2.514,4.879Z" transform="translate(1062.162 249.948)"/><path class="c" d="M-1009.387-312.487a72.677,72.677,0,0,1-.445,9.435c-.725,4.3-5.527,7.284-9.317,7.284a9.256,9.256,0,0,1-8.994-7.284,71.248,71.248,0,0,1-.548-8.882c0-8.743,3.915-10.731,9.542-10.731S-1010.2-322.8-1009.387-312.487Z" transform="translate(1067.766 325.024)"/><g transform="translate(33.206 0)"><path class="d" d="M-1050.511-313.542h-.434c-3.77-3.978-.133-15.746,4.637-14.616,1.16-3.963,5.766-4.29,8.615-2.939.5-1.854,6.653-1.5,7.513,1.4,1.681-3.112,8.521,5.765,5.234,8.521,2.45-1.533,2.522,2.222,2.153,4.2l-.951-.072c-.415,2.253-3.732,4.319-5.641,2.743-.232,3.43-5.447,3.663-7.456,2.01,0,3.314-9,2.129-9.822-.831A2.788,2.788,0,0,1-1050.511-313.542Z" transform="translate(1052.508 332.242)"/><path class="d" d="M-1014.925-230.256c-.088.248-.171.5-.255.746-.236.563-.483,1.1-.742,1.634a1.915,1.915,0,0,1-1.179.521c-.536,0-1.035-.372-1.381-1.316-.179,2.309-3.553,3.019-4.085.532-.89,3.2-7.634,3.907-7.1-.355a2.925,2.925,0,0,1-4.135-.12,3,3,0,0,1-.8-1.558c-.011-.091-.027-.183-.031-.275a2.116,2.116,0,0,1,.053-.385c0-.013.008-.035.008-.055s-.008-.031-.008-.044c-.141-.482-.278-.963-.4-1.463a2.967,2.967,0,0,0,3.184-.185c1.065,2.607,5.915,2.607,7.931,1.188,1.659,1.653,4.972,2.243,6.5,0a2.137,2.137,0,0,0,2.617.76c-.046.125-.087.255-.137.375h-.042Z" transform="translate(1039.301 257.134)"/><path class="e" d="M-1023.274-267.852c1.91,1.577,5.227-.49,5.641-2.743l.951.072a5.055,5.055,0,0,1-.2.772,10.255,10.255,0,0,1-1.563,2.466c-.114.461-.205.93-.316,1.391-.4,1.883-.837,3.743-2.56,5.2l-.023-.007c-.156.475-.319.95-.495,1.42h-.008a2.137,2.137,0,0,1-2.617-.76c-1.533,2.243-4.846,1.653-6.5,0-2.016,1.419-6.866,1.419-7.931-1.188a2.967,2.967,0,0,1-3.184.185c-.141-.548-.259-1.093-.369-1.656-1.495-.654-1.3-2.357-1.681-3.707v-.006a2.937,2.937,0,0,0-.27-.673,2.788,2.788,0,0,0,3.849.412c.822,2.96,9.822,4.145,9.822.831C-1028.721-264.189-1023.506-264.422-1023.274-267.852Z" transform="translate(1046.399 285.784)"/></g><g transform="translate(0 35.013)"><path class="f" d="M-1114.054-146.3c.185,3.363,1.068,6.724,1.438,10.082.63,4.65,4.9,36.788,5.1,39.815l-.624.02c-1.918.951-5.328.79-7.67,1.1-4.692.474-9.171.8-13.848,1.117a151.02,151.02,0,0,1-25.375-.643c-2.554-.313-7.232-.474-9.589-1.578-2.123-1.117-1.917-2.379-1.917-4.444-.206-4.6,2.554-24.918,2.993-30.629.637-4.916,2.014-11.341,3.2-16.5l-.028-.013a26.027,26.027,0,0,0-2.965,4.136,99.13,99.13,0,0,0-5.321,13.492c-2.513,8.725-4.472,25.361-4.281,31.725-4.76-.007-9.513-.158-14.259-.311-.431-8.093.959-16.5,2.877-24.436,2.561-10.627,6.28-20.308,13.1-29.991,5.733-8.1,13.506-15.051,21.793-21.764,2.24.77,5.856.745,7.828.982a41.417,41.417,0,0,0,8.1,0c2.274-.125,4.329-.714,6.589-1.048a3.757,3.757,0,0,1,.384-.048c12.04,8,20.827,20.04,25.84,31.246,3.835,8.572,7.253,17.136,8.527,26.016.644,3.809,1.5,7.458,1.925,11.112a73.323,73.323,0,0,1,1.054,8.569l.027.112c-4.54.543-10.4-.4-15.574-.273.1-1.665,0-8.179,0-9.92a87.822,87.822,0,0,0-2.356-14.671C-1108.883-130.939-1111.616-138.565-1114.054-146.3Z" transform="translate(1187.278 178.903)"/><path class="g" d="M-1014.465-187.549l.008.011c.618.459,1.213.929,1.769,1.388-2.517.358-4.805.99-7.337,1.124a47.9,47.9,0,0,1-9.022,0c-2.2-.254-6.224-.227-8.718-1.053.717-.56,1.442-1.109,2.166-1.673,1.259-.692,2.181-1.738,3.7-2.209l.076-.169c4.386.929,10.052.743,12.516-.011v.011A14.212,14.212,0,0,1-1014.465-187.549Z" transform="translate(1074.604 189.14)"/></g></g><line class="h" x1="55.596" y1="27.12" transform="translate(392.979 2244.867)"/><line class="h" y1="27.12" x2="55.596" transform="translate(501.458 2244.867)"/></g></svg>