<svg xmlns="http://www.w3.org/2000/svg" width="296.613" height="126.833" viewBox="0 0 296.613 126.833"><defs><style>.a,.c,.d{fill:none;}.a,.b,.c{stroke:#848484;}.a,.c{stroke-miterlimit:10;}.a{stroke-width:0.974px;}.b,.f{fill:#848484;}.c{stroke-width:1.024px;}.e{fill:#404040;}.g{fill:#e42223;}</style></defs><g transform="translate(-319.372 -2753.382)"><g transform="translate(381.935 2753.869)"><g transform="translate(0)"><g transform="translate(0 0)"><rect class="a" width="196.005" height="16.083" rx="8.041" transform="translate(37.491)"/><ellipse class="a" cx="8.041" cy="8.041" rx="8.041" ry="8.041"/><ellipse class="a" cx="8.041" cy="8.041" rx="8.041" ry="8.041" transform="translate(18.745)"/></g></g><path class="b" d="M-366.633-1377.794l-3.889,3.852,3.889,3.926.741-.741-3.148-3.185,3.148-3.111Z" transform="translate(376.456 1382.173)"/><path class="b" d="M-331.993-1370.016l3.889-3.852-3.889-3.926-.741.741,3.148,3.185-3.148,3.111Z" transform="translate(357.621 1382.173)"/><path class="b" d="M-292.286-1370.7l-2.478-2.449a3.157,3.157,0,0,0,.531-1.758,3.251,3.251,0,0,0-3.24-3.206,3.276,3.276,0,0,0-2.282.929,3.165,3.165,0,0,0-.938,2.257,3.249,3.249,0,0,0,3.24,3.206h.013a3.243,3.243,0,0,0,1.776-.534l2.477,2.449Zm-2.912-4.208a2.215,2.215,0,0,1-.656,1.577,2.274,2.274,0,0,1-1.59.651h-.01a2.28,2.28,0,0,1-2.275-2.248,2.214,2.214,0,0,1,.656-1.577,2.266,2.266,0,0,1,1.6-.651A2.281,2.281,0,0,1-295.2-1374.912Z" transform="translate(342.636 1382.359)"/><rect class="c" width="50.922" height="49.365" rx="15.112" transform="translate(34.334 43.471)"/><rect class="c" width="50.922" height="49.365" rx="15.112" transform="translate(91.533 43.471)"/><rect class="c" width="50.922" height="49.365" rx="15.112" transform="translate(148.732 43.471)"/><rect class="a" width="233.564" height="99.006" rx="2.124" transform="translate(0 26.854)"/><path class="d" d="M-292.286-1370.7l-2.478-2.449a3.157,3.157,0,0,0,.531-1.758,3.251,3.251,0,0,0-3.24-3.206,3.276,3.276,0,0,0-2.282.929,3.165,3.165,0,0,0-.938,2.257,3.249,3.249,0,0,0,3.24,3.206h.013a3.243,3.243,0,0,0,1.776-.534l2.477,2.449Zm-2.912-4.208a2.215,2.215,0,0,1-.656,1.577,2.274,2.274,0,0,1-1.59.651h-.01a2.28,2.28,0,0,1-2.275-2.248,2.214,2.214,0,0,1,.656-1.577,2.266,2.266,0,0,1,1.6-.651A2.281,2.281,0,0,1-295.2-1374.912Z" transform="translate(342.636 1382.359)"/><g transform="translate(216.151 33.489)"><g transform="translate(2.997 1.51)"><path class="e" d="M181.88,50.115a.152.152,0,1,0,.152.152A.152.152,0,0,0,181.88,50.115Z" transform="translate(-176.509 -50.115)"/><path class="e" d="M157.748,50.267a.152.152,0,1,0-.152.152A.152.152,0,0,0,157.748,50.267Z" transform="translate(-157.444 -50.115)"/><path class="e" d="M157.444,50.267a.152.152,0,1,1,.152.152A.152.152,0,0,1,157.444,50.267Z" transform="translate(-157.444 -50.115)"/><path class="e" d="M181.88,50.418a.152.152,0,1,1,.152-.152A.152.152,0,0,1,181.88,50.418Z" transform="translate(-176.509 -50.115)"/></g><path class="e" d="M154.276,43.288a.215.215,0,0,0-.214-.2H144.45a.215.215,0,0,0-.214.2L143.5,53.427a.215.215,0,0,0,.214.231H154.8a.215.215,0,0,0,.214-.231Zm-9.936,9.694h-.215v-.215h.215Zm.431,0h-.215v-.215h.215Zm.431,0h-.215v-.215h.215Zm.431,0h-.215v-.215h.215Zm.431,0h-.215v-.215h.215Zm.431,0h-.215v-.215h.215Zm.431,0h-.215v-.215h.215Zm.431,0h-.215v-.215h.215Zm.431,0h-.215v-.215h.215Zm.431,0h-.215v-.215h.215Zm.431,0h-.215v-.215h.215Zm.431,0h-.215v-.215h.215Zm.431,0H149.3v-.215h.215Zm.431,0h-.215v-.215h.215Zm.431,0h-.215v-.215h.215Zm.431,0h-.215v-.215h.215Zm.431,0h-.215v-.215h.215Zm.431,0h-.215v-.215h.215Zm.431,0h-.215v-.215h.215Zm-.023-7.693v1.677a2.853,2.853,0,1,1-5.649,0V45.29a.582.582,0,1,1,.43,0v1.677a2.428,2.428,0,1,0,4.789,0V45.29a.582.582,0,1,1,.43,0Zm.454,7.693h-.215v-.215h.215Zm.431,0h-.215v-.215h.215Zm.431,0h-.215v-.215h.215Zm.431,0h-.215v-.215h.215Zm.431,0h-.215v-.215h.215Z" transform="translate(-143.497 -43.089)"/></g></g><g transform="translate(319.372 2816.799)"><g transform="translate(0.933 22.073)"><path class="f" d="M-70.877-1500.488h-49.56a.78.78,0,0,1-.78-.78.78.78,0,0,1,.78-.78h49.56a.78.78,0,0,1,.779.78A.78.78,0,0,1-70.877-1500.488Z" transform="translate(121.217 1502.048)"/><g transform="translate(2.308 6.587)"><path class="f" d="M-72.49-1491.783h-44.9a.779.779,0,0,1-.779-.779.779.779,0,0,1,.779-.78h44.9a.78.78,0,0,1,.78.78A.78.78,0,0,1-72.49-1491.783Z" transform="translate(118.166 1493.342)"/></g><g transform="translate(4.615 13.178)"><path class="f" d="M-74.1-1483.072h-40.24a.779.779,0,0,1-.779-.779.78.78,0,0,1,.779-.78H-74.1a.781.781,0,0,1,.78.78A.78.78,0,0,1-74.1-1483.072Z" transform="translate(115.117 1484.631)"/></g></g><g transform="translate(9.472 15.483)"><g transform="translate(0 0.002)"><path class="f" d="M-103.4-1483.369l-5.5-26.355Z" transform="translate(109.68 1510.503)"/><path class="f" d="M-103.653-1482.84a.78.78,0,0,1-.762-.621l-5.5-26.355a.779.779,0,0,1,.6-.922.788.788,0,0,1,.922.6l5.5,26.355a.78.78,0,0,1-.6.922A.823.823,0,0,1-103.653-1482.84Z" transform="translate(109.931 1510.754)"/></g><g transform="translate(10.844 0.001)"><path class="f" d="M-92.8-1483.369l-1.771-26.355Z" transform="translate(95.348 1510.505)"/><path class="f" d="M-93.05-1482.84a.779.779,0,0,1-.776-.728l-1.771-26.355a.779.779,0,0,1,.726-.83.781.781,0,0,1,.829.726l1.771,26.355a.779.779,0,0,1-.725.83Z" transform="translate(95.598 1510.756)"/></g><g transform="translate(19.732 0.002)"><path class="f" d="M-82.821-1483.369l1.955-26.355Z" transform="translate(83.601 1510.504)"/><path class="f" d="M-83.071-1482.84l-.059,0a.78.78,0,0,1-.72-.835l1.955-26.356a.79.79,0,0,1,.835-.72.78.78,0,0,1,.72.835l-1.956,26.355A.78.78,0,0,1-83.071-1482.84Z" transform="translate(83.852 1510.755)"/></g><g transform="translate(26.843)"><path class="f" d="M-73.423-1483.369l5.686-26.355Z" transform="translate(74.203 1510.506)"/><path class="f" d="M-73.673-1482.841a.812.812,0,0,1-.165-.018.781.781,0,0,1-.6-.927l5.686-26.355a.777.777,0,0,1,.927-.6.782.782,0,0,1,.6.927l-5.687,26.355A.781.781,0,0,1-73.673-1482.841Z" transform="translate(74.454 1510.757)"/></g></g><g transform="translate(7.854 1.251)"><path class="f" d="M-70.186-1477.406H-106.34a5.737,5.737,0,0,1-5.73-5.731v-.114a5.736,5.736,0,0,1,5.73-5.728h25.678a6.8,6.8,0,0,0,5.883-4.146l11.166-31.261a8.367,8.367,0,0,1,7.349-5.182H-48.3a.78.78,0,0,1,.78.78.781.781,0,0,1-.78.78h-7.963a6.8,6.8,0,0,0-5.881,4.146L-73.311-1492.6a8.372,8.372,0,0,1-7.351,5.182H-106.34a4.173,4.173,0,0,0-4.17,4.168v.114a4.175,4.175,0,0,0,4.17,4.171h36.154a.78.78,0,0,1,.78.779A.78.78,0,0,1-70.186-1477.406Z" transform="translate(112.07 1529.567)"/></g><g transform="translate(18.747 54.779)"><path class="f" d="M-93.658-1457.346a2.542,2.542,0,0,1,2.538,2.54,2.542,2.542,0,0,1-2.538,2.539,2.542,2.542,0,0,1-2.539-2.539,2.542,2.542,0,0,1,2.539-2.54Zm0-1.475a4.015,4.015,0,0,0-4.015,4.015,4.014,4.014,0,0,0,4.015,4.015,4.012,4.012,0,0,0,4.014-4.015,4.014,4.014,0,0,0-4.014-4.015Z" transform="translate(97.673 1458.821)"/></g><g transform="translate(35.147 54.779)"><path class="f" d="M-71.982-1457.346a2.542,2.542,0,0,1,2.538,2.54,2.542,2.542,0,0,1-2.538,2.539,2.543,2.543,0,0,1-2.541-2.539,2.544,2.544,0,0,1,2.541-2.54Zm0-1.475A4.016,4.016,0,0,0-76-1454.806a4.014,4.014,0,0,0,4.016,4.015,4.015,4.015,0,0,0,4.014-4.015,4.016,4.016,0,0,0-4.014-4.015Z" transform="translate(75.998 1458.821)"/></g><g transform="translate(0 15.484)"><path class="f" d="M-82.323-1482.84h-26.543a8.309,8.309,0,0,1-7.323-5.2l-5.952-17.005a4.307,4.307,0,0,1,.4-4.008,4.3,4.3,0,0,1,3.654-1.7h49.266a.78.78,0,0,1,.78.78.78.78,0,0,1-.78.78H-118.09a2.8,2.8,0,0,0-2.382,1.045,2.8,2.8,0,0,0-.2,2.59l5.953,17.006a6.732,6.732,0,0,0,5.85,4.154h26.543a.78.78,0,0,1,.78.78A.78.78,0,0,1-82.323-1482.84Z" transform="translate(122.45 1510.756)"/></g><path class="g" d="M-28.9-1529.364c0,1.027-1.251,1.86-2.8,1.86H-38.03c-1.547,0-2.8-.833-2.8-1.86h0c0-1.024,1.251-1.857,2.8-1.857H-31.7c1.547,0,2.8.833,2.8,1.857Z" transform="translate(102.585 1531.221)"/></g></g></svg>