<svg xmlns="http://www.w3.org/2000/svg" xmlns:xlink="http://www.w3.org/1999/xlink" width="984.646" height="507.041" viewBox="0 0 984.646 507.041"><defs><style>.a,.e,.k,.n,.o,.q,.r{fill:none;}.b,.p,.w{fill:#fff;}.b,.p{font-size:10px;}.b{font-family:Montserrat-SemiBold, Montserrat;font-weight:600;}.c,.m{fill:#e42223;}.d,.f{fill:#a6ce39;}.d,.g,.j{font-size:8px;}.d,.g,.j,.m,.p{font-family:Montserrat-Regular, Montserrat;}.e{stroke:#a6ce39;}.e,.h,.k,.n,.q,.r{stroke-linecap:round;stroke-linejoin:round;stroke-width:4px;}.g,.h,.i{fill:#848484;}.h,.r{stroke:#848484;}.h{stroke-dasharray:2 5;}.j,.l{fill:#c0c4c8;}.k{stroke:#c0c4c8;}.m{font-size:7px;}.n,.o,.q{stroke:#e42223;}.q,.r{stroke-dasharray:4 6;}.s{fill:#f4be9a;}.t{fill:#fcc9a7;}.u{clip-path:url(#g);}.v{fill:#1c2226;}.x{fill:#2d1a0e;}.y{fill:#402615;}.z{stroke:none;}.aa{filter:url(#e);}.ab{filter:url(#c);}.ac{filter:url(#a);}</style><filter id="a" x="424.463" y="308.049" width="223.039" height="62.299" filterUnits="userSpaceOnUse"><feOffset input="SourceAlpha"/><feGaussianBlur stdDeviation="3" result="b"/><feFlood flood-opacity="0.161"/><feComposite operator="in" in2="b"/><feComposite in="SourceGraphic"/></filter><filter id="c" x="424.463" y="372.295" width="223.039" height="62.299" filterUnits="userSpaceOnUse"><feOffset input="SourceAlpha"/><feGaussianBlur stdDeviation="3" result="d"/><feFlood flood-opacity="0.161"/><feComposite operator="in" in2="d"/><feComposite in="SourceGraphic"/></filter><filter id="e" x="424.463" y="444.742" width="223.039" height="62.299" filterUnits="userSpaceOnUse"><feOffset input="SourceAlpha"/><feGaussianBlur stdDeviation="3" result="f"/><feFlood flood-opacity="0.161"/><feComposite operator="in" in2="f"/><feComposite in="SourceGraphic"/></filter><clipPath id="g"><path class="a" d="M185.391,143.3a11.724,11.724,0,1,0,13.558-9.547A11.722,11.722,0,0,0,185.391,143.3Z" transform="translate(-185.216 -133.575)"/></clipPath></defs><g transform="translate(-436 -1521.471)"><text class="b" transform="translate(634.556 1659.934)"><tspan x="-46.955" y="0">HOME OPERATOR</tspan></text><text class="b" transform="translate(1183.948 1799.482)"><tspan x="-56.09" y="0">VISITED OPERATOR A</tspan></text><text class="b" transform="translate(1190.73 1648.979)"><tspan x="-41.33" y="0">MOBILE USER A</tspan></text><text class="b" transform="translate(1363.646 1799.482)"><tspan x="-56.15" y="0">VISITED OPERATOR B</tspan></text><g transform="translate(1357.301 1666.441)"><g transform="translate(5.935 30.104)"><path class="c" d="M138.849,249.28a.85.85,0,0,1-.846-.929l6.488-67.137a.859.859,0,0,1,.093-.314l7.845-14.936a.849.849,0,0,1,1.5,0l7.845,14.936a.861.861,0,0,1,.095.314l6.487,67.137a.849.849,0,0,1-1.565.53l-9.708-15.592h-7.808l-9.708,15.592A.848.848,0,0,1,138.849,249.28Zm7.316-67.738-6.124,63.368,8.045-12.919a.847.847,0,0,1,.719-.4h8.75a.852.852,0,0,1,.721.4l8.044,12.919L160.2,181.542l-7.017-13.358Z" transform="translate(-138 -165.511)"/><g transform="translate(4.972 14.936)"><path class="c" d="M160.675,192.222H141.952a.85.85,0,0,1-.572-1.477l8.672-7.908-7.118-6.49-.048-.046a.849.849,0,0,1,.582-1.467h15.69a.848.848,0,0,1,.572,1.475l-7.158,6.528,8.675,7.908a.85.85,0,0,1-.572,1.477Zm-16.533-1.7h14.341l-7.171-6.538Zm1.512-13.994,5.658,5.159,5.655-5.159Z" transform="translate(-141.103 -174.834)"/></g><g transform="translate(3.523 30.626)"><path class="c" d="M162.667,202.016H141.047a.849.849,0,0,1-.525-1.515l9.966-7.869-8.172-6.451-.051-.043a.849.849,0,0,1,.533-1.509h18.119a.849.849,0,0,1,.527,1.515l-8.218,6.488,9.969,7.869a.849.849,0,0,1-.527,1.515Zm-19.176-1.7h16.731l-8.366-6.605Zm1.746-13.992,6.62,5.224,6.616-5.224Z" transform="translate(-140.199 -184.628)"/></g><g transform="translate(1.545 46.316)"><path class="c" d="M164.928,215.884H139.813a.849.849,0,0,1-.545-1.5l11.892-9.958-9.937-8.462a.622.622,0,0,1-.058-.054.849.849,0,0,1,.558-1.488h21.688a.849.849,0,0,1,.545,1.5l-10.166,8.515,11.688,9.953a.848.848,0,0,1-.55,1.495Zm-22.779-1.7h20.474l-10.152-8.644Zm1.874-18.066,8.455,7.2,8.6-7.2Z" transform="translate(-138.964 -194.422)"/></g></g><g transform="translate(0 0)"><g transform="translate(16.137 16.444)"><ellipse class="c" cx="4.979" cy="4.979" rx="4.979" ry="4.979"/></g><g transform="translate(11.089 11.089)"><path class="c" d="M161.271,163.669c0-7.145-7.51-12.568-15.051-8.789a8.518,8.518,0,0,0-3.806,3.848,10.173,10.173,0,0,0,3.723,13.563.7.7,0,0,0,.955-.253h0a.7.7,0,0,0-.255-.947,8.766,8.766,0,0,1-3.177-11.717,7.366,7.366,0,0,1,3.382-3.335,8.672,8.672,0,0,1,8.609,15.053.7.7,0,0,0-.253.947h0a.691.691,0,0,0,.95.255A10.026,10.026,0,0,0,161.271,163.669Z" transform="translate(-141.217 -153.642)"/></g><g transform="translate(4.843 4.842)"><path class="c" d="M169.864,166.017a16.273,16.273,0,1,0-24.506,14.029.7.7,0,0,0,.958-.251h0a.692.692,0,0,0-.245-.944,14.882,14.882,0,1,1,15.043,0,.692.692,0,0,0-.248.944h0a.7.7,0,0,0,.961.252A16.277,16.277,0,0,0,169.864,166.017Z" transform="translate(-137.318 -149.743)"/></g><path class="c" d="M176.527,167.836a21.116,21.116,0,1,0-31.776,18.221.7.7,0,0,0,.963-.248h0a.692.692,0,0,0-.245-.944,19.726,19.726,0,1,1,19.886,0,.694.694,0,0,0-.247.945h0a.7.7,0,0,0,.963.248A21.126,21.126,0,0,0,176.527,167.836Z" transform="translate(-134.295 -146.72)"/></g></g><g transform="translate(438 1875.857)"><g transform="translate(0 0)"><text class="d" transform="translate(55.988 11.797)"><tspan x="0" y="0">Roaming Services</tspan></text><path class="e" d="M4736.868,8327.73h31.285" transform="translate(-4736.868 -8318.554)"/><path class="f" d="M7.375,3.726a2,2,0,0,1,3.6,0l5.988,12.389a2,2,0,0,1-1.8,2.87H3.188a2,2,0,0,1-1.8-2.87Z" transform="translate(36.906) rotate(90)"/></g><g transform="translate(0 37.337)"><text class="g" transform="translate(55.988 11.797)"><tspan x="0" y="0">Traffic flow</tspan></text><path class="h" d="M4736.868,8327.73h31.285" transform="translate(-4736.868 -8318.554)"/><path class="i" d="M7.375,3.726a2,2,0,0,1,3.6,0l5.988,12.389a2,2,0,0,1-1.8,2.87H3.188a2,2,0,0,1-1.8-2.87Z" transform="translate(36.906) rotate(90)"/></g><g transform="translate(0 74.675)"><text class="j" transform="translate(55.987 11.164)"><tspan x="0" y="0">Revenue flow</tspan></text><path class="k" d="M4736.869,8327.73h31.285" transform="translate(-4736.869 -8318.554)"/><path class="l" d="M7.375,3.726a2,2,0,0,1,3.6,0l5.988,12.389a2,2,0,0,1-1.8,2.87H3.188a2,2,0,0,1-1.8-2.87Z" transform="translate(36.905) rotate(90)"/></g><g transform="translate(0 112.012)"><text class="m" transform="translate(55.988 10.164)"><tspan x="0" y="0">Data exchange</tspan></text><path class="n" d="M4736.868,8327.73h31.285" transform="translate(-4736.868 -8318.554)"/><path class="c" d="M7.375,3.726a2,2,0,0,1,3.6,0l5.988,12.389a2,2,0,0,1-1.8,2.87H3.188a2,2,0,0,1-1.8-2.87Z" transform="translate(36.906) rotate(90)"/></g></g><g transform="translate(1181.14 1668.973)"><g transform="translate(5.935 30.104)"><path class="c" d="M138.849,249.28a.85.85,0,0,1-.846-.929l6.488-67.137a.859.859,0,0,1,.093-.314l7.845-14.936a.849.849,0,0,1,1.5,0l7.845,14.936a.861.861,0,0,1,.095.314l6.487,67.137a.849.849,0,0,1-1.565.53l-9.708-15.592h-7.808l-9.708,15.592A.848.848,0,0,1,138.849,249.28Zm7.316-67.738-6.124,63.368,8.045-12.919a.847.847,0,0,1,.719-.4h8.75a.852.852,0,0,1,.721.4l8.044,12.919L160.2,181.542l-7.017-13.358Z" transform="translate(-138 -165.511)"/><g transform="translate(4.972 14.936)"><path class="c" d="M160.675,192.222H141.952a.85.85,0,0,1-.572-1.477l8.672-7.908-7.118-6.49-.048-.046a.849.849,0,0,1,.582-1.467h15.69a.848.848,0,0,1,.572,1.475l-7.158,6.528,8.675,7.908a.85.85,0,0,1-.572,1.477Zm-16.533-1.7h14.341l-7.171-6.538Zm1.512-13.994,5.658,5.159,5.655-5.159Z" transform="translate(-141.103 -174.834)"/></g><g transform="translate(3.523 30.626)"><path class="c" d="M162.667,202.016H141.047a.849.849,0,0,1-.525-1.515l9.966-7.869-8.172-6.451-.051-.043a.849.849,0,0,1,.533-1.509h18.119a.849.849,0,0,1,.527,1.515l-8.218,6.488,9.969,7.869a.849.849,0,0,1-.527,1.515Zm-19.176-1.7h16.731l-8.366-6.605Zm1.746-13.992,6.62,5.224,6.616-5.224Z" transform="translate(-140.199 -184.628)"/></g><g transform="translate(1.545 46.316)"><path class="c" d="M164.928,215.884H139.813a.849.849,0,0,1-.545-1.5l11.892-9.958-9.937-8.462a.622.622,0,0,1-.058-.054.849.849,0,0,1,.558-1.488h21.688a.849.849,0,0,1,.545,1.5l-10.166,8.515,11.688,9.953a.848.848,0,0,1-.55,1.495Zm-22.779-1.7h20.474l-10.152-8.644Zm1.874-18.066,8.455,7.2,8.6-7.2Z" transform="translate(-138.964 -194.422)"/></g></g><g transform="translate(0 0)"><g transform="translate(16.137 16.444)"><ellipse class="c" cx="4.979" cy="4.979" rx="4.979" ry="4.979"/></g><g transform="translate(11.089 11.089)"><path class="c" d="M161.271,163.669c0-7.145-7.51-12.568-15.051-8.789a8.518,8.518,0,0,0-3.806,3.848,10.173,10.173,0,0,0,3.723,13.563.7.7,0,0,0,.955-.253h0a.7.7,0,0,0-.255-.947,8.766,8.766,0,0,1-3.177-11.717,7.366,7.366,0,0,1,3.382-3.335,8.672,8.672,0,0,1,8.609,15.053.7.7,0,0,0-.253.947h0a.691.691,0,0,0,.95.255A10.026,10.026,0,0,0,161.271,163.669Z" transform="translate(-141.217 -153.642)"/></g><g transform="translate(4.843 4.842)"><path class="c" d="M169.864,166.017a16.273,16.273,0,1,0-24.506,14.029.7.7,0,0,0,.958-.251h0a.692.692,0,0,0-.245-.944,14.882,14.882,0,1,1,15.043,0,.692.692,0,0,0-.248.944h0a.7.7,0,0,0,.961.252A16.277,16.277,0,0,0,169.864,166.017Z" transform="translate(-137.318 -149.743)"/></g><path class="c" d="M176.527,167.836a21.116,21.116,0,1,0-31.776,18.221.7.7,0,0,0,.963-.248h0a.692.692,0,0,0-.245-.944,19.726,19.726,0,1,1,19.886,0,.694.694,0,0,0-.247.945h0a.7.7,0,0,0,.963.248A21.126,21.126,0,0,0,176.527,167.836Z" transform="translate(-134.295 -146.72)"/></g></g><g transform="translate(625.926 1678.141)"><g transform="translate(5.935 30.104)"><path class="c" d="M138.849,249.28a.85.85,0,0,1-.846-.929l6.488-67.137a.859.859,0,0,1,.093-.314l7.845-14.936a.849.849,0,0,1,1.5,0l7.845,14.936a.861.861,0,0,1,.095.314l6.487,67.137a.849.849,0,0,1-1.565.53l-9.708-15.592h-7.808l-9.708,15.592A.848.848,0,0,1,138.849,249.28Zm7.316-67.738-6.124,63.368,8.045-12.919a.847.847,0,0,1,.719-.4h8.75a.852.852,0,0,1,.721.4l8.044,12.919L160.2,181.542l-7.017-13.358Z" transform="translate(-138 -165.511)"/><g transform="translate(4.972 14.936)"><path class="c" d="M160.675,192.222H141.952a.85.85,0,0,1-.572-1.477l8.672-7.908-7.118-6.49-.048-.046a.849.849,0,0,1,.582-1.467h15.69a.848.848,0,0,1,.572,1.475l-7.158,6.528,8.675,7.908a.85.85,0,0,1-.572,1.477Zm-16.533-1.7h14.341l-7.171-6.538Zm1.512-13.994,5.658,5.159,5.655-5.159Z" transform="translate(-141.103 -174.834)"/></g><g transform="translate(3.523 30.626)"><path class="c" d="M162.667,202.016H141.047a.849.849,0,0,1-.525-1.515l9.966-7.869-8.172-6.451-.051-.043a.849.849,0,0,1,.533-1.509h18.119a.849.849,0,0,1,.527,1.515l-8.218,6.488,9.969,7.869a.849.849,0,0,1-.527,1.515Zm-19.176-1.7h16.731l-8.366-6.605Zm1.746-13.992,6.62,5.224,6.616-5.224Z" transform="translate(-140.199 -184.628)"/></g><g transform="translate(1.545 46.316)"><path class="c" d="M164.928,215.884H139.813a.849.849,0,0,1-.545-1.5l11.892-9.958-9.937-8.462a.622.622,0,0,1-.058-.054.849.849,0,0,1,.558-1.488h21.688a.849.849,0,0,1,.545,1.5l-10.166,8.515,11.688,9.953a.848.848,0,0,1-.55,1.495Zm-22.779-1.7h20.474l-10.152-8.644Zm1.874-18.066,8.455,7.2,8.6-7.2Z" transform="translate(-138.964 -194.422)"/></g></g><g transform="translate(0 0)"><g transform="translate(16.137 16.444)"><ellipse class="c" cx="4.979" cy="4.979" rx="4.979" ry="4.979"/></g><g transform="translate(11.089 11.089)"><path class="c" d="M161.271,163.669c0-7.145-7.51-12.568-15.051-8.789a8.518,8.518,0,0,0-3.806,3.848,10.173,10.173,0,0,0,3.723,13.563.7.7,0,0,0,.955-.253h0a.7.7,0,0,0-.255-.947,8.766,8.766,0,0,1-3.177-11.717,7.366,7.366,0,0,1,3.382-3.335,8.672,8.672,0,0,1,8.609,15.053.7.7,0,0,0-.253.947h0a.691.691,0,0,0,.95.255A10.026,10.026,0,0,0,161.271,163.669Z" transform="translate(-141.217 -153.642)"/></g><g transform="translate(4.843 4.842)"><path class="c" d="M169.864,166.017a16.273,16.273,0,1,0-24.506,14.029.7.7,0,0,0,.958-.251h0a.692.692,0,0,0-.245-.944,14.882,14.882,0,1,1,15.043,0,.692.692,0,0,0-.248.944h0a.7.7,0,0,0,.961.252A16.277,16.277,0,0,0,169.864,166.017Z" transform="translate(-137.318 -149.743)"/></g><path class="c" d="M176.527,167.836a21.116,21.116,0,1,0-31.776,18.221.7.7,0,0,0,.963-.248h0a.692.692,0,0,0-.245-.944,19.726,19.726,0,1,1,19.886,0,.694.694,0,0,0-.247.945h0a.7.7,0,0,0,.963.248A21.126,21.126,0,0,0,176.527,167.836Z" transform="translate(-134.295 -146.72)"/></g></g><g class="ac" transform="matrix(1, 0, 0, 1, 436, 1521.47)"><g class="o" transform="translate(433.46 317.05)"><rect class="z" width="205.039" height="44.299"/><rect class="a" x="0.5" y="0.5" width="204.039" height="43.299"/></g></g><text class="p" transform="translate(969 1863.076)"><tspan x="-46.37" y="0">CLEARING HOUSE</tspan></text><g class="ab" transform="matrix(1, 0, 0, 1, 436, 1521.47)"><g class="o" transform="translate(433.46 381.29)"><rect class="z" width="205.039" height="44.299"/><rect class="a" x="0.5" y="0.5" width="204.039" height="43.299"/></g></g><text class="p" transform="translate(969 1927.32)"><tspan x="-60.33" y="0">ROAMING AGREEMENT</tspan></text><g class="aa" transform="matrix(1, 0, 0, 1, 436, 1521.47)"><g class="o" transform="translate(433.46 453.74)"><rect class="z" width="205.039" height="44.299"/><rect class="a" x="0.5" y="0.5" width="204.039" height="43.299"/></g></g><text class="p" transform="translate(969 1999.768)"><tspan x="-67.295" y="0">INTERNATIONAL CARRIER</tspan></text><path class="q" d="M4837.119,8216v44.082h-100.25" transform="translate(-3642.831 -6399.629)"/><path class="k" d="M4862.637,8122.041v103.542H4736.869" transform="translate(-3642.831 -6305.744)"/><path class="r" d="M4887.77,8019.58v168.383h-150.9" transform="translate(-3642.831 -6203.502)"/><path class="k" d="M4909.679,8019.579v195.009H4736.868" transform="translate(-3639.975 -6203.5)"/><path class="r" d="M4736.868,8027.462v163.4h216.557" transform="translate(-4106.209 -6206.395)"/><path class="q" d="M4736.869,8216v44.082h165.955" transform="translate(-4056.69 -6399.629)"/><path class="c" d="M7.375,3.726a2,2,0,0,1,3.6,0l5.988,12.389a2,2,0,0,1-1.8,2.87H3.188a2,2,0,0,1-1.8-2.87Z" transform="translate(1088.766 1869.629) rotate(-90)"/><path class="l" d="M7.375,3.726a2,2,0,0,1,3.6,0l5.988,12.389a2,2,0,0,1-1.8,2.87H3.188a2,2,0,0,1-1.8-2.87Z" transform="translate(1210.448 1811.309)"/><path class="i" d="M7.375,3.726a2,2,0,0,1,3.6,0l5.988,12.389a2,2,0,0,1-1.8,2.87H3.188a2,2,0,0,1-1.8-2.87Z" transform="translate(1235.762 1811.309)"/><path class="i" d="M7.375,3.726a2,2,0,0,1,3.6,0l5.988,12.389a2,2,0,0,1-1.8,2.87H3.188a2,2,0,0,1-1.8-2.87Z" transform="translate(1091.271 1993.639) rotate(-90)"/><path class="l" d="M7.375,3.726a2,2,0,0,1,3.6,0l5.988,12.389a2,2,0,0,1-1.8,2.87H3.188a2,2,0,0,1-1.8-2.87Z" transform="translate(1091.271 2020.264) rotate(-90)"/><g transform="translate(596.554 1811.309)"><path class="l" d="M7.375,3.726a2,2,0,0,1,3.6,0l5.988,12.389a2,2,0,0,1-1.8,2.87H3.188a2,2,0,0,1-1.8-2.87Z" transform="translate(0 0)"/><path class="k" d="M4737.214,8031.015c0,12.735-.346,188.1-.346,188.1h238.24" transform="translate(-4727.691 -8019.336)"/><path class="l" d="M7.375,3.726a2,2,0,0,1,3.6,0l5.988,12.389a2,2,0,0,1-1.8,2.87H3.188a2,2,0,0,1-1.8-2.87Z" transform="translate(253.038 190.603) rotate(90)"/></g><path class="i" d="M7.375,3.726a2,2,0,0,1,3.6,0l5.988,12.389a2,2,0,0,1-1.8,2.87H3.188a2,2,0,0,1-1.8-2.87Z" transform="translate(849.981 1975.287) rotate(90)"/><path class="i" d="M7.375,3.726a2,2,0,0,1,3.6,0l5.988,12.389a2,2,0,0,1-1.8,2.87H3.188a2,2,0,0,1-1.8-2.87Z" transform="translate(621.482 1811.309)"/><g transform="translate(646.321 1811.309)"><path class="k" d="M4736.869,8122.041v103.542h191.719" transform="translate(-4727.692 -8117.052)"/><path class="l" d="M7.375,3.726a2,2,0,0,1,3.6,0l5.988,12.389a2,2,0,0,1-1.8,2.87H3.188a2,2,0,0,1-1.8-2.87Z" transform="translate(203.66 99.355) rotate(90)"/><path class="l" d="M7.375,3.726a2,2,0,0,1,3.6,0l5.988,12.389a2,2,0,0,1-1.8,2.87H3.188a2,2,0,0,1-1.8-2.87Z" transform="translate(0 0)"/></g><g transform="translate(682.846 1795.258) rotate(-90)"><path class="e" d="M191.719,431.778V328.235H0V0" transform="translate(9.176 12.864)"/><path class="f" d="M7.375,3.726a2,2,0,0,1,3.6,0l5.988,12.389a2,2,0,0,1-1.8,2.87H3.188a2,2,0,0,1-1.8-2.87Z"/><path class="f" d="M7.375,3.726a2,2,0,0,1,3.6,0l5.988,12.389a2,2,0,0,1-1.8,2.87H3.188a2,2,0,0,1-1.8-2.87Z" transform="translate(210.072 449.631) rotate(180)"/></g><g transform="translate(682.846 1768.928) rotate(-90)"><path class="k" d="M191.719,431.778V302.922H0V0" transform="translate(9.176 12.864)"/><path class="l" d="M7.375,3.726a2,2,0,0,1,3.6,0l5.988,12.389a2,2,0,0,1-1.8,2.87H3.188a2,2,0,0,1-1.8-2.87Z"/></g><path class="c" d="M7.375,3.726a2,2,0,0,1,3.6,0l5.988,12.389a2,2,0,0,1-1.8,2.87H3.188a2,2,0,0,1-1.8-2.87Z" transform="translate(671.002 1811.309)"/><g transform="translate(1145.533 1521.471)"><path class="s" d="M1.434,0H9.608a1.181,1.181,0,0,1,1.181,1.181v29.06a0,0,0,0,1,0,0H0a0,0,0,0,1,0,0V1.434A1.434,1.434,0,0,1,1.434,0Z" transform="translate(61.491 45.562) rotate(-174.243)"/><path class="t" d="M185.391,143.3a11.724,11.724,0,1,0,13.558-9.547A11.722,11.722,0,0,0,185.391,143.3Z" transform="translate(-138.395 -130.514)"/><path class="t" d="M191.076,154.528h0A5.565,5.565,0,0,0,197.514,150l1.919-11.061-13.014-2.261-1.569,9.015A7.642,7.642,0,0,0,191.076,154.528Z" transform="translate(-139.39 -124.077)"/><path class="t" d="M187.519,137.593l-3.168,3.279a.924.924,0,0,0,.609,1.5l2.827,1.061Z" transform="translate(-140.634 -122.174)"/><g transform="translate(46.821 3.061)"><g class="u"><path class="v" d="M194.917,152.818a9.237,9.237,0,0,1,.049-9.824s-8.449-.492-9.741-3.663c0,0,9.424-12.949,21.063-3.746s3.193,22.841,3.193,22.841l-11.141,1.2Z" transform="translate(-185.198 -136.261)"/></g></g><path class="t" d="M188.2,140.717a3.222,3.222,0,1,0,3.725-2.624A3.221,3.221,0,0,0,188.2,140.717Z" transform="translate(-132.299 -121.235)"/><path class="v" d="M195.445,140.011l-1.23,5.46s-6.2.3-5.244-5.173l3.43,1.261Z" transform="translate(-130.81 -117.155)"/><path class="v" d="M191.075,141.408c-.6-.1-5.524-1.575-2.845-5.229,2.144-2.925,5.155.237,5.155.237Z" transform="translate(-133.784 -127.687)"/><path class="v" d="M193.934,142.281s-11.485,1.024-8.991-7.244a6.692,6.692,0,0,0,2.99,1.037s-.2-3.159,3.749-3.494c0,0-1.2,4.4,3.386,3.159Z" transform="translate(-139.698 -132.58)"/><path class="v" d="M205.147,141.216c-.092-.037,2.574-3.759-2.553-6.644-4.165-2.347-11.848-1.163-15.717,1.7-3.187,2.356,12.8,3.58,12.8,3.58Z" transform="translate(-135.821 -131.037)"/><path class="v" d="M196.529,135.889a5.2,5.2,0,0,1,2.608,6.422c-1.286,4.438-4.349,9.261-8.529,11.716l2.316-17.363Z" transform="translate(-127.203 -125.711)"/><path class="w" d="M200.794,144.927s-9.409,6.585-11.1,8.468-9.784,19.759-9.784,19.759l5.644,8.658L188,178.235l-.566,40.272s30.168,5.624,30.109,1.882c-5.848-10.058,5.835-47.423,5.835-47.423s2.445-13.549.563-19.193-14.112-7.9-14.112-7.9Z" transform="translate(-149.418 -106.95)"/><path class="s" d="M200.481,161.6l-6.21,8.28L182.98,158.4l.566-4.14-4.14-3.011,1.316,3.39-1.882,1.129-8.846-5.269.754,6.961,8.468,3.011s9.221,19.759,14.681,22.77c7.714-4.328,12.229-12.983,12.229-12.983Z" transform="translate(-169.994 -95.392)"/><path class="c" d="M191.51,137.341l-4.14,10.727,6.586,2.07,5.269-9.221Z" transform="translate(-133.924 -122.698)"/><path class="t" d="M202.8,177.114l-9.218,3.2,6.019-35-7.151-5.644-2.067,6.585,4.328,5.269s-12.608,35.753-9.6,40.459c6.022,2.824,19.384-.941,19.384-.941Z" transform="translate(-139.572 -117.87)"/></g><path class="l" d="M3396.76,7847.007h0Z" transform="translate(-2777.249 -6183.379)"/><g transform="translate(1149.73 1665.621)"><path class="f" d="M7.375,3.726a2,2,0,0,1,3.6,0l5.988,12.389a2,2,0,0,1-1.8,2.87H3.188a2,2,0,0,1-1.8-2.87Z" transform="translate(0 0)"/><path class="f" d="M7.375,3.726a2,2,0,0,1,3.6,0l5.988,12.389a2,2,0,0,1-1.8,2.87H3.188a2,2,0,0,1-1.8-2.87Z" transform="translate(18.352 112.455) rotate(180)"/><path class="e" d="M4736.869,8122.041v103.542" transform="translate(-4727.693 -8116.345)"/></g><g transform="translate(617.07 1527.66)"><g transform="translate(0 0)"><g transform="translate(0)"><g transform="translate(12.385 0)"><path class="x" d="M78.825-280.59s14.576-3.2,10.271,9.058c-4.553,12.965-14.62,3.47-14.62,3.47Z" transform="translate(-53.276 284.888)"/><path class="t" d="M68.365-232.658h0c-3.337,0-7.051-2.677-7.051-2.677V-267.37H73.342v31.539C73.342-232.71,71.113-232.658,68.365-232.658Z" transform="translate(-52.606 284.196)"/><path class="t" d="M83.7-268.165A14.835,14.835,0,0,1,68.861-253.33c-8.193,0-13.057-6.641-13.057-14.835S60.668-283,68.861-283A14.835,14.835,0,0,1,83.7-268.165Z" transform="translate(-52.326 284.991)"/><path class="t" d="M74.623-247.751h0a7.045,7.045,0,0,1-7.044-7.043v-10.153L84.3-267.37v9.947A9.673,9.673,0,0,1,74.623-247.751Z" transform="translate(-52.925 284.196)"/><path class="t" d="M84.65-263.878l3.24,4.774a1.168,1.168,0,0,1-1.082,1.733l-3.757.711Z" transform="translate(-53.712 284.018)"/><path class="y" d="M69.874-264.491s21.56-5.421,18.471-13.712c-5.606-15.046-28.259-.776-28.259-.776Z" transform="translate(-52.544 285.098)"/><path class="y" d="M74.18-284.706a47.453,47.453,0,0,0-10.4,2.454,15.229,15.229,0,0,0-9.471,13.933c-.034,2.153-.169,4.608-.3,7.5-.422,9.149-2.51,21.665-1.671,28.584l14.681-5.383s9.758-14.585,1.12-24.485c0,0-.457-7.711,5.2-8.759Z" transform="translate(-52.14 285.078)"/><path class="t" d="M69.962-262.383a4.076,4.076,0,0,1-4.076,4.076,4.077,4.077,0,0,1-4.077-4.076,4.077,4.077,0,0,1,4.077-4.077A4.076,4.076,0,0,1,69.962-262.383Z" transform="translate(-52.632 284.15)"/></g><path class="w" d="M58.346-238.388l-10.635,7.32s-3.759,2.285-6.6,9.549c0,0-7.08,23.866,13.083,21.36s39.079-19.268,39.079-19.268l-4.935-11.328a5.2,5.2,0,0,0-2.621-2.658l-11.76-5.326S63.144-232.078,58.346-238.388Z" transform="translate(-39.117 282.475)"/><path class="w" d="M48.687-228.833l-6.525,52.916a3.739,3.739,0,0,0,3.229,4.086c8,1.067,27.963,2.988,45.417-1.373a3.737,3.737,0,0,0,2.756-4.252l-3.711-45.562Z" transform="translate(-39.231 281.796)"/><g transform="translate(19.687 17.328)"><path class="c" d="M59.857-264.132l4.332,19.375a1.011,1.011,0,0,0,1.15.776l9.65-1.6a1.009,1.009,0,0,0,.816-1.232l-4.6-19.161a1.009,1.009,0,0,0-1.129-.763l-9.382,1.389A1.009,1.009,0,0,0,59.857-264.132Z" transform="translate(-59.832 266.75)"/></g><path class="s" d="M14.788,2.665,12.63,6.851,7.3,10.728l1.7-4.365,1.109.43L0,13.667.776,5.11,9.941,0Z" transform="matrix(-0.616, 0.788, -0.788, -0.616, 36.847, 30.45)"/><g transform="translate(27.198 42.134)"><path class="l" d="M74.533-240.243l12.745,6.592a16.027,16.027,0,0,1,6.416,6.052L104.145-210a14.993,14.993,0,0,1,2.156,8.818c-.212,2.645-1.162,5.419-3.945,6.634a49.282,49.282,0,0,1-33.8,6.262l-.791-11.385s15.426.759,24.153-6.072l.19-1.641-5.5-11.261Z" transform="translate(-67.768 240.243)"/></g><g transform="translate(0 36.508)"><path class="l" d="M41.244-220.8c7.909,2.689,16.764-12.862,18.939-23.649.844-4.183,9.194-.374,11.338.871a1.083,1.083,0,0,1,.509,1.211c-1.708,6.639-13.614,49.6-27.61,46.265C35.619-198.193,40.064-221.2,41.244-220.8Z" transform="translate(-39.074 246.355)"/></g><path class="l" d="M3.018.1C2.039.525-.524,7.644.1,8.719c2.688,2.354,11.967,4.629,13.256-.02C17.912-1.222,3.827,0,3.018.1Z" transform="translate(28.65 97.004) rotate(-110)"/><path class="c" d="M65.954-235.579a13.423,13.423,0,0,1-6.921-1.639.992.992,0,0,1-.262-1.334.9.9,0,0,1,1.272-.275h0c.287.195,6.456,4.218,13.851-1.606a.893.893,0,0,1,1.287.193,1,1,0,0,1-.183,1.35A14.385,14.385,0,0,1,65.954-235.579Z" transform="translate(-40.082 282.662)"/><path class="l" d="M61.673-246.4c-.942.43-3.408,7.548-2.812,8.624,2.586,2.354,12.052,5.105,13.291.456C76.541-247.239,62.452-246.491,61.673-246.4Z" transform="translate(-40.021 283.615)"/></g><path class="s" d="M14.981,9.115l.653-4.776L10.858.866l1.519,3.91L10.2,6.078,0,0,.869,8.03,10.638,11.5Z" transform="matrix(0.469, -0.883, 0.883, 0.469, 12.317, 95.797)"/></g><path class="l" d="M3411.715,7847.006s-9.945,6.018-11.183,7.094-5.454,5.028-6.189,13.185,15.686-2.77,15.686-2.77l2.174-16.674Z" transform="translate(-3393.025 -7802.351)"/></g></g></svg>