<svg xmlns="http://www.w3.org/2000/svg" width="196.244" height="30" viewBox="0 0 196.244 30"><defs><style>.a{fill:#fff;}</style></defs><g transform="translate(-764.1 -1595)"><path class="a" d="M15.432,1.043,11.606,8.8,3.047,10.047a1.876,1.876,0,0,0-1.037,3.2L8.2,19.281,6.738,27.805a1.874,1.874,0,0,0,2.718,1.974l7.657-4.025,7.657,4.025a1.875,1.875,0,0,0,2.718-1.974l-1.465-8.524,6.193-6.034a1.876,1.876,0,0,0-1.037-3.2L22.62,8.8,18.795,1.043a1.876,1.876,0,0,0-3.363,0Z" transform="translate(927.559 1595.001)"/><path class="a" d="M15.432,1.043,11.606,8.8,3.047,10.047a1.876,1.876,0,0,0-1.037,3.2L8.2,19.281,6.738,27.805a1.874,1.874,0,0,0,2.718,1.974l7.657-4.025,7.657,4.025a1.875,1.875,0,0,0,2.718-1.974l-1.465-8.524,6.193-6.034a1.876,1.876,0,0,0-1.037-3.2L22.62,8.8,18.795,1.043a1.876,1.876,0,0,0-3.363,0Z" transform="translate(886.258 1595.001)"/><path class="a" d="M15.432,1.043,11.606,8.8,3.047,10.047a1.876,1.876,0,0,0-1.037,3.2L8.2,19.281,6.738,27.805a1.874,1.874,0,0,0,2.718,1.974l7.657-4.025,7.657,4.025a1.875,1.875,0,0,0,2.718-1.974l-1.465-8.524,6.193-6.034a1.876,1.876,0,0,0-1.037-3.2L22.62,8.8,18.795,1.043a1.876,1.876,0,0,0-3.363,0Z" transform="translate(844.959 1595.001)"/><path class="a" d="M15.432,1.043,11.606,8.8,3.047,10.047a1.876,1.876,0,0,0-1.037,3.2L8.2,19.281,6.738,27.805a1.874,1.874,0,0,0,2.718,1.974l7.657-4.025,7.657,4.025a1.875,1.875,0,0,0,2.718-1.974l-1.465-8.524,6.193-6.034a1.876,1.876,0,0,0-1.037-3.2L22.62,8.8,18.795,1.043a1.876,1.876,0,0,0-3.363,0Z" transform="translate(803.658 1595.001)"/><path class="a" d="M15.3,1.033,11.508,8.714,3.031,9.95A1.858,1.858,0,0,0,2,13.118l6.133,5.976-1.45,8.442a1.856,1.856,0,0,0,2.692,1.955L16.961,25.5l7.583,3.986a1.857,1.857,0,0,0,2.692-1.955l-1.45-8.442,6.133-5.976A1.858,1.858,0,0,0,30.892,9.95L22.415,8.714,18.627,1.033a1.858,1.858,0,0,0-3.33,0Z" transform="translate(762.658 1595.001)"/></g></svg>